{"glyphs":{"0":{"ha":944,"x_min":142,"x_max":800,"o":"m 339 -1 q 317 0 326 -1 q 307 4 307 1 l 306 15 l 301 15 q 281 17 290 15 q 271 22 271 19 l 269 33 l 267 33 q 244 34 254 33 q 235 38 235 35 l 233 50 q 215 56 215 50 l 214 83 q 200 85 203 83 q 197 89 197 86 l 196 135 l 199 135 q 179 140 179 135 l 178 186 q 160 190 160 186 l 160 303 q 142 310 142 303 l 142 663 q 160 668 142 665 l 160 779 q 182 786 160 783 l 178 786 q 178 803 178 794 q 179 819 179 811 l 179 847 q 188 850 179 849 q 208 854 196 851 l 196 854 l 196 868 q 197 875 196 872 q 197 882 197 878 q 222 892 197 881 l 214 892 q 215 894 214 893 q 215 899 215 896 q 233 904 215 904 q 234 912 233 907 q 235 919 235 917 l 235 932 q 244 937 235 935 q 267 939 254 939 l 269 939 q 270 944 269 942 q 271 950 271 946 q 281 953 271 951 q 301 954 290 954 l 306 954 q 306 958 306 956 q 307 961 307 960 l 307 967 q 317 971 307 969 q 339 972 326 972 l 360 972 q 360 977 360 975 q 361 983 361 979 q 372 988 361 986 q 394 990 382 990 l 547 990 q 568 988 558 990 q 578 983 578 986 l 579 972 l 619 972 q 642 971 632 972 q 651 967 651 969 l 653 954 q 672 950 672 954 l 674 939 q 698 937 689 939 q 707 932 707 935 l 708 904 q 726 899 726 904 l 726 888 q 744 883 744 888 l 746 854 l 739 854 q 755 851 747 853 q 763 847 763 850 l 763 786 q 782 779 782 783 l 783 668 l 772 668 q 792 665 783 665 q 800 663 800 664 l 800 325 q 783 319 800 319 q 783 287 783 307 q 782 254 782 267 l 782 190 q 763 186 782 186 l 763 140 q 756 136 763 138 q 740 135 749 135 l 746 135 q 745 122 746 128 q 744 110 744 117 l 744 89 q 726 83 744 83 l 726 72 q 704 67 726 67 l 708 67 q 708 60 708 64 q 707 51 707 56 l 707 38 q 698 34 707 35 q 674 33 689 33 q 673 28 674 31 q 672 22 672 25 q 663 17 672 19 q 642 15 653 15 q 632 13 638 14 q 624 11 626 13 l 635 11 q 634 8 635 10 q 633 4 633 7 q 624 0 633 1 q 601 -1 614 -1 l 563 -3 l 563 -12 q 552 -17 563 -15 q 529 -18 542 -18 l 413 -18 q 390 -17 400 -18 q 381 -12 381 -15 l 379 -3 l 339 -1 m 354 731 l 338 731 l 319 724 l 322 724 l 338 725 l 351 725 l 354 731 m 319 281 l 338 275 l 354 275 l 351 279 l 329 279 q 325 280 326 279 q 322 281 324 281 l 319 281 m 606 179 l 601 179 l 586 178 l 572 178 l 569 174 l 586 174 l 606 179 m 336 179 l 356 174 l 372 174 l 371 178 l 347 178 q 343 178 344 178 q 339 179 342 179 l 336 179 m 586 793 q 589 792 588 793 q 593 792 590 792 l 604 792 l 586 797 l 569 797 l 586 793 m 603 710 q 607 709 606 710 q 611 708 608 708 l 622 708 l 604 713 l 603 710 m 624 281 l 619 281 l 603 279 l 589 279 l 588 275 l 604 275 l 624 281 m 372 797 l 356 797 l 336 792 l 339 792 l 357 793 l 371 793 l 372 797 m 444 111 l 497 111 l 497 122 q 508 126 497 125 q 531 128 518 128 l 533 128 q 534 133 533 131 q 535 139 535 135 q 538 143 535 142 q 551 144 540 144 q 552 152 551 147 q 553 160 553 157 l 553 172 q 561 174 553 174 q 582 178 569 175 l 569 178 q 570 202 569 190 q 571 226 571 214 l 571 274 q 590 279 571 276 l 588 279 l 588 710 q 574 710 576 710 q 571 714 571 711 l 569 793 l 572 793 q 553 797 553 793 l 551 826 l 554 826 q 535 832 535 826 l 533 843 l 531 843 q 508 844 518 843 q 497 849 497 846 l 497 860 l 444 860 q 444 857 444 858 q 443 854 443 856 l 443 849 q 411 843 443 843 l 410 843 q 409 840 410 842 q 408 838 408 839 l 408 832 q 385 826 408 826 l 389 826 l 389 813 q 388 805 389 808 q 388 797 388 801 q 381 794 388 796 q 365 793 374 793 l 372 793 q 372 778 372 786 q 371 763 371 769 l 371 732 q 364 727 371 729 q 347 725 357 725 l 354 725 l 354 279 l 343 279 l 371 274 l 372 178 q 388 172 388 178 l 389 144 q 408 139 408 144 l 410 128 l 411 128 q 433 124 426 128 q 443 118 440 121 l 444 111 z "},"1":{"ha":944,"x_min":190,"x_max":750,"o":"m 372 129 l 372 828 l 222 828 q 200 829 210 828 q 190 833 190 831 l 190 950 q 200 954 190 953 q 222 956 210 956 l 551 956 q 574 954 564 956 q 585 950 585 953 l 586 129 l 718 129 q 740 127 731 129 q 750 122 750 125 l 750 6 q 740 1 750 3 q 718 0 731 0 l 222 0 q 200 1 210 0 q 190 6 190 3 l 190 122 q 200 127 190 125 q 222 129 210 129 l 372 129 z "},"2":{"ha":944,"x_min":126,"x_max":815,"o":"m 144 258 q 167 264 144 261 l 163 264 l 163 276 q 163 285 163 281 q 164 293 164 289 q 181 297 164 294 l 181 311 q 181 317 181 314 q 182 325 182 321 q 185 329 182 328 q 199 331 188 331 q 199 335 199 333 q 200 342 200 338 q 221 349 200 346 l 218 349 q 219 357 218 353 q 219 364 219 361 l 219 376 q 235 381 219 381 l 235 386 q 235 389 235 388 q 236 393 236 390 q 254 399 236 399 q 255 403 254 401 q 256 410 256 406 q 265 415 256 413 q 288 417 275 417 l 290 417 q 291 421 290 419 q 292 426 292 422 q 294 431 292 429 q 308 432 297 432 l 308 438 q 309 440 308 439 q 310 444 310 442 q 332 449 310 446 l 328 449 l 328 454 q 328 457 328 456 q 329 461 329 458 q 339 465 329 464 q 361 467 349 467 l 364 467 l 364 472 q 365 474 364 474 q 365 478 365 475 q 368 482 365 481 q 382 483 371 483 q 383 488 382 486 q 383 493 383 489 q 394 498 383 496 q 417 500 404 500 l 419 500 l 419 511 q 442 517 419 514 l 438 517 l 438 522 q 438 525 438 524 q 439 529 439 526 q 449 533 439 532 q 471 533 458 533 l 475 533 q 476 537 475 535 q 476 540 476 539 l 476 546 q 482 549 478 547 q 490 551 485 550 q 501 556 494 553 l 493 556 q 494 558 493 557 q 494 561 494 560 q 517 568 494 565 l 511 568 l 511 574 q 512 576 511 575 q 513 579 513 578 q 522 583 513 582 q 546 585 531 585 l 547 585 l 547 590 q 548 593 547 592 q 549 597 549 594 q 571 601 549 599 l 567 601 l 567 614 q 567 621 567 617 q 568 629 568 625 q 575 632 571 631 q 593 640 579 633 l 585 640 q 585 643 585 642 q 586 646 586 644 q 608 653 586 650 l 603 653 l 603 776 l 607 776 q 586 782 586 776 l 585 794 q 571 795 574 794 q 568 799 568 796 l 567 811 l 571 811 q 549 817 549 811 l 547 828 l 546 828 q 522 829 531 828 q 513 833 513 831 l 511 843 l 431 843 q 430 838 431 840 q 429 833 429 836 q 420 829 429 831 q 396 828 411 828 l 393 828 q 392 824 393 826 q 392 817 392 821 q 385 813 392 814 q 371 811 379 811 l 374 811 l 374 799 q 357 794 374 794 q 356 781 357 789 q 356 769 356 774 l 356 750 q 333 743 356 743 l 338 743 q 337 735 338 739 q 336 728 336 731 l 336 715 q 326 711 336 713 q 304 710 317 710 l 158 710 q 136 711 146 710 q 126 715 126 713 l 126 799 q 144 804 126 801 l 144 849 q 153 851 147 849 q 160 855 156 853 q 171 860 165 857 l 163 860 q 163 863 163 861 q 164 867 164 864 q 181 872 164 869 l 181 885 q 181 892 181 888 q 182 900 182 896 q 192 903 182 903 q 214 904 201 904 l 218 904 q 219 910 218 907 q 219 917 219 913 q 226 921 219 918 q 244 926 233 924 l 235 926 q 235 931 235 929 q 236 933 236 932 q 245 938 236 936 q 269 940 254 940 l 272 940 q 273 944 272 943 q 274 950 274 946 q 283 954 274 953 q 306 956 293 956 l 328 957 q 328 962 328 960 q 329 968 329 964 q 339 972 329 971 q 361 972 349 972 l 561 972 q 584 972 574 972 q 594 968 594 971 l 596 957 l 588 957 q 600 956 592 956 l 617 956 q 639 954 629 956 q 649 950 649 953 l 650 940 l 654 940 q 676 938 667 940 q 686 933 686 936 l 688 924 l 690 924 q 713 922 703 924 q 722 917 722 919 l 722 904 q 742 900 742 904 l 742 889 l 738 889 q 760 883 760 886 l 760 872 l 756 872 q 778 867 778 869 l 779 838 q 797 833 797 838 l 797 788 l 793 788 q 815 781 815 785 l 815 647 q 793 642 815 642 l 797 642 l 797 599 q 790 594 797 596 q 774 592 783 592 l 779 592 q 778 584 779 588 q 778 576 778 581 l 778 563 q 756 557 778 557 l 760 557 l 760 531 q 753 526 760 528 q 736 524 746 524 l 742 524 l 742 511 q 722 507 742 507 l 722 494 q 716 490 722 492 q 701 489 710 489 l 704 489 l 704 479 q 694 475 704 476 q 672 474 685 474 l 669 474 q 669 468 669 471 q 668 463 668 465 q 646 456 668 456 l 649 456 l 649 446 q 642 441 649 443 q 625 439 635 439 l 631 439 l 631 428 q 621 424 631 425 q 599 424 611 424 l 596 424 q 595 420 596 422 q 594 417 594 418 l 594 411 q 584 407 594 408 q 561 406 574 406 l 560 406 q 559 403 560 404 q 558 400 558 401 l 558 394 q 551 390 558 392 q 535 388 544 388 l 539 388 l 539 378 q 521 372 539 372 l 521 360 q 510 357 521 358 q 489 356 500 356 l 485 356 l 485 343 q 478 339 485 340 q 465 338 472 338 l 465 326 q 447 321 465 321 l 447 311 q 438 306 447 308 q 415 304 428 304 l 411 304 q 410 297 411 301 q 410 289 410 292 l 410 275 q 393 271 410 271 q 392 258 392 267 q 385 254 392 256 q 371 253 379 253 l 374 253 l 374 243 q 367 238 374 240 q 350 236 360 236 l 357 236 q 356 229 357 233 q 356 221 356 225 l 356 207 q 333 203 356 203 l 338 203 l 338 129 l 764 129 q 787 127 776 129 q 797 122 797 125 l 797 6 q 787 1 797 3 q 764 0 776 0 l 158 0 q 136 1 146 0 q 126 6 126 3 l 126 207 q 147 213 126 210 l 144 213 l 144 258 z "},"3":{"ha":944,"x_min":99,"x_max":842,"o":"m 279 17 q 255 19 264 17 q 246 24 246 21 l 244 32 l 247 32 q 243 33 244 32 q 240 33 242 33 q 218 35 228 33 q 208 39 208 36 l 207 51 q 192 56 192 51 l 190 67 l 193 67 q 188 67 190 67 q 185 68 186 68 q 164 69 174 68 q 154 74 154 71 l 153 100 l 158 100 q 136 107 136 100 l 135 119 q 122 120 128 119 q 117 124 117 121 l 115 168 l 118 168 q 99 175 99 168 l 99 225 q 131 229 99 229 l 294 229 q 317 228 307 229 q 326 225 326 228 l 328 179 q 344 174 344 179 l 346 163 l 342 163 q 365 157 365 160 l 367 144 l 368 144 q 390 144 381 144 q 400 140 400 143 l 401 129 l 521 129 q 522 134 521 132 q 522 140 522 136 q 532 144 522 143 q 554 144 542 144 l 556 144 l 556 150 q 556 153 556 151 q 557 157 557 154 q 564 160 557 158 q 581 163 571 161 l 576 163 l 576 168 q 577 170 576 169 q 578 174 578 171 q 585 176 578 175 q 604 179 593 176 l 593 179 l 593 193 q 594 200 593 196 q 594 207 594 204 q 614 213 594 210 l 611 213 l 611 226 q 612 233 611 229 q 613 242 613 238 q 635 247 613 244 l 631 247 l 631 356 l 635 356 q 613 360 613 356 l 611 388 l 617 388 q 594 394 594 388 l 593 424 q 578 428 578 424 l 576 438 l 579 438 q 574 438 576 438 q 571 439 572 439 q 549 441 558 439 q 539 446 539 443 l 538 456 l 535 456 q 513 458 522 456 q 503 463 503 460 l 501 472 q 458 473 481 472 q 414 474 435 474 l 314 474 q 292 475 301 474 q 282 479 282 476 l 282 597 q 304 601 282 599 l 300 601 l 300 607 q 301 609 300 608 q 301 613 301 610 q 308 615 301 614 q 322 618 314 617 l 317 618 l 317 624 q 317 626 317 625 q 318 629 318 628 q 326 632 321 629 q 334 635 329 633 q 344 640 339 638 l 336 640 q 337 643 336 642 q 338 646 338 644 q 360 653 338 650 l 354 653 q 355 658 354 656 q 356 664 356 660 q 364 665 358 664 q 383 668 369 665 l 372 668 l 372 682 q 373 689 372 685 q 374 697 374 693 q 394 704 374 701 l 392 704 l 392 714 q 411 719 392 719 q 412 724 411 722 q 413 731 413 726 q 419 732 415 731 q 440 736 425 733 l 428 736 l 428 742 q 428 744 428 743 q 429 749 429 746 q 446 753 429 753 l 446 758 q 447 761 446 760 q 447 765 447 763 q 467 771 447 771 l 467 778 q 474 779 468 772 q 488 792 481 786 l 482 792 q 483 794 482 793 q 483 799 483 796 q 506 804 483 801 l 501 804 q 502 809 501 807 q 503 815 503 811 q 525 821 503 818 l 521 821 q 522 825 521 824 q 522 828 522 826 l 522 833 q 544 838 522 838 l 538 843 l 351 843 q 251 844 301 843 q 149 844 200 844 q 126 846 136 844 q 117 850 117 847 l 117 968 q 126 972 117 971 q 149 972 136 972 l 774 972 q 797 972 786 972 q 807 968 807 971 l 807 833 q 800 829 807 831 q 783 828 793 828 l 788 828 q 787 824 788 826 q 786 817 786 822 q 780 813 786 814 q 765 811 774 811 l 768 811 l 768 799 q 763 796 768 797 q 751 794 758 794 l 751 782 q 728 776 751 776 l 732 776 l 732 767 q 714 761 732 761 q 713 755 713 758 q 713 750 713 751 q 694 743 713 743 l 694 732 q 674 726 694 726 l 678 726 q 677 724 678 725 q 676 721 676 722 l 676 715 q 657 710 676 710 l 657 699 q 642 693 657 693 q 640 682 640 689 q 618 675 640 675 l 622 675 q 622 672 622 674 q 621 664 621 669 q 603 660 621 660 l 603 647 q 597 643 603 644 q 582 642 590 642 l 585 642 l 585 631 q 567 625 585 625 q 566 619 567 622 q 565 614 565 617 q 549 608 565 608 l 549 601 l 544 601 q 559 599 553 600 q 565 597 565 599 l 567 586 q 578 585 574 586 q 590 585 583 585 l 625 585 q 647 583 638 585 q 657 579 657 582 l 658 568 l 664 568 q 694 561 694 568 l 694 551 q 713 546 713 549 l 714 533 l 718 533 q 742 533 733 533 q 751 529 751 532 l 753 500 l 742 500 q 760 496 751 497 q 768 493 768 494 l 768 483 q 786 478 786 483 l 788 467 q 807 461 807 467 l 807 432 l 796 432 q 815 428 807 429 q 822 426 822 428 l 824 381 q 842 376 842 381 l 842 225 q 835 221 842 222 q 818 219 828 219 l 824 219 q 823 208 824 214 q 822 196 822 203 l 822 175 q 800 168 822 168 l 807 168 l 807 142 q 800 138 807 139 q 783 136 793 136 l 788 136 q 787 128 788 132 q 786 121 786 125 l 786 107 q 779 102 786 104 q 763 100 772 100 l 768 100 l 768 90 q 763 87 768 88 q 751 85 758 86 l 751 74 q 728 68 751 68 l 732 68 l 732 56 q 722 52 732 53 q 699 51 711 51 l 696 51 q 695 48 696 50 q 694 44 694 46 l 694 39 q 664 33 694 33 l 644 32 l 658 32 q 658 29 658 31 q 657 24 657 28 q 647 19 657 21 q 625 17 638 17 l 622 17 q 622 14 622 15 q 621 11 621 13 l 621 6 q 611 1 621 3 q 589 0 601 0 l 333 0 q 311 1 321 0 q 301 6 301 3 l 300 15 l 279 17 z "},"4":{"ha":944,"x_min":108,"x_max":833,"o":"m 140 219 q 118 221 128 219 q 108 225 108 222 l 108 561 q 129 568 108 565 l 126 568 l 126 597 q 135 599 129 597 q 153 606 139 600 l 144 606 q 145 608 144 607 q 146 613 146 610 q 164 618 146 618 l 164 629 q 186 636 164 633 l 181 636 l 181 657 q 181 668 181 663 q 182 681 182 674 q 191 685 182 683 q 215 686 200 686 l 218 686 q 219 694 218 689 q 219 701 219 699 l 219 714 q 222 718 219 717 q 236 719 225 719 l 236 733 q 237 740 236 736 q 238 749 238 744 q 247 752 238 751 q 269 753 257 753 l 274 753 q 274 761 274 756 q 275 769 275 767 l 275 781 q 281 785 275 783 q 296 788 288 786 l 290 788 l 290 801 q 291 808 290 804 q 292 815 292 813 q 302 819 292 818 q 325 821 313 821 l 328 821 q 328 828 328 824 q 329 836 329 833 l 329 849 q 351 856 329 853 l 347 856 l 347 869 q 348 876 347 872 q 349 883 349 881 q 354 886 350 885 q 361 889 357 888 q 372 893 365 890 l 364 893 q 365 896 364 894 q 365 900 365 897 q 383 904 365 904 q 384 912 383 907 q 385 919 385 917 l 385 933 q 407 940 385 938 l 401 940 l 401 951 q 402 960 401 956 q 403 968 403 964 q 413 972 403 971 q 435 972 424 972 l 617 972 q 641 972 632 972 q 650 968 650 971 l 650 951 q 632 946 650 946 q 631 938 632 943 q 631 931 631 933 l 631 918 q 615 913 631 913 q 614 901 614 908 q 596 896 614 896 q 594 885 594 892 q 578 879 594 879 q 577 872 578 876 q 576 864 576 867 l 576 850 q 569 846 576 847 q 554 844 563 844 l 560 844 q 558 833 558 839 q 552 829 558 831 q 538 828 546 828 l 540 828 l 540 817 q 533 813 540 814 q 517 811 526 811 l 522 811 q 522 799 522 804 q 521 786 521 793 l 521 767 q 511 763 521 764 q 490 761 501 761 l 486 761 q 485 753 486 758 q 485 746 485 749 l 485 732 q 463 726 485 726 l 467 726 l 467 699 q 456 694 467 696 q 433 693 446 693 l 431 693 q 430 685 431 690 q 429 678 429 681 l 429 664 q 413 660 429 660 q 412 652 413 657 q 411 644 411 647 l 411 631 q 402 626 411 628 q 378 625 393 625 l 376 625 q 376 617 376 622 q 375 610 375 613 l 375 599 q 353 592 375 592 l 357 592 q 356 580 357 585 q 356 568 356 575 l 356 546 q 346 542 356 543 q 324 540 336 540 l 319 540 l 319 350 l 493 350 l 493 447 q 494 496 493 471 q 494 546 494 521 q 503 550 494 549 q 528 551 513 551 l 674 551 q 694 550 685 551 q 704 546 704 549 l 706 350 q 727 349 715 350 q 747 349 739 349 l 803 349 q 824 347 814 349 q 833 342 833 344 l 833 225 q 824 221 833 222 q 803 219 814 219 l 706 218 q 705 164 706 197 q 704 111 704 131 l 704 6 q 694 1 704 3 q 674 0 685 0 l 528 0 q 503 1 513 0 q 494 6 494 3 l 493 218 l 140 219 z "},"5":{"ha":944,"x_min":144,"x_max":797,"o":"m 347 111 q 348 115 347 113 q 349 118 349 117 l 349 124 q 379 128 349 128 l 418 129 q 419 134 418 132 q 419 139 419 136 q 428 143 419 142 q 449 144 438 144 q 458 147 453 146 q 468 149 464 147 l 457 149 q 458 151 457 150 q 458 156 458 153 q 468 160 458 158 q 489 161 478 161 l 492 161 l 492 167 q 492 169 492 168 q 493 174 493 171 q 515 179 493 176 l 513 179 l 513 189 q 519 192 513 190 q 533 194 525 193 l 529 194 q 530 199 529 197 q 531 206 531 201 q 533 210 531 208 q 547 211 536 211 q 548 219 547 214 q 549 226 549 224 l 549 240 q 571 246 549 243 l 567 246 l 567 260 q 567 267 567 264 q 568 275 568 271 q 576 276 571 275 q 597 281 585 278 l 585 281 l 585 406 q 573 406 578 406 q 568 410 568 407 l 567 438 l 571 438 q 549 444 549 438 l 547 454 l 553 454 q 531 461 531 454 l 529 472 l 535 472 q 513 479 513 472 l 513 489 q 493 493 493 492 l 492 504 l 488 504 q 479 505 483 504 q 471 506 475 506 q 448 507 458 506 q 438 511 438 508 l 438 522 q 378 523 406 522 q 319 524 350 524 l 190 524 q 160 531 160 524 l 163 597 l 164 849 l 164 907 q 165 937 164 922 q 165 967 165 951 q 176 971 165 969 q 199 972 186 972 l 726 972 q 758 967 758 972 l 758 849 q 726 843 758 843 l 375 842 q 374 817 375 832 q 374 794 374 803 l 374 749 q 367 744 374 746 q 350 742 360 742 l 357 742 l 357 668 l 414 668 q 446 663 446 668 l 447 653 l 478 653 q 501 652 489 653 q 525 651 513 651 q 547 650 538 651 q 557 646 557 649 l 558 636 l 579 636 q 602 634 592 636 q 613 629 613 632 l 614 617 l 615 617 q 640 615 631 617 q 649 611 649 614 l 649 601 l 644 601 q 667 596 667 599 l 668 585 l 664 585 q 681 582 674 583 q 688 579 688 581 l 688 567 l 681 567 q 703 560 703 564 l 703 550 q 722 544 722 547 l 724 535 l 719 535 q 742 529 742 532 l 742 515 q 758 511 758 515 l 760 483 q 778 478 778 483 l 778 415 q 797 408 797 413 l 797 275 q 778 271 797 271 l 778 207 q 771 203 778 204 q 754 201 764 201 l 760 201 q 759 194 760 199 q 758 188 758 190 l 758 175 q 738 168 758 168 l 743 168 q 742 160 743 164 q 742 151 742 156 l 742 140 q 719 135 742 135 l 724 135 q 723 130 724 132 q 722 124 722 128 q 704 119 722 119 q 703 113 703 117 q 703 106 703 108 q 688 100 703 100 l 688 89 q 668 83 688 83 q 667 78 668 81 q 667 74 667 76 q 657 69 667 71 q 635 68 647 68 l 632 68 q 631 65 632 67 q 631 61 631 63 l 631 56 q 600 50 631 50 l 581 49 l 594 49 q 594 45 594 46 q 593 43 593 44 l 593 38 q 583 34 593 35 q 561 33 574 33 l 558 33 q 558 28 558 31 q 557 22 557 25 q 547 18 557 19 q 526 17 538 17 q 501 14 514 15 q 475 11 488 13 l 485 11 q 484 8 485 10 q 483 4 483 7 q 474 0 483 1 q 451 -1 464 -1 l 392 -3 q 391 -8 392 -6 q 390 -12 390 -10 q 381 -17 390 -15 q 360 -18 371 -18 l 176 -18 q 154 -17 164 -18 q 144 -12 144 -15 l 144 104 q 154 108 144 107 q 176 110 164 110 l 347 111 z "},"6":{"ha":944,"x_min":90,"x_max":851,"o":"m 304 -1 q 283 0 293 -1 q 272 4 272 1 l 272 17 l 269 17 q 247 18 257 17 q 236 22 236 19 l 235 33 q 218 38 218 33 l 218 50 l 214 50 q 192 51 201 50 q 182 56 182 53 l 181 68 l 185 68 q 163 74 163 68 l 163 100 q 149 101 151 100 q 146 106 146 103 l 144 119 q 126 124 126 119 l 125 150 l 129 150 q 107 157 107 150 l 107 219 q 90 225 90 219 l 90 408 q 113 415 90 413 l 107 415 l 107 478 q 125 483 107 483 l 125 497 q 126 503 125 500 q 126 511 126 507 q 144 515 126 515 q 145 523 144 518 q 146 531 146 528 l 146 544 q 163 550 146 547 l 163 579 q 185 585 163 582 l 181 585 l 181 597 q 181 603 181 600 q 182 611 182 607 q 185 615 182 614 q 199 617 188 617 l 199 622 q 199 625 199 624 q 200 629 200 626 q 222 636 200 633 l 218 636 l 218 663 q 224 665 218 664 q 239 668 231 667 l 235 668 l 235 674 q 235 677 235 676 q 236 679 236 678 q 244 682 238 678 q 263 690 251 686 l 254 690 q 255 693 254 692 q 256 696 256 694 q 278 703 256 700 l 272 703 l 272 713 q 290 718 272 718 q 291 726 290 721 q 292 733 292 731 l 292 746 q 317 757 292 746 l 308 757 q 309 760 308 758 q 310 764 310 761 q 328 769 310 769 l 328 781 q 350 788 328 785 l 346 788 q 347 791 346 789 q 347 797 347 793 q 367 803 347 800 l 364 803 l 364 808 q 365 811 364 810 q 365 815 365 813 q 383 819 365 819 l 383 847 q 406 854 383 851 l 401 854 q 402 859 401 857 q 403 865 403 861 q 422 871 403 868 l 419 871 l 419 876 q 420 881 419 879 q 421 885 421 882 q 440 889 421 886 l 438 889 l 438 899 q 457 904 438 904 q 458 909 457 907 q 458 915 458 911 q 465 918 461 917 q 483 926 469 919 l 475 926 q 476 929 475 928 q 476 933 476 931 q 499 940 476 938 l 493 940 l 493 950 q 503 953 493 951 q 525 954 513 954 l 710 954 q 732 953 722 954 q 742 950 742 951 l 742 935 q 719 929 742 929 l 724 929 l 724 917 q 704 911 724 911 q 703 906 704 908 q 703 900 703 903 q 698 897 703 897 q 686 894 693 896 l 686 885 q 664 879 686 879 l 668 879 l 668 865 q 649 861 668 861 l 649 849 q 642 844 649 846 q 628 843 636 843 l 631 843 l 631 833 q 610 828 631 828 l 613 828 l 613 817 q 606 812 613 814 q 589 810 599 810 l 594 810 l 594 797 q 575 793 594 793 l 575 782 q 569 778 575 779 q 554 776 563 776 l 558 776 l 558 765 q 540 760 558 760 q 539 749 539 756 q 532 744 539 746 q 515 742 525 742 l 522 742 q 522 733 522 738 q 521 726 521 729 l 521 714 q 503 710 521 710 l 503 697 q 485 692 503 692 l 485 682 q 478 677 485 679 q 461 675 471 675 l 465 675 l 465 664 q 447 658 465 658 l 447 631 q 429 625 447 625 l 429 617 l 435 617 l 561 617 q 585 615 576 617 q 594 611 594 614 l 596 601 l 635 601 q 659 600 650 601 q 668 596 668 599 l 668 585 l 664 585 q 686 579 686 582 l 688 567 l 690 567 q 713 565 703 567 q 724 560 724 563 l 724 550 l 719 550 q 742 544 742 547 l 742 535 l 738 535 q 758 529 758 532 l 760 515 q 778 511 778 515 l 778 499 l 774 499 q 790 496 783 497 q 797 493 797 494 l 799 465 l 788 465 q 806 462 799 463 q 814 460 814 461 l 815 432 l 810 432 q 826 430 819 431 q 833 428 833 429 l 833 382 l 829 382 q 851 376 851 379 l 851 225 q 829 219 851 219 l 833 219 l 833 175 q 826 170 833 172 q 810 168 819 168 l 815 168 q 815 161 815 165 q 814 153 814 157 l 814 140 q 792 135 814 135 l 799 135 q 798 127 799 131 q 797 119 797 124 l 797 106 q 778 100 797 100 l 778 89 q 760 83 778 83 q 759 78 760 81 q 758 74 758 76 q 736 68 758 68 l 743 68 q 742 56 742 63 q 724 50 742 50 l 724 38 q 713 34 724 35 q 690 33 703 33 l 688 33 q 687 28 688 31 q 686 22 686 25 q 676 18 686 19 q 654 17 667 17 l 635 15 l 649 15 l 649 4 q 638 0 649 1 q 615 -1 628 -1 l 596 -3 q 595 -8 596 -6 q 594 -12 594 -10 q 585 -17 594 -15 q 561 -18 576 -18 l 379 -18 q 357 -17 367 -18 q 347 -12 347 -15 l 346 -3 l 304 -1 m 600 438 q 604 437 603 438 q 608 436 606 436 l 618 436 l 600 443 l 583 443 l 583 438 l 600 438 m 340 146 l 358 140 l 375 140 l 374 144 l 351 144 q 347 145 349 144 q 343 146 344 146 l 340 146 m 321 163 l 340 157 l 357 157 l 356 161 l 332 161 q 328 162 329 161 q 324 163 326 163 l 321 163 m 676 247 l 672 247 l 656 246 l 642 246 l 639 242 l 656 242 l 676 247 m 267 247 l 285 242 l 301 242 l 300 246 l 278 246 q 273 247 275 246 q 269 247 271 247 l 267 247 m 656 354 l 663 354 q 667 353 665 354 q 672 353 669 353 l 675 353 l 656 358 l 639 358 l 656 354 m 285 196 l 303 190 l 319 190 l 318 194 l 297 194 q 292 195 294 194 q 288 196 290 196 l 285 196 m 619 163 l 615 163 l 600 161 l 586 161 l 583 157 l 600 157 l 619 163 m 319 408 l 303 408 l 285 404 l 288 404 l 304 406 l 319 408 m 301 358 l 285 358 l 267 353 l 269 353 l 286 354 l 300 354 l 301 358 m 375 460 l 358 460 l 340 453 l 343 453 l 360 454 l 374 454 l 375 460 m 357 443 l 340 443 l 321 436 l 324 436 l 342 438 l 356 438 l 357 443 m 431 111 l 511 111 q 512 115 511 113 q 513 118 513 117 l 513 124 q 522 127 513 126 q 546 128 531 128 l 547 128 l 547 138 q 556 138 549 133 q 575 149 564 143 l 567 149 q 567 151 567 150 q 568 156 568 153 q 576 157 571 156 q 594 161 581 158 l 583 161 l 583 167 q 584 169 583 168 q 585 174 585 171 q 592 176 585 175 q 607 179 599 178 l 603 179 l 603 189 q 621 194 603 194 l 621 217 q 622 228 621 222 q 622 240 622 233 q 631 242 622 242 q 650 246 639 243 l 639 246 l 639 354 l 643 354 q 622 360 622 354 l 621 406 q 608 406 614 406 q 603 410 603 407 l 603 424 q 585 428 585 424 l 583 438 l 589 438 q 574 440 581 438 q 568 444 568 442 l 567 454 l 571 454 q 547 461 547 454 l 547 472 l 525 472 q 503 474 513 472 q 493 479 493 476 l 493 488 l 431 488 q 430 484 431 486 q 429 479 429 482 q 419 474 429 476 q 397 472 410 472 l 392 472 l 392 461 q 385 456 392 458 q 368 454 378 454 l 374 454 l 374 444 q 367 440 374 442 q 350 438 360 438 l 356 438 l 356 428 q 336 424 356 424 l 336 410 q 331 406 336 407 q 319 406 326 406 q 319 392 319 400 q 318 379 318 383 l 318 360 q 297 354 318 354 l 301 354 l 301 246 l 297 246 q 318 240 318 243 l 319 194 q 336 189 336 194 l 336 179 q 356 174 356 176 l 356 161 l 351 161 q 374 156 374 158 l 374 144 q 392 139 392 144 l 392 128 l 397 128 q 429 119 425 128 l 431 111 z "},"7":{"ha":944,"x_min":99,"x_max":842,"o":"m 263 303 q 263 322 263 313 q 264 342 264 331 q 286 349 264 346 l 281 349 l 281 371 q 281 382 281 376 q 282 393 282 388 q 285 397 282 396 q 299 399 288 399 l 299 413 q 299 419 299 415 q 300 426 300 424 q 303 431 300 429 q 317 432 306 432 l 317 446 q 317 453 317 449 q 318 461 318 457 q 336 467 318 467 q 337 473 336 469 q 338 481 338 476 l 338 493 q 360 500 338 497 l 354 500 l 354 529 q 372 533 354 533 l 372 539 q 373 542 372 540 q 374 546 374 543 q 392 551 374 549 l 392 579 q 414 585 392 582 l 410 585 l 410 590 q 410 593 410 592 q 411 597 411 594 q 436 606 411 594 l 428 606 q 428 608 428 607 q 429 613 429 610 q 432 617 429 615 q 446 618 435 618 l 446 632 q 447 639 446 635 q 447 646 447 643 q 465 653 447 650 l 465 658 q 466 661 465 660 q 467 664 467 663 q 473 666 467 665 q 488 668 479 667 l 482 668 l 482 674 q 483 676 482 675 q 483 679 483 676 q 492 682 485 678 q 510 690 500 686 l 501 690 q 502 693 501 692 q 503 697 503 694 q 510 700 506 699 q 528 708 514 701 l 519 708 q 520 711 519 710 q 521 714 521 713 q 538 719 521 719 l 538 733 q 538 740 538 736 q 539 749 539 744 q 556 753 539 753 l 556 758 q 556 760 556 760 q 557 764 557 761 q 566 767 558 763 q 583 775 574 771 l 575 775 q 576 778 575 776 q 576 781 576 779 q 599 788 576 785 l 593 788 l 593 800 q 594 807 593 803 q 594 815 594 811 q 618 821 594 821 l 611 828 l 131 828 q 99 833 99 828 l 99 950 q 131 956 99 956 l 808 956 q 831 954 821 956 q 842 950 842 953 l 842 850 q 835 846 842 847 q 818 844 828 844 l 824 844 l 824 822 q 823 810 824 815 q 822 799 822 806 q 807 794 822 794 q 806 786 807 792 q 806 778 806 781 l 806 767 q 788 761 806 761 q 787 753 788 758 q 786 744 786 747 l 786 731 q 764 725 786 725 l 768 725 l 768 715 q 761 711 768 713 q 746 710 754 710 l 750 710 l 750 699 q 732 693 750 693 l 732 681 q 713 675 732 675 l 713 664 q 694 660 713 660 l 694 629 q 672 624 694 624 l 676 624 l 676 614 q 658 608 676 608 q 657 599 657 604 q 650 594 657 596 q 633 592 643 592 l 639 592 l 639 579 q 617 574 639 574 l 621 574 l 621 563 q 615 558 621 560 q 600 557 608 557 l 604 557 q 603 549 604 553 q 603 542 603 544 l 603 529 q 579 522 603 522 l 583 522 l 583 511 q 577 508 583 510 q 563 507 571 507 l 567 507 q 566 499 567 503 q 565 492 565 494 l 565 478 q 547 472 565 472 l 547 463 q 540 458 547 460 q 524 456 533 456 l 531 456 q 530 447 531 451 q 529 440 529 443 l 529 426 q 511 422 529 422 q 510 415 511 419 q 510 407 510 410 l 510 394 q 488 388 510 388 l 494 388 l 494 367 q 494 356 494 361 q 493 343 493 350 q 475 338 493 338 q 474 321 475 331 q 474 304 474 311 l 474 274 q 467 271 474 272 q 453 269 461 269 l 457 269 q 456 203 457 236 q 456 136 456 169 l 456 6 q 445 1 456 3 q 424 0 435 0 l 278 0 q 255 1 265 0 q 244 6 244 3 l 244 258 q 267 264 244 261 l 263 264 l 263 303 z "},"8":{"ha":944,"x_min":90,"x_max":851,"o":"m 304 -1 q 283 0 293 -1 q 272 4 272 1 l 272 14 l 267 14 q 258 15 263 14 q 249 15 254 15 q 228 17 238 15 q 218 22 218 19 l 218 33 q 200 38 200 33 l 199 49 l 201 49 q 197 49 199 49 q 194 50 196 50 q 172 51 182 50 q 163 56 163 53 l 163 67 q 146 72 146 67 l 144 100 q 126 106 126 100 l 125 118 q 107 124 107 118 l 107 167 l 113 167 q 90 174 90 167 l 90 324 q 93 328 90 326 q 107 329 96 329 l 107 375 q 129 381 107 378 l 125 381 q 126 388 125 383 q 126 396 126 392 l 126 408 q 147 415 126 413 l 144 415 l 144 429 q 145 435 144 432 q 146 443 146 439 q 165 449 146 446 l 163 449 l 163 460 q 181 465 163 465 q 181 470 181 468 q 182 476 182 472 q 185 481 182 479 q 199 482 188 482 q 199 487 199 485 q 200 493 200 489 q 209 497 200 496 q 233 499 218 499 l 235 499 l 235 504 q 235 507 235 506 q 236 511 236 508 q 254 515 236 515 l 254 521 q 255 524 254 522 q 256 528 256 525 q 265 532 256 531 q 288 533 275 533 l 290 533 l 290 557 l 288 557 q 265 558 275 557 q 256 561 256 558 l 254 574 l 258 574 q 236 579 236 574 l 235 590 l 240 590 q 218 597 218 590 l 218 607 q 200 613 200 607 l 199 624 q 185 625 188 624 q 182 629 182 626 l 181 642 l 185 642 q 163 646 163 642 l 163 674 l 168 674 q 146 681 146 674 l 144 710 q 126 714 126 710 l 126 832 q 144 838 126 835 l 144 850 q 145 857 144 853 q 146 865 146 861 q 165 871 146 868 l 163 871 l 163 899 q 181 904 163 904 q 181 909 181 907 q 182 915 182 911 q 189 918 185 917 q 207 926 193 919 l 199 926 q 199 929 199 928 q 200 932 200 931 q 209 937 200 935 q 233 939 218 939 l 235 939 q 235 944 235 942 q 236 950 236 946 q 247 953 236 951 q 269 954 257 954 l 272 954 l 272 967 q 283 971 272 969 q 304 972 293 972 l 346 972 q 347 977 346 975 q 347 983 347 979 q 357 988 347 986 q 379 990 367 990 l 561 990 q 585 988 576 990 q 594 983 594 986 l 596 972 l 635 972 q 659 971 650 972 q 668 967 668 969 l 668 954 l 672 954 q 694 953 685 954 q 704 950 704 951 l 706 939 l 710 939 q 732 937 722 939 q 742 932 742 935 l 742 922 l 738 922 q 760 915 760 919 l 760 904 q 778 899 778 904 l 778 871 l 774 871 q 790 868 783 869 q 797 865 797 867 l 799 838 l 794 838 q 809 835 803 836 q 815 832 815 833 l 815 714 q 799 710 815 710 q 798 702 799 707 q 797 694 797 697 l 797 681 q 790 676 797 678 q 774 674 783 674 l 778 674 l 778 646 q 772 643 778 644 q 757 642 765 642 l 761 642 q 760 629 760 636 q 742 624 760 624 l 742 613 q 724 607 742 607 l 724 597 q 717 592 724 594 q 700 590 710 590 l 704 590 l 704 579 q 698 575 704 576 q 683 574 692 574 l 688 574 q 686 561 686 568 q 676 558 686 558 q 654 557 667 557 l 650 557 l 650 533 l 654 533 q 676 532 667 533 q 686 528 686 531 l 686 515 q 704 511 704 515 l 706 499 l 710 499 q 732 497 722 499 q 742 493 742 496 l 742 482 q 760 476 760 482 l 760 465 q 778 460 778 465 l 778 449 l 774 449 q 790 446 783 447 q 797 443 797 444 l 797 431 q 815 426 815 431 l 817 397 q 828 395 822 396 q 833 392 833 394 l 833 347 l 829 347 q 851 340 851 344 l 851 174 q 829 167 851 167 l 833 167 l 833 124 q 817 118 833 118 q 815 112 815 115 q 815 106 815 108 q 797 100 815 100 l 797 89 q 778 83 797 83 l 778 72 q 772 68 778 69 q 757 67 765 67 l 761 67 q 760 56 760 61 q 743 50 760 50 q 742 38 742 46 q 724 33 742 33 l 724 22 q 713 17 724 19 q 690 15 703 15 l 668 14 l 668 4 q 659 0 668 1 q 635 -1 650 -1 l 576 -3 q 576 -8 576 -6 q 575 -12 575 -10 q 565 -17 575 -15 q 544 -18 556 -18 l 397 -18 q 375 -17 385 -18 q 365 -12 365 -15 l 364 -3 l 304 -1 m 585 386 l 619 386 l 601 392 l 585 392 l 585 386 m 285 179 l 303 174 l 319 174 l 318 178 l 297 178 q 292 178 294 178 q 288 179 290 179 l 285 179 m 267 213 l 285 207 l 301 207 l 300 211 l 278 211 q 273 212 275 211 q 269 213 271 213 l 267 213 m 656 319 l 675 319 l 657 324 l 640 324 l 656 319 m 618 371 q 622 370 619 371 q 626 369 624 369 l 638 369 l 619 375 l 603 375 l 618 371 m 375 408 l 358 408 l 340 404 l 343 404 l 360 406 l 375 408 m 676 213 l 672 213 l 656 211 l 642 211 l 640 207 l 657 207 l 676 213 m 357 392 l 340 392 l 321 386 l 356 386 l 357 392 m 319 358 l 303 358 l 285 353 l 288 353 l 304 354 l 318 354 l 319 358 m 301 324 l 285 324 l 267 319 l 300 319 l 301 324 m 639 163 l 635 163 l 618 161 l 604 161 l 603 157 l 619 157 l 639 163 m 497 454 q 502 453 500 454 q 507 453 504 453 l 510 453 q 496 458 504 453 l 499 458 l 500 460 l 503 460 l 503 471 l 492 471 l 474 476 l 457 476 l 458 461 q 482 453 458 458 q 485 454 483 453 l 497 454 m 447 111 l 493 111 l 493 122 q 503 126 493 125 q 525 128 513 128 l 547 128 l 547 139 q 556 143 547 142 q 578 144 565 144 q 587 147 582 146 q 596 149 592 147 l 585 149 q 585 151 585 150 q 586 156 586 153 q 592 158 586 157 q 607 161 599 160 l 603 161 l 603 172 q 621 178 603 178 q 622 186 621 181 q 622 194 622 192 l 622 206 q 640 211 622 211 l 640 319 q 622 325 622 319 l 621 354 l 625 354 q 603 360 603 354 l 603 371 q 586 376 586 371 l 585 386 l 590 386 q 568 393 568 386 l 567 406 q 553 406 560 406 q 547 410 547 407 l 547 422 l 546 422 q 522 424 531 422 q 513 428 513 425 l 511 438 l 508 438 q 476 444 476 438 l 475 454 l 467 454 q 466 450 467 453 q 465 444 465 447 q 456 440 465 442 q 433 438 446 438 l 431 438 q 430 433 431 436 q 429 428 429 431 q 419 424 429 425 q 397 422 410 422 l 378 421 l 392 421 l 392 410 q 387 406 392 407 q 375 406 382 406 q 374 399 374 403 q 374 393 374 396 q 367 388 374 390 q 350 386 360 386 l 356 386 l 356 376 q 336 371 356 371 l 336 360 q 330 356 336 357 q 315 354 324 354 l 319 354 q 319 347 319 350 q 318 339 318 343 l 318 325 q 315 321 318 322 q 301 319 313 319 l 301 211 q 315 210 313 211 q 318 206 318 208 l 319 178 q 336 172 336 178 l 336 161 q 356 156 356 158 l 357 144 l 360 144 q 382 143 372 144 q 392 139 392 142 l 392 128 l 415 128 q 438 126 428 128 q 447 122 447 125 l 447 111 m 340 686 l 358 681 l 375 681 l 374 685 l 351 685 q 347 685 349 685 q 343 686 344 686 l 340 686 m 356 703 l 321 703 l 340 697 l 357 697 l 356 703 m 618 793 q 622 792 619 793 q 626 792 624 792 l 638 792 l 619 797 l 603 797 l 618 793 m 585 826 l 619 826 l 601 832 l 585 832 l 585 826 m 639 719 l 635 719 l 618 718 l 604 718 l 603 714 l 619 714 l 639 719 m 585 697 l 601 697 l 619 703 l 586 703 l 585 697 m 357 832 l 340 832 l 321 826 l 356 826 l 357 832 m 583 668 l 549 668 l 547 664 l 564 664 l 583 668 m 467 621 q 458 629 464 625 l 458 628 q 458 622 458 624 q 457 618 457 621 l 460 618 l 467 621 m 439 635 q 458 629 454 632 q 490 635 467 635 l 493 635 l 493 646 q 503 650 493 649 q 525 651 513 651 l 531 651 q 531 656 531 654 q 532 663 532 658 q 538 665 532 664 q 553 668 544 667 l 547 668 l 547 679 q 567 685 547 685 q 567 690 567 688 q 568 696 568 692 q 590 703 568 700 l 585 703 q 585 706 585 704 q 586 713 586 708 q 603 718 586 718 l 603 793 l 607 793 q 586 797 586 793 l 585 826 l 588 826 q 568 832 568 826 l 567 842 l 575 842 q 568 842 571 842 q 563 843 565 843 l 546 843 q 522 844 531 843 q 513 849 513 846 l 511 860 l 431 860 q 430 857 431 858 q 429 854 429 856 l 429 849 q 419 844 429 846 q 397 843 410 843 q 380 840 389 842 q 364 838 371 839 l 375 838 q 374 835 375 836 q 374 832 374 835 q 367 828 374 829 q 353 826 361 826 l 357 826 l 357 813 q 356 805 357 808 q 356 797 356 801 q 336 793 356 796 l 336 718 q 356 713 356 718 l 356 703 l 351 703 q 374 696 374 700 l 374 685 q 392 679 392 685 l 392 668 l 388 668 q 404 665 397 667 q 411 663 411 664 l 411 651 l 415 651 q 438 650 428 651 q 447 646 447 649 l 447 635 l 439 635 z "},"9":{"ha":944,"x_min":90,"x_max":851,"o":"m 529 367 l 536 367 q 533 367 536 368 q 531 368 531 367 l 529 367 m 218 38 q 235 43 218 40 q 235 49 235 46 q 236 54 236 51 q 258 61 236 58 l 254 61 l 254 67 q 255 69 254 68 q 256 72 256 71 q 258 76 256 75 q 272 78 261 78 l 272 89 q 279 92 272 90 q 294 94 286 93 l 290 94 l 290 100 q 291 102 290 101 q 292 106 292 103 q 294 110 292 108 q 308 111 297 111 q 309 116 308 114 q 310 122 310 118 q 332 129 310 126 l 328 129 l 328 140 q 346 144 328 144 l 346 150 q 347 153 346 151 q 347 157 347 154 q 367 163 347 160 l 364 163 l 364 176 q 365 183 364 179 q 365 190 365 188 q 383 196 365 196 l 383 207 q 406 213 383 210 l 401 213 l 401 218 q 402 221 401 219 q 403 225 403 222 q 419 229 403 229 l 419 235 q 420 238 419 236 q 421 242 421 239 q 440 247 421 244 l 438 247 l 438 258 q 460 264 438 261 l 457 264 l 457 278 q 458 285 457 282 q 458 293 458 289 q 478 297 458 294 l 475 297 l 475 303 q 476 306 475 304 q 476 310 476 307 q 496 315 476 313 l 493 315 l 493 325 q 511 331 493 331 q 512 338 511 333 q 513 346 513 343 l 513 356 l 507 356 l 379 356 q 357 357 367 356 q 347 360 347 358 l 346 371 l 304 371 q 283 372 293 371 q 272 376 272 374 l 272 388 l 278 388 q 256 394 256 388 l 254 404 l 257 404 q 252 405 254 404 q 249 406 250 406 q 228 407 238 406 q 218 411 218 408 l 218 422 q 200 426 200 422 l 199 439 l 204 439 q 182 446 182 439 l 181 456 l 185 456 q 163 463 163 456 l 163 472 q 149 474 151 472 q 146 478 146 475 l 144 507 q 126 511 126 507 l 125 540 l 129 540 q 107 546 107 540 l 107 592 l 113 592 q 90 599 90 592 l 90 749 q 107 753 90 753 l 107 799 q 129 804 107 801 l 125 804 q 126 812 125 808 q 126 819 126 815 l 126 833 q 144 838 126 838 l 144 851 q 145 858 144 854 q 146 867 146 863 q 165 872 146 869 l 163 872 l 163 883 q 185 889 163 886 l 181 889 l 181 894 q 181 897 181 896 q 182 900 182 897 q 199 904 182 904 q 199 907 199 906 q 200 911 200 908 l 200 917 q 222 924 200 921 l 218 924 l 218 933 q 226 938 218 936 q 246 940 235 940 q 256 942 250 942 q 265 944 261 943 l 254 944 q 255 947 254 946 q 256 950 256 947 q 265 954 256 953 q 288 956 275 956 l 290 956 q 291 959 290 957 q 292 963 292 961 l 292 968 q 301 972 292 971 q 324 972 311 972 l 346 974 q 347 978 346 976 q 347 985 347 981 q 357 989 347 988 q 379 990 367 990 l 561 990 q 585 989 576 990 q 594 985 594 988 l 596 974 l 588 974 q 600 972 592 972 l 617 972 q 639 972 629 972 q 649 968 649 971 l 650 956 l 654 956 q 676 954 667 956 q 686 950 686 953 l 688 940 l 690 940 q 713 938 703 940 q 724 933 724 936 l 724 924 l 719 924 q 742 917 742 921 l 742 904 q 760 900 760 904 l 760 889 l 756 889 q 778 883 778 886 l 778 872 l 774 872 q 790 869 783 871 q 797 867 797 868 l 799 838 q 815 833 815 838 l 817 804 l 811 804 q 826 801 819 803 q 833 799 833 800 l 833 736 l 829 736 q 851 731 851 733 l 851 579 q 829 574 851 574 l 833 574 l 833 511 q 826 508 833 510 q 811 507 819 507 l 817 507 q 816 494 817 500 q 815 482 815 489 l 815 463 q 808 458 815 460 q 792 456 801 456 l 799 456 q 798 447 799 451 q 797 440 797 443 l 797 426 q 791 424 797 425 q 778 422 785 422 l 778 394 q 771 390 778 392 q 754 388 764 388 l 761 388 q 760 381 761 385 q 760 374 760 376 l 760 360 q 753 357 760 358 q 739 356 747 356 l 743 356 q 742 343 742 350 q 724 338 742 338 l 724 311 q 717 306 724 308 q 700 304 710 304 l 704 304 l 704 293 q 698 289 704 290 q 683 288 692 288 l 688 288 q 687 280 688 283 q 686 272 686 276 l 686 258 q 664 253 686 253 l 668 253 l 668 243 q 646 236 668 236 l 650 236 q 649 229 650 233 q 649 221 649 225 l 649 207 q 642 204 649 206 q 628 203 636 203 l 631 203 l 631 192 q 613 186 631 186 l 613 174 q 590 167 613 167 l 594 167 l 594 158 q 572 151 594 151 l 576 151 q 576 143 576 147 q 575 136 575 139 l 575 122 q 558 118 575 118 l 558 107 q 551 102 558 104 q 535 100 544 100 l 539 100 l 539 90 q 521 85 539 85 l 521 72 q 514 68 521 69 q 497 67 507 67 l 503 67 l 503 56 q 486 51 503 51 q 485 39 485 47 q 478 35 485 36 q 465 33 472 33 l 465 22 q 443 15 465 15 l 447 15 l 447 6 q 438 1 447 3 q 415 0 428 0 l 249 0 q 228 1 238 0 q 218 6 218 3 l 218 38 m 340 518 l 358 511 l 375 511 l 374 517 l 351 517 q 347 517 349 517 q 343 518 344 518 l 340 518 m 600 811 q 605 810 603 811 q 610 810 607 810 l 619 810 l 601 815 l 585 815 l 600 811 m 285 569 l 303 563 l 319 563 l 319 568 l 297 568 q 292 569 294 568 q 288 569 290 569 l 285 569 m 618 794 q 622 794 619 794 q 626 793 624 793 l 638 793 l 619 799 l 603 799 l 618 794 m 267 619 l 285 614 l 301 614 l 300 618 l 278 618 q 273 619 275 618 q 269 619 271 619 l 267 619 m 639 551 l 604 551 l 603 546 l 619 546 l 639 551 m 676 619 l 672 619 l 656 618 l 642 618 l 640 614 l 657 614 l 676 619 m 301 749 l 285 749 l 267 742 l 269 742 l 286 743 l 300 743 l 301 749 m 356 533 l 321 533 l 340 529 l 357 529 l 356 533 m 585 529 l 601 529 l 619 533 l 586 533 l 585 529 m 319 781 l 303 781 l 285 775 l 318 775 l 319 781 m 640 725 l 675 725 l 657 731 l 640 731 l 640 725 m 431 483 l 511 483 q 512 488 511 486 q 513 493 513 489 q 522 498 513 496 q 546 500 531 500 l 547 500 l 547 511 q 554 514 547 513 q 571 517 561 515 l 567 517 q 567 521 567 519 q 568 524 568 522 l 568 529 q 585 533 568 533 l 585 539 q 585 542 585 540 q 586 546 586 543 q 592 549 586 547 q 607 551 599 550 l 603 551 l 603 561 q 625 568 603 565 l 621 568 l 621 590 q 622 601 621 596 q 622 613 622 607 q 640 618 622 618 l 640 725 l 644 725 q 622 731 622 725 l 621 775 l 625 775 q 603 781 603 775 l 603 794 q 586 799 586 794 l 585 811 l 588 811 q 568 817 568 811 l 567 828 q 547 833 547 828 l 547 844 l 546 844 q 522 846 531 844 q 513 850 513 847 l 511 860 q 472 858 490 858 q 431 856 454 857 q 430 853 431 854 q 429 850 429 851 q 419 846 429 847 q 397 844 410 844 l 378 843 l 392 843 l 392 833 q 382 829 392 831 q 360 828 372 828 l 357 828 q 356 822 357 825 q 356 817 356 819 q 332 811 356 811 l 336 811 l 336 781 q 330 776 336 778 q 315 775 324 775 l 319 775 q 319 769 319 772 q 318 763 318 765 l 318 750 q 296 743 318 743 l 301 743 l 301 618 q 315 617 313 618 q 318 613 318 615 l 319 568 l 313 568 q 329 565 322 567 q 336 561 336 564 l 336 551 q 356 546 356 549 l 356 533 q 374 529 374 533 l 374 517 l 369 517 q 392 511 392 514 l 392 500 l 397 500 q 431 486 426 500 l 431 483 z "},"!":{"ha":944,"x_min":315,"x_max":579,"o":"m 558 172 q 573 171 567 172 q 579 167 579 169 l 579 6 q 573 1 579 3 q 558 0 567 0 l 335 0 q 322 1 328 0 q 315 6 315 3 l 315 167 q 322 171 315 169 q 335 172 328 172 l 558 172 m 333 825 q 315 831 315 825 l 315 1029 q 322 1033 315 1032 q 335 1035 328 1035 l 558 1035 q 573 1033 567 1035 q 579 1029 579 1032 l 579 850 q 573 846 579 847 q 560 844 567 844 q 559 640 560 742 q 558 438 558 539 q 552 433 558 435 q 539 432 546 432 q 538 407 539 419 q 538 383 538 394 q 518 378 538 378 l 356 378 q 341 379 347 378 q 335 383 335 381 l 333 825 z "},"\"":{"ha":944,"x_min":208,"x_max":743,"o":"m 232 549 q 242 556 231 553 q 237 570 239 563 q 232 585 235 578 q 240 590 229 588 q 235 606 238 597 q 231 621 233 614 q 240 626 228 626 q 234 642 238 633 q 228 657 231 650 q 239 663 228 660 q 228 693 232 679 q 238 699 226 696 q 228 722 232 710 q 219 747 225 735 q 228 753 217 750 q 223 767 225 760 q 218 782 221 775 q 228 789 215 786 l 215 819 q 224 825 215 822 q 219 840 221 832 q 214 854 217 847 q 222 861 214 858 q 217 876 219 868 q 213 890 215 883 q 222 896 213 894 q 217 911 219 903 q 211 926 214 919 q 219 932 208 932 q 215 947 217 939 q 210 963 213 956 q 218 968 210 965 q 217 974 217 971 q 215 981 217 978 q 228 986 215 986 l 414 986 q 426 985 421 986 q 431 981 431 983 l 444 946 q 435 940 446 940 q 438 933 438 936 q 440 928 438 931 q 428 922 440 922 q 432 910 429 914 q 431 905 435 907 q 424 903 428 903 q 428 888 426 896 q 433 874 431 881 q 426 868 436 868 q 428 861 428 864 q 429 856 428 858 q 421 850 431 850 q 426 835 424 843 q 431 819 428 826 q 421 814 433 814 q 425 801 421 807 q 423 797 426 799 q 415 796 419 796 l 419 783 q 419 779 422 781 q 411 778 415 778 q 416 763 414 771 q 421 749 418 756 q 413 742 424 742 q 415 735 415 739 q 417 729 415 732 q 407 724 419 724 q 408 717 408 719 q 411 711 408 714 q 409 707 413 708 q 401 706 406 706 l 411 676 q 403 669 415 669 q 406 657 403 665 q 397 651 408 651 l 408 622 q 399 617 410 617 l 403 604 q 394 597 406 597 q 397 586 394 592 q 397 582 400 583 q 389 581 393 581 q 394 565 392 574 q 399 550 396 557 q 398 546 401 547 q 390 544 394 544 q 394 532 392 536 q 381 525 397 525 l 257 525 q 239 532 242 525 l 232 549 m 531 549 q 540 556 528 553 q 535 570 538 563 q 529 585 532 578 q 539 590 526 588 q 533 606 536 597 q 528 621 531 614 q 538 626 528 626 q 526 657 531 643 q 536 663 526 661 q 525 693 529 679 q 535 699 524 696 q 526 722 529 710 q 517 747 522 735 q 526 753 514 750 q 521 767 524 760 q 515 782 518 775 q 525 789 515 788 l 513 819 q 521 825 513 822 q 516 840 518 832 q 511 854 514 847 q 519 861 511 858 q 515 876 517 868 q 510 890 513 883 q 519 896 510 893 q 514 911 517 903 q 508 926 511 919 q 517 932 506 932 q 512 947 514 939 q 507 963 510 956 q 515 968 507 965 q 513 981 515 976 q 528 986 513 986 l 711 986 q 723 985 718 986 q 728 981 728 983 l 742 946 q 732 940 743 940 q 733 933 733 936 q 736 928 733 931 q 726 922 738 922 q 728 915 728 918 q 729 910 728 913 q 722 903 733 903 q 727 888 725 896 q 732 874 729 881 q 722 868 735 868 q 728 856 726 860 q 717 850 728 850 q 722 835 719 843 q 728 819 725 826 q 718 814 728 814 q 722 801 718 807 q 720 797 724 799 q 714 796 717 796 l 718 783 q 708 778 722 778 q 719 749 714 763 q 717 744 721 746 q 710 742 714 742 l 714 729 q 704 724 717 724 q 706 717 706 719 q 708 711 706 714 q 706 707 710 708 q 699 706 703 706 q 703 691 701 699 q 708 676 706 683 q 701 669 713 669 q 703 663 703 667 q 704 657 703 660 q 694 651 707 651 l 706 622 q 696 617 707 617 l 701 604 q 692 597 704 597 q 694 586 692 592 q 694 582 697 583 q 686 581 690 581 q 691 565 689 574 q 696 550 693 557 q 695 546 699 547 q 688 544 692 544 q 690 532 690 533 q 678 525 693 525 l 554 525 q 538 532 540 525 l 531 549 z "},"#":{"ha":944,"x_min":57,"x_max":867,"o":"m 326 24 q 342 29 326 29 q 342 52 342 40 q 343 76 343 64 q 360 83 343 83 q 360 97 360 90 q 361 113 361 104 q 378 118 361 118 l 378 167 q 383 171 378 169 q 394 172 388 172 l 394 203 q 411 208 394 208 q 412 232 411 219 q 413 257 413 244 q 429 263 413 263 l 429 269 l 300 269 l 300 258 q 295 253 300 256 q 285 251 290 251 q 284 236 285 244 q 283 221 283 228 q 278 217 283 218 q 267 215 274 215 q 266 192 267 204 q 265 168 265 179 q 250 161 265 161 q 249 146 250 154 q 249 131 249 138 q 244 126 249 128 q 232 125 239 125 q 231 99 232 111 q 231 76 231 88 q 226 72 231 74 q 214 71 221 71 l 214 42 q 209 38 214 39 q 197 36 204 36 l 197 6 q 179 0 197 0 l 72 0 q 57 6 57 0 l 57 24 q 72 29 57 29 l 72 76 q 77 81 72 79 q 89 83 82 83 q 90 97 89 90 q 90 113 90 104 q 107 118 90 118 q 108 143 107 131 q 108 167 108 156 q 124 172 108 172 q 124 188 124 179 q 125 203 125 196 q 142 208 125 208 q 142 232 142 219 q 143 257 143 244 q 158 263 143 263 l 158 269 l 78 269 q 66 271 71 269 q 61 275 61 272 l 61 400 q 66 404 61 403 q 78 406 71 406 l 211 406 q 212 421 211 414 q 213 436 213 428 q 229 443 213 443 l 229 472 q 234 476 229 475 q 246 478 239 478 l 246 525 q 263 532 246 532 q 263 547 263 539 q 264 563 264 556 q 281 568 264 568 l 281 575 l 189 575 q 172 581 172 575 l 172 706 q 189 711 172 711 l 332 711 q 333 726 332 718 q 333 742 333 735 q 350 749 333 749 q 351 772 350 760 q 351 796 351 783 q 367 801 351 801 q 367 816 367 808 q 368 831 368 824 q 385 838 368 838 q 385 861 385 849 q 386 886 386 874 q 403 892 386 892 l 403 922 q 408 926 403 925 q 418 928 413 928 q 419 951 418 939 q 419 975 419 964 q 436 982 419 982 q 437 997 436 989 q 438 1011 438 1004 q 454 1017 438 1017 q 455 1023 454 1019 q 456 1029 456 1026 q 474 1035 456 1035 l 578 1035 q 596 1029 596 1035 l 596 1013 q 591 1008 596 1010 q 579 1007 586 1007 q 578 992 579 1000 q 578 976 578 983 q 573 972 578 974 q 561 971 568 971 q 560 946 561 958 q 560 922 560 933 q 544 917 560 917 l 544 886 q 540 882 544 883 q 528 881 535 881 q 527 855 528 867 q 526 831 526 843 q 522 826 526 828 q 510 825 517 825 q 509 811 510 818 q 508 797 508 804 q 503 792 508 794 q 493 790 499 790 q 492 776 493 783 q 492 761 492 768 q 487 757 492 758 q 475 756 482 756 q 474 733 475 744 q 474 711 474 722 l 603 711 q 603 726 603 718 q 604 742 604 735 q 621 749 604 749 q 622 772 621 760 q 622 796 622 783 q 638 801 622 801 l 638 831 q 642 835 638 833 q 654 838 647 838 q 655 861 654 849 q 656 886 656 874 q 672 892 656 892 q 673 906 672 899 q 674 922 674 914 q 689 928 674 928 q 690 951 689 939 q 690 975 690 964 q 707 982 690 982 q 708 997 707 989 q 708 1011 708 1004 q 725 1017 708 1017 l 725 1029 q 730 1033 725 1032 q 742 1035 735 1035 l 850 1035 q 867 1029 867 1035 l 867 1013 q 851 1007 867 1007 q 851 992 851 1000 q 850 976 850 983 q 845 972 850 974 q 833 971 840 971 q 833 946 833 958 q 832 922 832 933 q 817 917 832 917 q 816 901 817 908 q 815 886 815 893 q 810 882 815 883 q 799 881 806 881 q 798 855 799 867 q 797 831 797 843 q 792 826 797 828 q 781 825 788 825 l 781 797 q 776 792 781 794 q 765 790 771 790 q 765 776 765 783 q 764 761 764 768 q 759 757 764 758 q 747 756 754 756 q 747 733 747 744 q 746 711 746 722 l 835 711 q 851 706 851 711 l 851 581 q 835 575 851 575 l 678 575 q 677 551 678 564 q 676 526 676 538 q 672 522 676 524 q 660 521 667 521 q 659 506 660 514 q 658 492 658 499 q 653 487 658 489 q 643 485 649 485 q 642 461 643 474 q 642 438 642 449 q 637 433 642 435 q 625 432 632 432 q 624 419 625 425 q 624 406 624 413 l 719 406 q 738 400 738 406 l 738 275 q 719 269 738 269 l 572 269 l 572 258 q 567 253 572 256 q 556 251 563 251 q 555 236 556 244 q 554 221 554 228 q 549 217 554 218 q 538 215 544 215 q 537 192 538 204 q 536 168 536 179 q 521 161 536 161 l 521 131 q 516 126 521 128 q 504 125 511 125 q 503 99 504 111 q 503 76 503 88 q 498 72 503 74 q 486 71 493 71 q 485 56 486 64 q 485 42 485 49 q 480 38 485 39 q 469 36 475 36 q 469 21 469 29 q 468 6 468 13 q 450 0 468 0 l 343 0 q 326 6 326 0 l 326 24 m 354 436 l 336 431 l 353 432 l 354 432 l 354 436 m 515 443 l 500 443 l 499 443 l 499 438 l 515 443 m 388 525 l 371 519 l 386 521 l 388 521 l 388 525 m 406 581 l 388 575 l 404 575 l 406 575 l 406 581 m 371 490 l 354 483 l 371 485 l 371 490 m 551 533 l 535 532 l 533 532 l 533 526 l 551 533 m 533 479 l 517 478 l 515 478 l 515 474 l 533 479 m 567 568 l 551 568 l 551 563 l 567 568 m 371 438 q 366 433 371 435 q 354 432 361 432 l 353 406 l 481 406 q 481 421 481 414 q 482 436 482 428 q 499 443 482 443 q 499 458 499 450 q 500 472 500 465 q 515 478 500 478 q 516 502 515 490 q 517 525 517 514 q 533 532 517 532 q 534 547 533 539 q 535 563 535 556 q 551 568 535 568 l 551 575 l 406 575 q 405 551 406 564 q 404 526 404 538 q 399 522 404 524 q 388 521 394 521 q 387 506 388 514 q 386 492 386 499 q 371 485 386 485 l 371 438 z "},"$":{"ha":944,"x_min":39,"x_max":856,"o":"m 243 71 q 228 72 235 71 q 222 76 222 74 l 221 90 l 201 90 q 182 96 182 90 l 181 107 l 163 107 q 148 109 154 107 q 142 114 142 111 l 140 125 q 121 131 121 125 l 119 144 q 100 150 100 144 l 99 161 q 81 168 81 161 l 79 178 q 65 180 71 178 q 58 185 58 182 l 57 215 q 39 221 39 215 l 39 292 q 45 297 39 294 q 58 299 51 299 l 222 299 q 237 297 231 299 q 243 292 243 294 l 244 263 q 261 257 261 260 l 261 244 q 276 243 269 244 q 282 239 282 242 l 283 226 l 303 226 q 317 224 311 226 q 324 219 324 222 l 325 210 l 364 210 l 364 467 q 344 474 344 467 l 343 483 q 324 484 332 483 q 304 485 315 485 q 290 487 296 485 q 283 492 283 489 l 282 503 l 243 503 q 228 504 235 503 q 222 508 222 506 l 221 521 l 201 521 q 182 526 182 521 l 181 539 l 163 539 q 148 540 154 539 q 142 544 142 542 l 140 556 q 121 563 121 556 l 119 575 q 100 581 100 575 l 99 593 q 81 599 81 593 l 79 629 q 65 631 71 629 q 58 636 58 633 l 57 683 q 39 689 39 683 l 39 778 q 57 783 39 783 q 58 808 57 796 q 58 831 58 819 q 65 835 58 833 q 79 838 71 838 q 80 843 79 840 q 81 850 81 846 q 99 856 81 853 q 99 862 99 858 q 100 868 100 865 q 119 874 100 874 q 120 880 119 876 q 121 886 121 883 q 140 892 121 892 q 141 897 140 894 q 142 903 142 900 q 148 908 142 906 q 163 910 154 910 l 181 910 q 181 916 181 913 q 182 922 182 919 q 201 928 182 928 l 242 929 q 242 935 242 932 q 243 940 243 938 q 249 944 243 943 q 263 946 256 946 l 343 946 q 344 951 343 949 q 344 957 344 954 q 364 963 344 963 q 365 988 364 975 q 365 1011 365 1000 q 372 1015 365 1014 q 386 1017 378 1017 l 507 1017 q 522 1015 515 1017 q 528 1011 528 1014 l 529 946 l 608 946 q 623 944 617 946 q 629 940 629 943 l 631 929 q 651 928 642 929 q 671 928 660 928 q 684 926 678 928 q 690 922 690 925 l 692 910 l 713 910 q 727 908 721 910 q 733 903 733 906 l 733 892 q 751 886 751 892 l 751 874 q 766 872 760 874 q 772 868 772 871 l 774 856 q 788 854 782 856 q 794 850 794 853 l 796 819 q 814 814 814 819 l 814 724 q 808 719 814 721 q 793 718 801 718 l 631 718 q 616 719 622 718 q 610 724 610 721 l 608 771 q 590 778 590 771 l 589 790 q 571 797 571 790 l 569 808 l 529 808 l 529 586 q 542 585 536 586 q 549 581 549 583 l 550 568 l 590 568 q 610 563 610 568 l 611 550 l 629 550 q 644 549 638 550 q 650 544 650 547 l 651 532 l 671 532 q 684 530 678 532 q 690 525 690 528 l 692 514 l 713 514 q 727 513 721 514 q 733 508 733 511 l 733 496 q 751 490 751 496 l 753 478 l 774 478 q 788 476 782 478 q 794 472 794 475 l 796 443 q 814 436 814 440 l 814 424 q 827 422 821 424 q 833 418 833 421 l 835 371 q 849 369 843 371 q 856 364 856 367 l 856 275 q 849 271 856 272 q 835 269 843 269 q 834 246 835 258 q 833 221 833 233 q 828 217 833 218 q 815 215 822 215 q 815 200 815 208 q 814 185 814 192 q 794 178 814 178 l 794 168 q 788 163 794 165 q 774 161 782 161 q 773 156 774 158 q 772 150 772 153 q 766 146 772 147 q 753 144 760 144 q 751 131 751 139 q 732 125 751 125 l 713 125 q 712 119 713 122 q 711 114 711 117 q 705 109 711 111 q 690 107 699 107 l 674 107 q 673 101 674 104 q 672 96 672 97 q 666 92 672 93 q 651 90 660 90 l 611 89 q 610 83 611 86 q 610 76 610 81 q 590 71 610 71 l 529 71 q 528 38 529 54 q 528 6 528 21 q 522 1 528 3 q 507 0 515 0 l 386 0 q 372 1 378 0 q 365 6 365 3 l 364 71 l 243 71 m 610 378 q 619 377 614 378 q 629 376 625 376 l 608 382 l 608 378 l 610 378 m 653 324 q 662 323 657 324 q 671 322 667 322 l 650 329 l 650 324 l 653 324 m 592 394 l 608 394 l 589 400 l 589 394 l 592 394 m 671 299 l 653 299 l 650 299 l 650 292 l 671 299 m 608 239 l 629 244 l 610 244 l 608 244 l 608 239 m 529 431 l 508 436 l 510 419 q 529 413 510 413 l 529 431 m 529 413 l 529 210 l 547 210 q 548 215 547 213 q 549 219 549 218 q 555 224 549 222 q 569 226 561 226 l 589 226 q 590 233 589 229 q 590 239 590 236 q 608 244 590 244 q 609 250 608 247 q 610 257 610 253 q 616 261 610 260 q 631 263 622 263 q 631 277 631 269 q 632 292 632 285 q 650 299 632 296 l 650 324 q 632 331 632 324 l 631 360 q 616 361 622 360 q 610 365 610 363 l 608 378 q 590 383 590 378 l 589 394 q 571 400 571 394 l 569 413 l 531 413 l 529 413 m 244 760 l 224 754 l 242 756 l 244 756 l 244 760 m 244 689 l 244 694 l 242 694 q 233 695 238 694 q 224 696 228 696 l 244 689 m 243 676 l 263 669 l 261 676 l 243 676 m 243 771 l 261 771 q 262 774 261 772 q 263 778 263 775 l 243 771 m 344 622 l 364 622 l 364 808 l 306 808 q 305 803 306 806 q 304 797 304 800 q 298 792 304 794 q 283 790 292 790 q 283 784 283 788 q 282 778 282 781 q 276 773 282 775 q 261 771 269 771 l 261 761 q 244 756 261 756 l 244 694 q 261 688 261 692 l 261 676 q 276 674 269 676 q 282 669 282 672 l 283 657 q 298 656 292 657 q 304 651 304 654 l 306 640 l 324 640 q 343 635 340 640 l 344 622 z "},"&":{"ha":944,"x_min":39,"x_max":854,"o":"m 243 0 q 228 1 235 0 q 222 6 222 3 l 221 17 q 201 17 210 17 q 182 18 192 18 q 167 20 174 18 q 161 25 161 22 l 160 36 q 140 42 140 36 l 139 54 q 119 60 119 54 l 119 72 q 100 78 100 72 l 99 90 q 79 96 79 90 l 78 126 q 63 128 69 126 q 57 132 57 129 l 57 161 q 39 168 39 161 l 39 364 q 57 371 39 371 l 57 400 q 63 404 57 403 q 78 406 69 406 q 78 421 78 413 q 79 436 79 429 q 99 443 79 443 q 99 449 99 446 q 100 454 100 451 q 119 460 100 460 l 119 472 q 139 478 119 478 q 140 485 139 482 q 140 490 140 488 q 160 496 140 496 q 160 502 160 499 q 161 508 161 506 q 181 514 161 514 l 181 525 q 187 530 181 528 q 200 532 193 532 l 200 539 q 187 540 193 539 q 181 544 181 542 l 181 575 q 161 581 161 575 l 160 593 q 140 599 140 593 l 139 629 q 119 636 119 629 l 119 665 q 100 671 100 665 l 99 701 q 79 707 79 701 l 79 886 q 99 892 79 892 q 99 906 99 899 q 100 922 100 914 q 119 928 100 928 l 119 940 q 139 946 119 946 q 140 951 139 949 q 140 957 140 954 q 160 963 140 963 q 160 969 160 965 q 161 975 161 972 q 167 980 161 978 q 182 982 174 982 l 200 982 q 201 988 200 985 q 201 993 201 990 q 208 998 201 996 q 222 1000 214 1000 l 242 1000 l 242 1011 q 248 1015 242 1014 q 261 1017 254 1017 l 303 1018 l 303 1029 q 309 1033 303 1032 q 324 1035 315 1035 l 507 1035 q 522 1033 515 1035 q 528 1029 528 1032 l 528 1018 q 548 1017 539 1018 q 568 1017 557 1017 q 583 1015 576 1017 q 589 1011 589 1014 l 589 1000 l 608 1000 q 623 998 617 1000 q 629 993 629 996 l 629 982 q 644 980 638 982 q 650 975 650 978 l 650 963 q 665 961 658 963 q 671 957 671 960 l 671 946 q 684 944 678 946 q 690 940 690 943 l 690 928 q 705 926 699 928 q 711 922 711 925 l 711 892 q 726 890 719 892 q 732 886 732 889 l 732 743 q 726 739 732 740 q 711 738 719 738 l 711 707 q 705 703 711 704 q 692 701 699 701 q 690 689 690 697 q 685 685 690 686 q 672 683 679 683 q 672 668 672 676 q 671 653 671 660 q 665 649 671 650 q 650 647 658 647 l 650 636 q 644 631 650 633 q 629 629 638 629 l 610 629 q 609 623 610 626 q 608 617 608 619 q 589 611 608 611 l 589 599 q 583 594 589 596 q 569 593 576 593 q 568 581 568 588 q 562 576 568 578 q 549 575 556 575 q 547 564 547 571 q 541 559 547 561 q 528 557 535 557 l 508 557 q 508 551 508 554 q 507 544 507 547 q 501 540 507 542 q 488 539 494 539 q 486 526 486 535 q 480 522 486 524 q 467 521 474 521 l 467 510 q 460 506 467 507 q 447 504 454 504 l 447 496 q 460 494 454 496 q 467 490 467 493 l 467 478 q 480 476 474 478 q 486 472 486 475 l 488 443 q 501 441 494 443 q 507 436 507 439 l 507 424 q 522 422 515 424 q 528 418 528 421 l 528 406 q 541 404 535 406 q 547 400 547 403 l 549 371 q 562 369 556 371 q 568 364 568 367 l 568 351 q 583 350 576 351 q 589 346 589 349 l 589 317 q 608 311 608 317 l 608 299 q 623 297 617 299 q 629 292 629 294 l 629 281 q 630 295 629 288 q 631 311 631 303 q 650 317 631 317 q 651 385 650 350 q 651 454 651 419 q 658 458 651 457 q 672 460 664 460 l 833 460 q 848 458 842 460 q 854 454 854 457 l 854 331 q 848 326 854 328 q 833 324 842 324 l 833 258 q 828 253 833 256 q 815 251 822 251 q 815 228 815 240 q 814 204 814 215 q 808 200 814 201 q 794 199 801 199 q 794 183 794 192 q 793 168 793 175 q 787 163 793 165 q 772 161 781 161 l 772 150 q 766 146 772 147 q 753 144 760 144 l 753 138 q 766 135 760 138 q 772 131 772 133 l 772 100 q 787 99 781 100 q 793 94 793 97 l 793 83 q 808 81 801 83 q 814 76 814 79 l 814 65 q 827 63 821 65 q 833 58 833 61 l 833 29 q 848 28 842 29 q 854 24 854 26 l 854 6 q 848 1 854 3 q 833 0 842 0 l 629 0 q 615 1 621 0 q 608 6 608 3 l 608 17 l 589 17 l 589 6 q 583 1 589 3 q 568 0 576 0 l 508 -1 q 508 -7 508 -4 q 507 -12 507 -10 q 501 -17 507 -15 q 486 -18 494 -18 l 324 -18 q 309 -17 315 -18 q 303 -12 303 -15 l 303 -1 l 243 0 m 263 186 l 261 190 q 253 191 258 190 q 243 192 247 192 l 263 186 m 468 199 q 476 198 471 199 q 486 197 482 197 l 467 203 l 467 199 l 468 199 m 488 179 q 497 178 492 179 q 507 178 503 178 l 486 185 l 486 179 l 488 179 m 426 251 q 436 251 431 251 q 446 250 442 250 l 425 257 l 425 251 l 426 251 m 243 204 l 243 208 l 242 208 q 232 209 238 208 q 222 210 226 210 l 243 204 m 344 360 q 354 359 349 360 q 364 358 360 358 l 343 364 l 343 360 l 344 360 m 406 288 q 415 287 410 288 q 425 286 421 286 l 404 292 l 404 288 l 406 288 m 365 324 q 375 323 369 324 q 385 322 381 322 l 364 329 l 364 324 l 365 324 m 263 364 l 243 358 l 261 360 l 263 360 l 263 364 m 243 346 l 222 340 l 242 342 l 243 342 l 243 346 m 324 413 l 303 418 l 303 403 q 303 408 303 406 q 304 413 304 410 l 324 413 m 365 119 l 467 119 q 467 125 467 122 q 468 131 468 128 q 488 138 468 138 l 507 138 l 507 161 q 492 163 499 161 q 486 168 486 165 l 486 179 q 468 186 468 179 l 467 199 q 447 204 447 199 l 446 233 q 431 235 438 233 q 425 239 425 236 l 425 251 q 406 258 406 251 l 404 288 q 386 293 386 288 l 385 306 q 370 307 376 306 q 364 311 364 308 l 364 324 q 344 331 344 324 l 343 360 q 325 365 325 360 l 324 378 q 309 379 315 378 q 303 383 303 381 l 303 400 q 282 396 300 396 l 282 365 q 276 361 282 363 q 263 360 269 360 q 261 347 261 354 q 243 342 261 342 l 243 208 q 261 203 261 208 l 261 190 q 276 189 269 190 q 282 185 282 188 l 282 154 l 303 154 q 317 153 311 154 q 324 149 324 151 l 325 138 l 343 138 q 364 131 361 138 l 365 119 m 304 671 l 304 676 l 303 676 q 293 677 299 676 q 283 678 288 678 l 304 671 m 325 636 l 325 640 l 324 640 q 314 641 319 640 q 304 642 308 642 l 325 636 m 529 826 q 538 826 533 826 q 547 825 543 825 l 528 831 l 528 826 l 529 826 m 507 731 l 488 729 l 486 729 l 486 725 l 507 731 m 446 678 l 426 676 l 425 676 l 425 671 l 446 678 m 467 707 l 486 713 l 468 711 l 467 711 l 467 707 m 547 767 l 529 765 l 528 765 l 528 761 l 547 767 m 404 653 l 425 658 l 406 657 l 404 657 l 404 653 m 343 626 q 344 631 343 629 q 344 635 344 632 q 351 639 344 638 q 365 640 357 640 l 385 640 q 385 646 385 643 q 386 651 386 649 q 404 657 386 657 q 405 663 404 660 q 406 669 406 667 q 425 676 406 676 l 425 688 q 431 692 425 690 q 446 694 438 694 q 447 700 446 697 q 447 706 447 703 q 467 711 447 711 q 467 717 467 714 q 468 724 468 721 q 486 729 468 729 l 486 742 q 492 747 486 744 q 507 749 499 749 q 508 754 507 751 q 508 760 508 757 q 528 765 508 765 l 528 826 q 508 832 508 826 l 507 863 q 492 865 499 863 q 486 869 486 867 l 486 881 l 446 881 q 431 882 438 881 q 425 886 425 883 l 425 897 l 386 897 q 385 892 386 894 q 385 886 385 889 q 378 882 385 883 q 364 881 372 881 l 343 881 l 343 869 q 337 865 343 867 q 324 863 331 863 l 304 863 q 303 847 304 856 q 303 832 303 839 q 297 828 303 829 q 282 826 290 826 l 282 711 q 297 710 290 711 q 303 706 303 708 l 304 676 q 317 674 311 676 q 324 669 324 672 l 325 640 q 338 639 332 640 q 343 635 343 638 l 343 626 z "},"'":{"ha":944,"x_min":372,"x_max":610,"o":"m 397 549 q 407 556 394 553 q 401 570 404 563 q 396 585 399 578 q 406 590 393 588 q 400 606 403 597 q 394 621 397 614 q 404 626 394 626 q 393 657 397 643 q 403 663 393 661 q 392 693 396 679 q 401 699 390 696 q 392 722 396 710 q 383 747 389 735 q 393 753 381 750 q 388 767 390 760 q 382 782 385 775 q 392 789 382 788 l 379 819 q 388 825 379 822 q 383 840 385 832 q 378 854 381 847 q 386 861 378 858 q 381 876 383 868 q 376 890 379 883 q 386 896 376 893 q 381 911 383 903 q 375 926 378 919 q 383 932 372 932 q 378 947 381 939 q 374 963 376 956 q 382 968 374 965 q 379 981 382 976 q 394 986 379 986 l 578 986 q 590 985 585 986 q 594 981 594 983 l 608 946 q 599 940 610 940 q 600 933 600 936 q 603 928 600 931 q 593 922 604 922 q 594 915 594 918 q 596 910 594 913 q 589 903 600 903 q 594 888 592 896 q 599 874 596 881 q 589 868 601 868 q 594 856 593 860 q 583 850 594 850 q 589 835 586 843 q 594 819 592 826 q 585 814 594 814 q 589 801 585 807 q 587 797 590 799 q 581 796 583 796 l 585 783 q 575 778 589 778 q 586 749 581 763 q 584 744 588 746 q 576 742 581 742 l 581 729 q 571 724 583 724 q 572 717 572 719 q 575 711 572 714 q 573 707 576 708 q 565 706 569 706 q 570 691 568 699 q 575 676 572 683 q 568 669 579 669 q 569 663 569 667 q 571 657 569 660 q 561 651 574 651 l 572 622 q 563 617 574 617 l 568 604 q 558 597 571 597 q 561 586 558 592 q 560 582 564 583 q 553 581 557 581 q 558 565 556 574 q 563 550 560 557 q 562 546 565 547 q 554 544 558 544 q 557 532 557 533 q 544 525 560 525 l 421 525 q 404 532 407 525 l 397 549 l 397 549 z "},"(":{"ha":944,"x_min":229,"x_max":663,"o":"m 490 17 q 474 24 474 17 l 472 36 q 460 38 465 36 q 456 42 456 39 l 454 54 q 438 60 438 54 l 436 71 q 421 76 421 71 l 419 90 q 403 96 403 90 l 403 107 q 386 114 386 107 l 385 125 q 369 131 369 125 l 368 144 q 350 150 350 144 l 349 178 q 333 185 333 178 l 332 199 q 317 204 317 199 l 315 232 q 303 234 308 232 q 299 239 299 236 l 297 269 q 282 275 282 269 l 281 306 q 265 311 265 306 l 264 360 q 246 365 246 360 l 244 449 q 229 454 229 449 l 229 617 q 244 622 229 622 q 245 654 244 638 q 246 688 246 671 q 264 694 246 694 q 265 718 264 706 q 265 742 265 731 q 281 749 265 746 q 281 763 281 756 q 282 778 282 771 q 297 783 282 783 q 298 798 297 790 q 299 814 299 806 q 303 818 299 817 q 315 819 308 819 q 316 835 315 826 q 317 850 317 843 q 332 856 317 853 q 333 871 332 863 q 333 886 333 879 q 349 892 333 892 q 349 897 349 894 q 350 903 350 900 q 368 910 350 910 q 369 916 368 913 q 369 922 369 919 q 385 928 369 925 q 385 942 385 935 q 386 957 386 950 q 403 963 386 963 l 403 975 q 419 982 403 982 q 420 988 419 985 q 421 993 421 990 q 439 1000 421 1000 l 454 1000 q 455 1006 454 1003 q 456 1011 456 1008 q 460 1015 456 1014 q 472 1017 465 1017 q 473 1024 472 1021 q 474 1029 474 1026 q 489 1035 474 1032 l 489 1047 q 507 1054 489 1054 l 646 1054 q 658 1052 653 1054 q 663 1047 663 1050 l 663 958 q 658 954 663 956 q 646 953 653 953 q 645 947 646 950 q 644 940 644 943 q 628 933 644 933 l 613 933 q 612 928 613 931 q 611 922 611 925 q 593 917 611 917 l 576 915 q 576 910 576 913 q 575 904 575 907 q 560 899 575 899 l 560 886 q 542 881 560 881 q 541 875 542 878 q 540 869 540 872 q 535 865 540 867 q 524 863 531 863 l 524 850 q 508 844 524 844 q 508 830 508 838 q 507 815 507 822 q 489 810 507 810 l 489 797 q 484 792 489 794 q 472 790 479 790 q 472 776 472 783 q 471 761 471 768 q 457 756 471 756 q 456 739 457 747 q 456 724 456 731 q 438 718 456 718 q 437 703 438 711 q 436 689 436 696 q 431 685 436 686 q 419 683 426 683 q 419 649 419 665 q 418 617 418 632 q 404 610 418 610 l 404 443 q 418 436 418 440 l 419 389 q 431 387 426 389 q 436 382 436 385 l 438 335 q 456 329 456 335 l 457 299 q 471 292 471 296 l 472 263 q 484 261 479 263 q 489 257 489 260 l 489 244 q 507 239 507 244 l 508 208 q 524 203 524 208 l 524 190 q 535 189 531 190 q 540 185 540 188 l 542 172 q 560 167 560 172 l 560 154 q 575 149 575 154 l 576 138 l 593 138 q 611 131 611 138 l 613 118 l 628 118 q 644 113 644 118 l 646 100 q 658 99 653 100 q 663 94 663 97 l 663 6 q 658 1 663 3 q 646 0 653 0 l 524 0 q 512 1 517 0 q 507 6 507 3 l 506 17 l 490 17 z "},")":{"ha":944,"x_min":231,"x_max":663,"o":"m 246 100 q 247 106 246 103 q 247 113 247 110 q 265 118 247 118 l 282 118 q 283 125 282 122 q 283 131 283 128 q 299 138 283 138 q 299 143 299 140 q 300 149 300 146 q 305 153 300 151 q 317 154 310 154 l 333 154 q 334 160 333 157 q 335 167 335 164 q 350 172 335 172 q 351 178 350 175 q 351 185 351 182 q 368 190 351 190 q 369 197 368 193 q 369 203 369 200 q 386 208 369 208 q 387 224 386 215 q 388 239 388 232 q 403 244 388 244 q 403 250 403 247 q 404 257 404 253 q 419 263 404 263 q 420 277 419 269 q 421 292 421 285 q 438 299 421 299 q 438 313 438 306 q 439 329 439 321 q 456 335 439 335 q 456 358 456 346 q 457 382 457 371 q 472 389 457 389 q 473 413 472 400 q 474 436 474 425 q 490 443 474 443 l 490 610 q 474 617 474 610 l 472 664 q 457 669 457 664 l 456 718 q 439 724 439 718 l 438 756 q 421 761 421 756 l 419 790 q 404 797 404 790 l 403 810 q 388 815 388 810 l 386 844 q 369 850 369 844 l 368 863 q 351 869 351 863 l 350 881 q 335 886 335 881 l 333 899 q 322 900 326 899 q 317 904 317 901 l 317 917 l 300 917 q 283 922 283 917 l 282 933 l 265 933 q 247 940 247 933 l 246 953 q 231 958 231 953 l 231 1047 q 247 1054 231 1054 l 386 1054 q 403 1047 403 1054 l 403 1035 q 415 1033 410 1035 q 419 1029 419 1032 l 421 1017 l 438 1017 q 456 1011 456 1017 l 456 1000 q 472 993 472 1000 l 472 982 q 490 975 490 982 l 490 963 q 502 961 497 963 q 507 957 507 960 l 508 928 q 524 922 524 928 l 524 910 q 542 903 542 910 l 542 892 q 560 886 560 892 l 561 856 q 572 854 567 856 q 576 850 576 853 l 578 819 q 588 818 583 819 q 593 814 593 817 l 594 783 q 606 782 601 783 q 611 778 611 781 l 613 749 q 624 747 619 749 q 629 742 629 744 l 631 694 q 646 688 646 694 l 647 622 q 663 617 663 622 l 663 454 q 647 449 663 449 q 647 406 647 428 q 646 365 646 385 q 631 360 646 360 q 630 335 631 347 q 629 311 629 322 q 624 307 629 308 q 613 306 619 306 q 612 290 613 299 q 611 275 611 282 q 606 271 611 272 q 594 269 601 269 q 594 254 594 263 q 593 239 593 246 q 588 234 593 236 q 578 232 583 232 q 577 218 578 225 q 576 204 576 211 q 572 200 576 201 q 561 199 567 199 q 560 185 560 193 q 555 180 560 182 q 543 178 550 178 q 542 164 543 171 q 542 150 542 157 q 537 146 542 147 q 525 144 532 144 q 524 131 524 139 q 507 125 524 125 l 507 114 q 502 109 507 111 q 490 107 497 107 l 490 96 q 485 92 490 93 q 474 90 481 90 q 472 76 472 86 q 456 71 472 71 l 456 60 q 451 56 456 57 q 439 54 446 54 q 438 42 438 49 q 433 38 438 39 q 421 36 428 36 q 419 24 419 31 q 415 19 419 21 q 403 17 410 17 l 388 17 q 387 11 388 14 q 386 6 386 8 q 368 0 386 0 l 247 0 q 231 6 231 0 l 231 94 q 246 100 231 100 z "},"*":{"ha":944,"x_min":39,"x_max":856,"o":"m 796 560 q 810 558 804 560 q 817 554 817 557 l 817 429 q 810 424 817 426 q 796 422 804 422 l 628 422 q 629 419 628 421 l 631 390 q 644 389 638 390 q 650 385 650 388 l 651 372 q 666 371 660 372 q 672 367 672 369 l 672 354 q 690 347 690 354 l 692 318 q 705 317 699 318 q 711 313 711 315 l 713 300 q 727 299 721 300 q 733 294 733 297 l 733 282 q 751 276 751 282 l 753 246 q 766 244 760 246 q 772 240 772 243 l 774 228 q 788 226 782 228 q 794 222 794 225 l 794 211 q 814 204 814 211 l 815 174 q 828 172 822 174 q 833 168 833 171 l 835 157 q 849 156 843 157 q 856 151 856 154 l 856 133 q 849 129 856 131 q 835 128 843 128 l 631 128 q 616 129 622 128 q 610 133 610 131 l 608 144 q 590 151 590 144 l 589 182 q 571 188 571 182 l 569 199 q 555 200 561 199 q 549 204 549 201 l 547 235 q 529 242 529 235 l 528 253 q 510 258 510 253 l 508 272 q 494 274 500 272 q 488 278 488 275 l 486 306 q 468 313 468 306 l 467 326 q 449 332 449 326 l 447 360 l 428 360 q 427 346 428 353 q 426 332 426 339 q 420 328 426 329 q 406 326 414 326 q 405 319 406 324 q 404 313 404 315 q 386 306 404 306 q 385 292 386 299 q 385 278 385 285 q 367 272 385 272 q 365 258 365 267 q 359 254 365 256 q 344 253 353 253 q 344 238 344 246 q 343 224 343 231 q 338 219 343 221 q 325 218 332 218 q 324 204 324 214 q 306 199 324 199 q 305 184 306 192 q 304 169 304 176 q 298 165 304 167 q 283 164 292 164 q 283 158 283 161 q 282 151 282 154 q 276 147 282 149 q 261 144 269 144 l 261 133 q 242 128 261 128 l 58 128 q 45 129 51 128 q 39 133 39 131 l 39 151 q 57 157 39 157 q 58 163 57 160 q 58 168 58 165 q 65 172 58 171 q 79 174 71 174 q 80 189 79 181 q 81 204 81 197 q 99 211 81 208 q 99 217 99 214 q 100 222 100 219 q 119 228 100 228 q 120 234 119 231 q 121 240 121 238 q 140 246 121 246 q 141 261 140 253 q 142 276 142 269 q 160 282 142 279 q 160 288 160 285 q 161 294 161 292 q 181 300 161 300 q 181 306 181 303 q 182 313 182 310 q 201 318 182 318 q 202 333 201 326 q 203 347 203 340 q 221 354 203 351 q 222 360 221 357 q 222 367 222 364 q 242 372 222 372 q 242 387 242 379 q 243 403 243 394 q 249 407 243 406 q 263 408 256 408 q 263 414 263 411 q 264 419 264 417 q 265 422 264 419 l 76 422 q 62 424 68 422 q 56 429 56 426 l 56 554 q 62 558 56 557 q 76 560 68 560 l 274 560 q 264 565 264 560 l 263 578 q 249 579 256 578 q 243 583 243 581 l 242 594 q 222 601 222 594 l 221 632 q 203 638 203 632 l 201 649 q 182 654 182 649 l 181 685 q 161 692 161 685 l 160 703 q 142 708 142 703 l 140 721 q 121 726 121 721 l 119 757 q 100 764 100 757 l 99 775 q 81 781 81 775 l 79 793 q 65 794 71 793 q 58 799 58 796 l 58 833 q 65 838 58 836 q 79 839 71 839 l 283 839 q 298 838 292 839 q 304 833 304 836 l 304 822 q 324 815 324 822 l 324 804 q 337 802 331 804 q 343 797 343 800 l 344 768 q 359 767 353 768 q 365 763 365 765 l 367 732 q 385 725 385 729 l 386 696 q 404 690 404 696 l 406 678 q 420 676 414 678 q 426 672 426 675 l 428 642 q 446 636 446 642 l 447 607 q 448 622 447 614 q 449 636 449 629 q 467 642 449 642 q 467 657 467 649 q 468 672 468 665 q 486 678 468 678 q 487 684 486 681 q 488 690 488 688 q 494 694 488 693 q 508 696 500 696 q 509 710 508 703 q 510 725 510 718 q 528 732 510 729 q 528 747 528 739 q 529 763 529 756 q 547 768 529 768 q 548 774 547 771 q 549 779 549 776 q 555 783 549 782 q 569 785 561 785 q 570 800 569 792 q 571 815 571 808 q 589 822 571 819 q 590 828 589 825 q 590 833 590 831 q 597 838 590 836 q 610 839 603 839 l 793 839 q 808 838 801 839 q 814 833 814 836 l 814 817 q 796 811 814 811 q 794 799 794 806 q 788 794 794 796 q 774 793 782 793 q 773 778 774 786 q 772 764 772 769 q 766 759 772 761 q 753 757 760 757 q 751 744 751 753 q 735 739 751 739 q 734 724 735 732 q 733 708 733 715 q 727 704 733 706 q 713 703 721 703 q 712 697 713 700 q 711 692 711 693 q 705 687 711 689 q 692 685 699 685 q 691 669 692 678 q 690 654 690 661 q 685 650 690 651 q 674 649 681 649 q 672 638 672 644 q 666 633 672 635 q 651 632 660 632 q 651 617 651 625 q 650 601 650 608 q 644 597 650 599 q 631 594 638 594 q 629 583 629 590 q 611 578 629 578 q 611 569 611 574 q 610 560 611 564 l 796 560 z "},"+":{"ha":944,"x_min":82,"x_max":811,"o":"m 100 413 q 82 419 82 413 l 82 563 q 100 568 82 568 l 358 568 l 358 831 q 376 838 358 838 l 515 838 q 527 835 522 838 q 532 831 532 833 l 533 568 l 793 568 q 811 563 811 568 l 811 419 q 793 413 811 413 l 533 413 q 533 263 533 338 q 532 114 532 189 q 527 109 532 111 q 515 107 522 107 l 376 107 q 358 114 358 107 l 358 413 l 100 413 z "},",":{"ha":944,"x_min":194,"x_max":599,"o":"m 194 -211 q 206 -206 194 -206 q 206 -190 206 -199 q 207 -175 207 -182 q 219 -168 207 -168 q 220 -153 219 -161 q 221 -139 221 -146 q 235 -133 221 -133 l 235 -103 q 249 -97 235 -97 q 249 -82 249 -90 q 250 -67 250 -74 q 261 -61 250 -61 q 262 -37 261 -50 q 263 -14 263 -25 q 275 -7 263 -7 q 276 8 275 0 q 276 24 276 17 q 290 29 276 26 l 290 58 q 303 65 290 63 q 303 80 303 72 q 304 94 304 88 q 317 100 304 97 q 317 115 317 107 q 318 131 318 124 q 329 138 318 135 q 330 152 329 144 q 331 167 331 160 q 344 172 331 169 q 345 188 344 179 q 346 203 346 196 q 358 208 346 208 q 359 214 358 211 q 360 219 360 217 q 365 224 360 222 q 376 226 369 226 l 582 226 q 594 224 589 226 q 599 219 599 222 l 599 186 q 586 179 599 179 q 585 168 585 175 q 572 161 585 161 q 571 150 571 157 q 558 144 571 144 q 558 129 558 138 q 557 114 557 121 q 544 107 557 107 q 543 96 543 103 q 531 90 543 90 q 530 75 531 83 q 529 60 529 67 q 517 54 529 54 q 515 42 515 49 q 503 36 515 36 l 503 25 q 499 20 503 22 q 490 18 494 18 q 490 3 490 11 q 489 -12 489 -6 q 476 -18 489 -15 q 475 -31 475 -22 q 463 -36 475 -33 q 461 -42 461 -39 q 461 -47 461 -44 q 447 -54 461 -51 l 447 -85 q 443 -87 447 -86 q 435 -90 439 -89 q 433 -101 433 -93 q 421 -107 433 -107 l 421 -137 q 407 -144 421 -142 l 407 -156 q 393 -161 407 -158 l 393 -174 q 379 -179 393 -176 q 378 -194 379 -186 q 378 -210 378 -203 q 367 -215 378 -212 q 365 -228 365 -219 q 347 -233 365 -233 l 211 -233 q 194 -228 194 -233 l 194 -211 l 194 -211 z "},"-":{"ha":944,"x_min":86,"x_max":793,"o":"m 772 550 q 787 549 781 550 q 793 544 793 547 l 793 419 q 787 415 793 417 q 772 413 781 413 l 107 413 q 92 415 99 413 q 86 419 86 417 l 86 544 q 92 549 86 547 q 107 550 99 550 l 772 550 z "},".":{"ha":944,"x_min":325,"x_max":569,"o":"m 551 226 q 569 219 569 226 l 569 6 q 551 0 569 0 l 343 0 q 325 6 325 0 l 325 219 q 343 226 325 226 l 551 226 z "},"/":{"ha":944,"x_min":161,"x_max":733,"o":"m 161 24 q 176 29 161 29 q 177 52 176 40 q 178 76 178 64 q 194 83 178 83 q 195 97 194 90 q 196 113 196 104 q 213 118 196 118 q 213 143 213 131 q 214 167 214 156 q 229 172 214 172 q 230 188 229 179 q 231 203 231 196 q 246 208 231 208 q 247 232 246 219 q 247 257 247 244 q 264 263 247 263 q 265 277 264 269 q 265 292 265 285 q 282 299 265 299 q 283 322 282 310 q 283 346 283 335 q 299 351 283 351 q 299 367 299 358 q 300 382 300 375 q 317 389 300 389 l 317 436 q 322 441 317 439 q 333 443 326 443 q 334 458 333 450 q 335 472 335 465 q 350 478 335 478 q 351 502 350 490 q 351 525 351 514 q 368 532 351 532 q 369 547 368 539 q 369 563 369 556 q 386 568 369 568 q 387 591 386 579 q 388 617 388 603 q 404 622 388 622 l 404 651 q 419 657 404 657 q 420 682 419 669 q 421 706 421 694 q 438 711 421 711 q 438 726 438 718 q 439 742 439 735 q 456 749 439 749 q 456 772 456 760 q 457 796 457 783 q 472 801 457 801 q 473 816 472 808 q 474 831 474 824 q 490 838 474 838 l 490 886 q 495 890 490 889 q 507 892 500 892 q 508 906 507 899 q 508 922 508 914 q 524 928 508 928 q 524 951 524 939 q 525 975 525 964 q 542 982 525 982 q 542 997 542 989 q 543 1011 543 1004 q 560 1017 543 1017 q 560 1023 560 1019 q 561 1029 561 1026 q 566 1033 561 1032 q 578 1035 571 1035 l 715 1035 q 733 1029 733 1035 l 733 1013 q 728 1008 733 1010 q 717 1007 724 1007 q 716 992 717 1000 q 715 976 715 983 q 710 972 715 974 q 700 971 706 971 q 699 946 700 958 q 699 922 699 933 q 694 918 699 919 q 682 917 689 917 q 681 901 682 908 q 681 886 681 893 q 676 882 681 883 q 664 881 671 881 l 664 831 q 659 826 664 828 q 647 825 654 825 q 647 811 647 818 q 646 797 646 804 q 631 790 646 790 q 630 776 631 783 q 629 761 629 768 q 624 757 629 758 q 613 756 619 756 q 612 731 613 743 q 611 707 611 718 q 606 703 611 704 q 594 701 601 701 q 594 685 594 693 q 593 669 593 676 q 588 665 593 667 q 578 664 583 664 q 577 640 578 651 q 576 617 576 628 q 561 610 576 610 q 560 595 561 603 q 560 581 560 588 q 555 576 560 578 q 543 575 550 575 q 542 551 543 564 q 542 526 542 538 q 537 522 542 524 q 525 521 532 521 q 524 506 525 514 q 524 492 524 499 q 508 485 524 485 q 508 461 508 474 q 507 438 507 449 q 502 433 507 435 q 490 432 497 432 l 490 400 q 485 396 490 397 q 474 394 481 394 q 473 369 474 382 q 472 346 472 357 q 457 340 472 340 q 456 326 457 333 q 456 311 456 318 q 451 307 456 308 q 439 306 446 306 q 438 282 439 294 q 438 258 438 269 q 433 253 438 256 q 421 251 428 251 q 420 236 421 244 q 419 221 419 228 q 415 217 419 218 q 404 215 410 215 l 404 168 q 399 163 404 165 q 388 161 394 161 q 387 146 388 154 q 386 131 386 138 q 381 126 386 128 q 369 125 376 125 q 369 99 369 111 q 368 76 368 88 q 363 72 368 74 q 351 71 358 71 q 351 56 351 64 q 350 42 350 49 q 335 36 350 36 q 334 21 335 29 q 333 6 333 13 q 328 1 333 3 q 317 0 324 0 l 178 0 q 166 1 171 0 q 161 6 161 3 l 161 24 l 161 24 z "},":":{"ha":944,"x_min":332,"x_max":563,"o":"m 546 226 q 558 224 553 226 q 563 219 563 222 l 563 6 q 558 1 563 3 q 546 0 553 0 l 349 0 q 337 1 342 0 q 332 6 332 3 l 332 219 q 337 224 332 222 q 349 226 342 226 l 546 226 m 546 729 q 558 728 553 729 q 563 724 563 726 l 563 508 q 558 504 563 506 q 546 503 553 503 l 349 503 q 337 504 342 503 q 332 508 332 506 l 332 724 q 337 728 332 726 q 349 729 342 729 l 546 729 z "},";":{"ha":944,"x_min":65,"x_max":507,"o":"m 488 728 q 499 726 494 728 q 504 722 504 725 l 504 508 q 499 504 504 506 q 488 503 494 503 l 290 503 q 278 504 283 503 q 274 508 274 506 l 274 722 q 278 726 274 725 q 290 728 283 728 l 488 728 m 65 -229 q 78 -224 65 -226 l 78 -194 q 90 -189 78 -189 q 91 -182 90 -185 q 92 -176 92 -179 q 103 -169 92 -169 q 103 -155 103 -162 q 104 -140 104 -147 q 117 -135 104 -135 l 117 -103 q 132 -97 117 -97 l 132 -86 q 142 -81 132 -81 q 142 -64 142 -72 q 143 -49 143 -56 q 156 -43 143 -43 l 156 -15 q 171 -8 156 -8 q 172 7 171 -1 q 172 22 172 15 q 183 28 172 25 l 183 39 q 196 46 183 43 l 196 76 q 210 82 196 79 q 210 97 210 89 q 211 113 211 104 q 222 118 211 115 l 222 129 q 235 136 222 133 q 235 151 235 143 q 236 167 236 158 q 250 172 236 169 l 250 201 q 261 208 250 206 q 262 223 261 215 q 263 238 263 231 q 274 243 263 240 q 274 249 274 246 q 275 256 275 253 q 293 261 275 261 l 490 261 q 502 260 497 261 q 507 256 507 258 l 507 149 q 494 143 507 143 l 494 131 q 483 125 494 125 q 482 114 482 121 q 469 107 482 107 q 468 101 468 104 q 468 94 468 97 q 456 89 468 89 l 456 76 q 451 72 456 74 q 443 71 447 71 q 442 60 442 67 q 431 54 442 54 q 429 40 429 49 q 415 35 429 35 l 415 24 q 404 17 415 17 q 403 6 403 14 q 389 0 403 3 l 389 -14 q 376 -19 389 -17 q 375 -31 375 -24 q 364 -36 375 -36 l 364 -47 q 350 -54 364 -51 l 350 -67 q 338 -74 350 -71 q 336 -86 336 -76 q 332 -89 336 -87 q 324 -92 328 -90 q 322 -101 322 -94 q 311 -107 322 -107 q 310 -121 310 -111 q 297 -128 310 -125 l 297 -139 q 293 -143 297 -142 q 285 -146 289 -144 q 283 -156 283 -149 q 271 -161 283 -158 q 270 -176 271 -168 q 269 -193 269 -185 q 257 -199 269 -199 l 257 -210 q 246 -215 257 -212 q 244 -229 244 -219 q 232 -235 244 -232 q 231 -247 231 -239 q 213 -253 231 -253 l 82 -253 q 70 -251 75 -253 q 65 -247 65 -250 l 65 -229 z "},"<":{"ha":944,"x_min":68,"x_max":782,"o":"m 718 46 q 703 48 710 46 q 697 53 697 50 l 696 67 l 672 67 q 659 69 665 67 q 653 74 653 71 l 651 86 q 637 88 643 86 q 631 92 631 89 l 629 104 q 617 105 622 104 q 604 106 611 106 q 591 107 597 106 q 585 111 585 108 l 583 126 q 569 128 575 126 q 563 132 563 129 l 561 144 q 549 145 554 144 q 538 146 543 146 q 518 151 518 146 l 517 165 q 502 167 508 165 q 496 171 496 168 l 494 185 q 482 185 488 185 q 469 186 476 186 q 450 192 450 186 l 449 206 q 434 207 440 206 q 428 211 428 208 l 426 222 q 414 223 419 222 q 403 224 408 224 q 383 229 383 224 l 382 244 q 367 246 374 244 q 361 250 361 247 l 360 263 q 347 263 353 263 q 335 264 342 264 q 315 269 315 264 l 314 283 q 299 285 306 283 q 293 290 293 288 l 292 303 q 279 303 285 303 q 268 304 274 304 q 249 311 249 304 l 247 324 q 233 326 239 324 q 226 331 226 328 l 225 342 l 200 342 q 185 344 192 342 q 179 349 179 346 l 179 363 q 165 365 171 363 q 158 369 158 367 l 157 382 l 133 382 q 119 384 125 382 q 113 389 113 386 l 111 403 q 98 404 104 403 q 92 408 92 406 l 90 422 l 89 422 q 74 424 81 422 q 68 429 68 426 l 68 465 q 74 470 68 468 q 89 472 81 472 l 90 472 q 91 479 90 475 q 92 486 92 483 q 98 491 92 489 q 111 493 104 493 q 112 499 111 496 q 113 506 113 503 q 119 510 113 508 q 133 513 125 513 l 157 514 q 158 519 157 517 q 158 525 158 522 q 165 530 158 528 q 179 532 171 532 l 179 546 q 185 551 179 549 q 200 553 192 553 l 225 554 q 226 560 225 557 q 226 565 226 563 q 233 570 226 568 q 247 572 239 572 q 248 578 247 575 q 249 585 249 582 q 268 590 249 590 l 292 592 q 292 598 292 594 q 293 606 293 601 q 299 610 293 608 q 314 611 306 611 q 315 618 314 614 q 315 625 315 622 q 335 631 315 631 l 360 632 q 360 638 360 635 q 361 644 361 642 q 367 649 361 647 q 382 650 374 650 q 383 658 382 654 q 383 665 383 663 q 403 671 383 671 l 426 672 q 427 678 426 676 q 428 685 428 681 q 434 689 428 688 q 449 690 440 690 q 449 697 449 693 q 450 703 450 700 q 469 708 450 708 l 494 710 q 495 717 494 714 q 496 724 496 719 q 502 728 496 726 q 517 729 508 729 q 517 736 517 732 q 518 743 518 740 q 538 749 518 749 l 561 750 q 562 757 561 754 q 563 764 563 760 q 569 768 563 767 q 583 769 575 769 q 584 776 583 772 q 585 783 585 781 q 591 788 585 786 q 604 789 597 789 l 629 790 q 630 797 629 794 q 631 803 631 800 q 637 808 631 806 q 651 810 643 810 q 652 816 651 813 q 653 822 653 819 q 659 826 653 825 q 672 828 665 828 l 696 829 q 697 835 696 832 q 697 842 697 839 q 703 847 697 844 q 718 849 710 849 q 719 855 718 851 q 719 861 719 858 q 726 866 719 864 q 739 868 732 868 l 761 868 q 776 866 769 868 q 782 861 782 864 l 782 704 q 776 700 782 701 q 761 699 769 699 l 738 697 q 737 692 738 694 q 736 686 736 689 q 717 679 736 679 q 716 673 717 676 q 715 667 715 669 q 709 662 715 664 q 694 660 703 660 l 671 658 q 670 652 671 656 q 669 646 669 649 q 650 640 669 640 l 649 640 q 648 633 649 638 q 647 626 647 629 q 641 622 647 624 q 626 619 635 619 l 603 618 q 602 613 603 615 q 601 606 601 610 q 582 600 601 600 q 581 593 582 597 q 581 586 581 589 q 574 582 581 583 q 560 581 568 581 l 536 579 q 535 574 536 576 q 535 567 535 571 q 515 561 535 561 l 490 560 q 490 554 490 557 q 489 547 489 551 q 483 543 489 544 q 468 542 476 542 q 467 533 468 538 q 467 526 467 529 q 460 522 467 524 q 447 521 454 521 l 424 519 q 423 514 424 517 q 422 507 422 511 q 416 503 422 504 q 401 501 410 501 q 401 494 401 499 q 400 488 400 490 q 394 483 400 485 q 381 482 388 482 l 356 481 q 355 474 356 476 q 354 467 354 471 q 348 463 354 464 q 333 461 342 461 l 333 433 q 348 432 342 433 q 354 428 354 431 l 356 414 q 368 413 363 414 q 381 413 374 413 q 394 411 388 413 q 400 407 400 410 l 401 393 q 416 392 410 393 q 422 388 422 390 l 424 375 q 435 374 432 375 q 447 374 439 374 q 460 372 454 374 q 467 368 467 371 l 468 353 q 483 351 476 353 q 489 347 489 350 l 490 336 q 503 335 497 336 q 515 335 508 335 q 535 329 535 335 l 536 317 q 548 316 544 317 q 560 315 551 315 q 574 314 568 315 q 581 310 581 313 l 582 294 q 601 289 601 294 l 603 275 l 626 275 q 641 274 635 275 q 647 269 647 272 l 649 256 l 650 256 q 669 250 669 256 l 671 236 q 683 235 679 236 q 694 235 686 235 q 709 233 703 235 q 715 229 715 232 l 717 215 q 736 210 736 215 l 738 199 q 749 198 746 199 q 761 197 753 197 q 776 195 769 197 q 782 190 782 193 l 782 32 q 776 28 782 29 q 761 26 769 26 l 739 26 q 726 28 732 26 q 719 32 719 29 l 718 46 l 718 46 z "},"=":{"ha":944,"x_min":86,"x_max":814,"o":"m 793 406 q 808 404 801 406 q 814 400 814 403 l 814 275 q 808 271 814 272 q 793 269 801 269 l 107 269 q 92 271 99 269 q 86 275 86 272 l 86 400 q 92 404 86 403 q 107 406 99 406 l 793 406 m 793 711 q 808 710 801 711 q 814 706 814 708 l 814 581 q 808 576 814 578 q 793 575 801 575 l 107 575 q 92 576 99 575 q 86 581 86 578 l 86 706 q 92 710 86 708 q 107 711 99 711 l 793 711 z "},">":{"ha":944,"x_min":144,"x_max":857,"o":"m 208 46 q 208 39 208 43 q 207 32 207 35 q 201 28 207 29 q 186 26 194 26 l 164 26 q 144 32 144 26 l 144 190 q 164 197 144 197 l 188 199 q 188 204 188 201 q 189 210 189 207 q 195 214 189 213 q 210 215 201 215 q 210 222 210 218 q 211 229 211 226 q 231 235 211 235 l 254 236 q 255 242 254 239 q 256 250 256 246 q 262 254 256 253 q 276 256 268 256 l 278 256 q 278 263 278 258 q 279 269 279 267 q 299 275 279 275 l 322 275 q 323 282 322 279 q 324 289 324 285 q 330 293 324 292 q 344 294 336 294 q 345 303 344 299 q 346 310 346 307 q 352 314 346 313 q 365 315 358 315 l 389 317 q 390 322 389 319 q 390 329 390 325 q 397 333 390 332 q 411 335 403 335 l 435 336 q 435 341 435 339 q 436 347 436 343 q 442 351 436 350 q 457 353 449 353 q 458 361 457 357 q 458 368 458 365 q 465 372 458 371 q 479 374 471 374 l 501 375 q 502 381 501 379 q 503 388 503 383 q 509 392 503 390 q 524 393 515 393 q 524 400 524 396 q 525 407 525 404 q 531 411 525 410 q 546 413 538 413 l 569 414 q 570 421 569 418 q 571 428 571 424 q 577 432 571 431 q 592 433 583 433 l 592 461 q 577 463 583 461 q 571 467 571 464 l 569 481 q 558 481 564 481 q 546 482 553 482 q 531 483 538 482 q 525 488 525 485 l 524 501 q 509 503 515 501 q 503 507 503 504 l 501 519 q 490 520 496 519 q 479 521 485 521 q 465 522 471 521 q 458 526 458 524 l 457 542 q 442 543 449 542 q 436 547 436 544 l 435 560 q 423 560 428 560 q 411 561 418 561 q 397 563 403 561 q 390 567 390 564 l 389 579 q 376 580 382 579 q 365 581 371 581 q 352 582 358 581 q 346 586 346 583 l 344 600 q 330 601 336 600 q 324 606 324 603 l 322 618 q 310 619 315 618 q 299 619 304 619 q 279 626 279 619 l 278 640 l 276 640 q 262 642 268 640 q 256 646 256 643 l 254 658 q 242 659 247 658 q 231 660 236 660 q 211 667 211 660 l 210 679 q 195 681 201 679 q 189 686 189 683 l 188 697 q 175 698 181 697 q 164 699 169 699 q 144 704 144 699 l 144 861 q 164 868 144 868 l 186 868 q 201 866 194 868 q 207 861 207 864 l 208 849 q 222 847 215 849 q 228 842 228 844 l 229 829 q 241 828 238 829 q 253 828 244 828 q 267 826 261 828 q 274 822 274 825 l 275 810 q 294 803 294 810 l 296 790 q 308 790 303 790 q 321 789 314 789 q 335 788 329 789 q 342 783 342 786 l 343 769 q 363 764 363 769 l 364 750 q 376 749 372 750 q 388 749 379 749 q 402 747 396 749 q 408 743 408 746 l 410 729 q 429 724 429 729 l 431 710 q 443 709 438 710 q 456 708 449 708 q 470 707 464 708 q 476 703 476 706 l 478 690 q 497 685 497 690 l 499 672 q 510 672 507 672 q 522 671 514 671 q 537 669 531 671 q 543 665 543 668 l 544 650 q 559 649 553 650 q 565 644 565 647 l 565 632 q 578 631 572 632 q 590 631 583 631 q 605 629 599 631 q 611 625 611 628 l 613 611 q 627 610 621 611 q 633 606 633 608 l 635 592 q 645 591 642 592 q 657 590 649 590 q 672 589 665 590 q 678 585 678 588 l 679 572 q 694 570 688 572 q 700 565 700 568 l 701 554 q 713 553 707 554 q 725 553 718 553 q 740 551 733 553 q 746 546 746 549 l 747 532 q 762 530 756 532 q 768 525 768 528 l 769 514 q 780 513 776 514 q 792 513 783 513 q 806 510 800 513 q 813 506 813 508 l 814 493 q 828 491 822 493 q 835 486 835 489 l 836 472 l 838 472 q 851 470 844 472 q 857 465 857 468 l 857 429 q 851 424 857 426 q 838 422 844 422 l 836 422 q 835 415 836 419 q 835 408 835 411 q 828 404 835 406 q 814 403 822 403 q 813 395 814 399 q 813 389 813 392 q 806 384 813 386 q 792 382 800 382 l 769 382 q 769 375 769 378 q 768 369 768 372 q 762 365 768 367 q 747 363 756 363 q 747 356 747 360 q 746 349 746 351 q 740 344 746 346 q 725 342 733 342 l 701 342 q 701 335 701 338 q 700 331 700 333 q 694 326 700 328 q 679 324 688 324 q 678 317 679 321 q 678 311 678 314 q 672 306 678 308 q 657 304 665 304 l 635 303 q 634 297 635 300 q 633 290 633 293 q 627 285 633 288 q 613 283 621 283 q 612 276 613 281 q 611 269 611 272 q 605 265 611 267 q 590 264 599 264 l 565 263 l 565 250 q 559 246 565 247 q 544 244 553 244 q 544 236 544 240 q 543 229 543 232 q 537 225 543 226 q 522 224 531 224 l 499 222 q 498 217 499 219 q 497 211 497 214 q 478 206 497 206 q 477 199 478 203 q 476 192 476 194 q 470 188 476 189 q 456 186 464 186 l 431 185 q 430 178 431 181 q 429 171 429 175 q 410 165 429 165 q 409 158 410 161 q 408 151 408 154 q 402 147 408 149 q 388 146 396 146 l 364 144 q 363 138 364 140 q 363 132 363 136 q 343 126 363 126 q 342 118 343 122 q 342 111 342 114 q 335 107 342 108 q 321 106 329 106 l 296 104 q 295 98 296 100 q 294 92 294 96 q 275 86 294 86 q 274 80 275 83 q 274 74 274 76 q 267 69 274 71 q 253 67 261 67 l 229 67 q 228 59 229 63 q 228 53 228 56 q 210 46 228 46 l 208 46 z "},"?":{"ha":944,"x_min":121,"x_max":772,"o":"m 589 172 q 608 167 608 172 l 608 6 q 589 0 608 0 l 367 0 q 352 1 358 0 q 346 6 346 3 l 346 167 q 352 171 346 169 q 367 172 358 172 l 589 172 m 365 454 q 385 460 365 460 q 385 474 385 467 q 386 490 386 482 q 392 494 386 493 q 406 496 399 496 q 406 511 406 503 q 407 525 407 519 q 425 532 407 529 q 426 538 425 535 q 426 544 426 542 q 446 550 426 550 q 447 556 446 553 q 447 563 447 560 q 453 567 447 565 q 468 568 460 568 l 468 581 q 486 586 468 583 q 487 592 486 589 q 488 597 488 594 q 507 604 488 604 q 508 610 507 607 q 508 617 508 614 q 515 621 508 619 q 529 622 521 622 q 530 628 529 625 q 531 635 531 631 q 547 640 531 638 q 548 655 547 647 q 549 669 549 663 q 568 676 549 676 l 568 771 q 549 778 549 771 l 547 790 q 531 797 531 790 l 529 825 l 508 825 q 494 826 500 825 q 488 831 488 828 l 486 843 l 406 843 q 405 838 406 840 q 404 831 404 835 q 386 825 404 825 l 386 815 q 380 811 386 813 q 365 810 374 810 q 365 803 365 807 q 364 797 364 800 q 358 792 364 794 q 344 790 351 790 q 344 776 344 783 q 343 761 343 768 q 338 757 343 758 q 326 756 333 756 q 326 712 326 733 q 325 669 325 690 q 319 665 325 667 q 304 664 313 664 l 140 664 q 121 669 121 664 l 121 778 q 139 783 121 783 q 140 816 139 800 q 140 850 140 832 q 147 854 140 853 q 161 856 153 856 q 162 871 161 863 q 163 886 163 879 q 181 892 163 889 q 181 897 181 894 q 182 903 182 900 q 200 910 182 910 q 201 916 200 913 q 201 922 201 919 q 208 926 201 925 q 222 928 214 928 l 242 928 q 242 934 242 931 q 243 940 243 938 q 261 946 243 946 q 262 951 261 949 q 263 957 263 954 q 269 961 263 960 q 283 963 275 963 l 344 964 q 345 969 344 967 q 346 975 346 972 q 352 980 346 978 q 367 982 358 982 l 528 982 q 541 980 535 982 q 547 975 547 978 l 549 964 q 569 963 560 964 q 589 963 578 963 q 608 957 608 963 l 610 946 l 629 946 q 644 944 638 946 q 650 940 650 943 l 651 928 l 672 928 q 685 926 679 928 q 692 922 692 925 l 692 910 q 711 903 711 910 l 711 892 q 726 890 719 892 q 732 886 732 889 l 733 856 q 753 850 753 856 l 754 801 q 772 796 772 799 l 772 669 q 754 664 772 664 q 753 640 754 651 q 753 617 753 628 q 733 610 753 610 q 733 595 733 603 q 732 581 732 588 q 726 576 732 578 q 713 575 719 575 q 711 569 711 572 q 711 563 711 565 q 693 556 711 556 q 692 541 693 549 q 692 526 692 533 q 685 522 692 524 q 672 521 679 521 q 672 515 672 518 q 671 508 671 511 q 665 504 671 506 q 650 503 658 503 l 650 492 q 632 485 650 485 q 631 474 631 481 q 624 469 631 471 q 610 467 618 467 q 609 460 610 464 q 608 454 608 457 q 589 449 608 449 l 589 438 q 571 432 589 432 q 570 388 571 410 q 569 346 569 367 q 563 342 569 343 q 549 340 557 340 l 386 340 q 372 342 378 340 q 365 346 365 343 l 365 454 z "},"@":{"ha":944,"x_min":40,"x_max":868,"o":"m 169 8 q 155 10 161 8 q 149 15 149 13 l 147 32 l 142 32 q 122 38 122 32 l 121 57 l 115 57 q 101 59 107 57 q 94 64 94 61 l 93 82 l 89 82 q 74 83 81 82 q 68 88 68 85 l 65 157 l 60 157 q 47 158 53 157 q 40 163 40 160 l 40 408 q 47 413 40 411 q 60 414 53 414 l 65 414 q 67 449 65 432 q 68 483 68 467 q 74 488 68 486 q 89 490 81 490 l 93 490 q 94 512 93 501 q 94 533 94 522 q 101 538 94 536 q 115 539 107 539 l 147 540 q 148 549 147 544 q 149 557 149 553 q 155 562 149 560 q 169 564 161 564 l 175 564 q 176 574 175 569 q 176 582 176 578 q 183 586 176 585 q 196 588 189 588 l 385 588 q 404 582 404 588 l 406 565 l 419 565 q 420 574 419 569 q 421 582 421 579 q 427 586 421 585 q 442 588 433 588 l 575 588 q 590 586 583 588 q 596 582 596 585 l 597 117 l 604 117 q 617 115 611 117 q 624 110 624 113 l 625 93 l 635 93 q 636 101 635 96 q 638 110 638 107 q 644 115 638 113 q 658 117 650 117 l 664 117 q 665 139 664 128 q 665 161 665 150 q 672 166 665 164 q 685 168 678 168 l 690 168 l 690 728 l 685 728 q 672 729 678 728 q 665 733 665 731 l 664 803 l 658 803 q 644 805 650 803 q 638 810 638 807 l 635 850 l 632 850 q 617 852 624 850 q 611 857 611 854 l 611 900 q 594 901 603 900 q 576 901 585 901 q 562 903 568 901 q 556 907 556 904 l 554 925 q 538 926 546 925 q 524 926 531 926 q 509 928 515 926 q 503 932 503 929 l 500 950 l 353 950 q 350 932 350 942 q 344 928 350 929 q 331 926 338 926 l 299 925 q 298 915 299 921 q 297 907 297 910 q 291 903 297 904 q 276 901 285 901 l 271 901 q 270 890 271 894 q 269 882 269 886 q 250 876 269 876 l 244 876 q 242 857 242 865 q 235 852 242 854 q 221 850 229 850 l 217 850 q 216 804 217 826 q 215 758 215 782 q 209 754 215 756 q 194 753 203 753 l 60 753 q 47 754 53 753 q 40 758 40 756 l 40 856 q 47 860 40 858 q 60 861 53 861 l 65 861 q 67 883 65 872 q 68 906 68 894 q 74 910 68 908 q 89 911 81 911 l 93 911 q 94 933 93 922 q 94 956 94 944 q 101 960 94 958 q 115 963 107 963 l 121 963 q 122 972 121 967 q 122 981 122 976 q 142 986 122 986 l 175 988 q 176 995 175 992 q 176 1003 176 999 q 183 1007 176 1006 q 196 1008 189 1008 l 200 1008 q 201 1018 200 1013 q 203 1028 203 1024 q 222 1033 203 1033 l 283 1036 q 284 1047 283 1043 q 285 1056 285 1051 q 291 1060 285 1058 q 306 1063 297 1063 l 547 1063 q 562 1060 556 1063 q 568 1056 568 1058 l 569 1036 q 601 1035 586 1035 q 632 1033 617 1035 q 651 1028 651 1033 l 653 1010 q 669 1008 661 1008 q 683 1008 676 1008 q 698 1007 692 1008 q 704 1003 704 1006 l 706 986 l 711 986 q 726 985 719 986 q 732 981 732 983 l 733 963 l 739 963 q 758 956 758 963 l 760 911 l 767 911 q 781 910 775 911 q 788 906 788 908 l 789 886 l 794 886 q 809 885 803 886 q 815 881 815 883 l 817 838 l 819 838 q 833 835 826 838 q 839 831 839 833 l 840 739 l 847 739 q 862 737 856 739 q 868 732 868 735 l 868 163 q 862 158 868 160 q 847 157 856 157 l 840 157 q 840 122 840 142 q 839 88 839 103 q 833 83 839 85 q 819 82 826 82 l 817 82 q 816 60 817 71 q 815 38 815 49 q 809 33 815 35 q 794 32 803 32 l 789 32 q 788 24 789 28 q 788 15 788 19 q 781 10 788 13 q 767 8 775 8 l 733 6 q 733 -3 733 1 q 732 -12 732 -8 q 726 -17 732 -15 q 711 -18 719 -18 l 549 -18 q 535 -17 542 -18 q 529 -12 529 -15 l 528 8 l 524 8 q 509 10 515 8 q 503 15 503 13 l 500 32 l 494 32 q 481 33 483 32 q 468 32 476 32 l 463 32 q 462 24 463 28 q 461 15 461 19 q 455 10 461 13 q 440 8 449 8 l 406 6 q 405 -3 406 1 q 404 -12 404 -8 q 385 -18 404 -18 l 224 -18 q 209 -17 215 -18 q 203 -12 203 -15 l 200 7 l 169 8 m 326 97 l 382 97 q 383 105 382 101 q 383 113 383 108 q 390 117 383 115 q 403 118 396 118 l 406 118 q 407 139 406 129 q 408 158 408 149 q 415 163 408 161 q 429 164 421 164 l 432 164 l 432 351 l 429 351 q 415 353 421 351 q 408 358 408 356 l 406 397 l 403 397 q 390 399 396 397 q 383 403 383 400 l 382 419 l 379 419 q 365 421 371 419 q 358 425 358 422 l 357 440 l 301 440 q 301 433 301 436 q 300 425 300 429 q 294 421 300 422 q 279 419 288 419 l 275 419 q 274 399 275 408 q 274 381 274 390 q 267 376 274 378 q 254 374 261 374 l 251 374 l 251 186 l 254 186 q 267 184 261 186 q 274 179 274 182 l 275 119 q 290 119 282 119 q 304 118 297 118 q 319 117 313 118 q 325 113 325 115 l 326 97 z "},"A":{"ha":944,"x_min":28,"x_max":868,"o":"m 47 46 q 48 80 47 63 q 49 114 49 97 q 55 118 49 117 q 69 119 61 119 q 70 143 69 131 q 71 168 71 156 q 76 171 71 169 q 88 174 81 172 q 88 207 88 190 q 89 239 89 224 q 108 246 89 246 q 109 270 108 257 q 110 294 110 283 q 116 299 110 297 q 131 300 122 300 q 131 333 131 315 q 132 367 132 351 q 150 372 132 372 q 151 405 150 388 q 151 439 151 422 q 171 444 151 444 q 172 469 171 457 q 172 493 172 481 q 192 499 172 499 q 192 533 192 515 q 193 565 193 550 q 211 571 193 568 q 212 605 211 588 q 213 638 213 622 q 232 643 213 643 q 233 667 232 654 q 233 692 233 681 q 240 696 233 694 q 254 697 246 697 q 255 731 254 714 q 256 764 256 749 q 274 769 256 769 l 274 818 q 293 824 274 824 q 294 858 293 840 q 294 892 294 875 q 301 896 294 894 q 315 897 307 897 q 316 930 315 913 q 317 963 317 947 q 323 967 317 965 q 338 969 329 969 l 561 969 q 574 967 568 969 q 581 963 581 965 l 582 897 q 597 896 590 897 q 603 892 603 894 l 604 842 q 622 836 622 839 l 624 769 q 637 768 631 769 q 643 764 643 767 l 644 697 q 664 692 664 697 l 665 643 q 683 638 683 640 l 685 571 q 698 569 692 571 q 704 565 704 568 l 706 499 q 720 497 714 499 q 726 493 726 496 l 728 444 q 746 439 746 442 l 747 372 q 765 367 765 372 l 767 300 q 781 299 775 300 q 788 294 788 297 l 789 246 q 807 239 807 243 l 808 174 q 822 172 815 174 q 828 168 828 171 l 829 119 q 844 118 838 119 q 850 114 850 117 l 851 46 q 863 44 858 46 q 868 42 868 43 l 868 6 q 862 1 868 3 q 849 0 856 0 l 685 0 q 670 1 676 0 q 664 6 664 3 l 663 36 q 644 43 644 36 l 643 90 q 625 97 625 90 l 624 163 q 609 164 615 163 q 603 168 603 165 l 601 235 q 582 240 582 235 l 581 269 l 315 269 q 315 265 315 267 q 314 260 314 263 q 296 253 314 253 q 295 219 296 236 q 294 188 294 203 q 288 183 294 185 q 274 181 282 181 l 274 115 q 267 110 274 113 q 254 108 261 108 q 253 75 254 92 q 253 43 253 58 q 235 36 253 36 q 234 21 235 29 q 233 6 233 13 q 227 1 233 3 q 213 0 221 0 l 49 0 q 34 1 40 0 q 28 6 28 3 l 28 42 q 47 46 28 46 m 522 525 q 531 524 526 525 q 540 524 536 524 l 519 529 l 519 525 l 522 525 m 479 668 q 489 667 483 668 q 499 667 494 667 l 478 674 l 478 668 l 479 668 m 419 692 l 399 686 l 417 688 l 419 688 l 419 692 m 358 474 l 338 469 l 356 471 l 358 471 l 358 474 m 542 453 q 551 452 546 453 q 561 451 557 451 l 540 457 l 540 453 l 542 453 m 461 740 q 469 740 465 740 q 478 739 474 739 l 458 746 l 458 740 l 461 740 m 376 547 l 357 542 l 375 543 l 376 543 l 376 547 m 439 764 l 418 758 l 438 758 l 439 758 l 439 764 m 458 765 q 459 789 458 776 q 460 813 460 801 l 439 818 l 440 758 q 458 765 458 758 m 375 475 q 358 471 375 471 l 358 428 l 540 428 l 540 453 q 521 458 521 453 l 519 525 q 501 531 501 525 l 500 596 q 485 598 492 596 q 479 603 479 600 l 478 668 q 460 675 460 668 l 458 740 q 440 747 440 740 l 440 758 l 439 758 q 438 726 439 743 q 438 693 438 708 q 419 688 438 688 q 419 653 419 671 q 418 621 418 636 q 412 617 418 618 q 397 615 406 615 q 397 581 397 599 q 396 549 396 564 q 390 544 396 546 q 376 543 383 543 q 376 508 376 526 q 375 475 375 490 z "},"B":{"ha":944,"x_min":38,"x_max":858,"o":"m 97 138 l 97 831 l 58 831 q 44 833 50 831 q 38 838 38 835 l 38 963 q 44 967 38 965 q 58 969 50 969 l 531 969 q 545 967 539 969 q 551 963 551 965 l 553 953 q 592 952 572 953 q 632 951 613 951 q 647 949 640 951 q 653 944 653 947 l 654 932 l 672 932 q 687 931 681 932 q 693 926 693 929 l 694 914 l 715 914 q 730 913 724 914 q 736 908 736 911 l 736 897 q 756 892 756 897 l 756 879 q 769 877 763 879 q 775 872 775 875 l 776 842 q 791 840 785 842 q 797 836 797 839 l 797 824 q 817 818 817 824 l 818 751 q 831 750 825 751 q 838 746 838 749 l 838 657 q 831 652 838 654 q 818 650 825 650 q 817 626 818 639 q 817 603 817 614 q 799 596 817 596 q 798 581 799 589 q 797 565 797 572 q 791 561 797 563 q 776 560 785 560 q 776 554 776 557 q 775 549 775 551 q 769 544 775 546 q 757 543 764 543 q 756 531 756 538 q 738 525 756 525 q 736 513 736 519 q 730 508 736 510 q 715 506 724 506 l 694 504 l 694 499 l 715 499 q 730 497 724 499 q 736 493 736 496 l 736 481 q 756 474 756 481 l 756 464 q 769 462 763 464 q 775 457 775 460 l 776 444 q 791 443 785 444 q 797 439 797 442 l 797 426 q 817 421 817 426 l 818 390 q 831 389 825 390 q 838 385 838 388 l 839 336 q 858 331 858 336 l 858 222 q 839 217 858 217 q 838 193 839 206 q 838 168 838 181 q 831 164 838 165 q 818 163 825 163 q 817 147 818 156 q 817 132 817 139 q 799 128 817 128 q 797 115 797 122 q 791 110 797 113 q 776 108 785 108 q 776 93 776 101 q 775 78 775 85 q 769 74 775 75 q 756 72 763 72 l 738 72 q 737 66 738 69 q 736 60 736 63 q 730 56 736 57 q 715 54 724 54 q 715 48 715 51 q 714 43 714 44 q 708 38 714 40 q 693 36 701 36 l 675 36 q 674 30 675 33 q 674 25 674 26 q 667 20 674 22 q 654 18 661 18 l 571 17 q 570 11 571 14 q 569 6 569 8 q 550 0 569 0 l 58 0 q 44 1 50 0 q 38 6 38 3 l 38 131 q 44 135 38 133 q 58 138 50 138 l 97 138 m 656 325 q 664 324 660 325 q 672 324 668 324 l 653 331 l 653 325 l 656 325 m 672 247 l 656 246 l 653 246 l 653 240 l 672 247 m 306 138 l 529 138 q 530 144 529 140 q 531 149 531 147 q 537 153 531 151 q 551 156 543 156 l 571 156 q 572 162 571 158 q 572 168 572 165 q 578 172 572 171 q 593 174 585 174 l 611 174 q 612 180 611 176 q 613 186 613 183 q 619 190 613 189 q 633 192 625 192 q 634 216 633 204 q 635 239 635 228 q 653 246 635 243 l 653 325 q 635 331 635 325 l 633 381 q 619 381 625 381 q 613 385 613 382 l 611 397 l 593 397 q 578 399 585 397 q 572 403 572 400 l 571 414 q 562 415 567 414 q 551 415 557 415 q 537 417 543 415 q 531 422 531 419 l 529 433 l 306 433 l 306 138 m 593 778 q 602 777 597 778 q 611 776 607 776 l 590 782 l 590 778 l 593 778 m 613 758 l 632 758 l 611 764 l 611 758 l 613 758 m 590 603 l 611 608 l 593 607 l 590 607 l 590 603 m 632 626 l 613 626 l 611 626 l 611 621 l 632 626 m 306 572 l 529 572 q 530 578 529 575 q 531 583 531 581 q 537 588 531 586 q 551 589 543 589 l 571 589 q 572 596 571 593 q 572 601 572 599 q 590 607 572 604 q 591 613 590 610 q 592 619 592 617 q 611 626 592 626 q 612 641 611 633 q 613 656 613 649 q 619 660 613 658 q 633 661 625 661 l 633 724 q 619 725 625 724 q 613 728 613 726 l 611 758 q 592 765 592 758 l 590 778 q 572 783 572 778 l 571 796 q 558 797 564 796 q 551 801 551 799 l 550 813 l 489 813 q 474 815 481 813 q 468 819 468 817 l 468 831 l 306 831 l 306 572 z "},"C":{"ha":944,"x_min":68,"x_max":828,"o":"m 335 0 q 320 1 326 0 q 314 6 314 3 l 313 19 l 293 19 q 274 25 274 19 l 272 36 l 254 36 q 240 38 246 36 q 233 43 233 40 l 232 54 q 217 56 224 54 q 211 60 211 57 l 210 74 q 190 79 190 74 l 189 90 q 172 97 172 90 l 171 108 q 156 110 163 108 q 150 115 150 113 l 149 144 q 129 150 129 144 l 128 182 q 110 189 110 182 l 108 217 q 94 218 100 217 q 88 222 88 219 l 86 290 q 68 297 68 290 l 68 675 q 86 681 68 681 q 87 705 86 693 q 88 728 88 717 q 94 733 88 731 q 108 735 100 735 q 109 759 108 746 q 110 783 110 772 q 128 789 110 789 q 128 804 128 797 q 129 818 129 811 q 149 824 129 824 q 149 839 149 831 q 150 854 150 847 q 156 859 150 857 q 171 861 163 861 q 172 867 171 864 q 172 872 172 869 q 189 879 172 876 q 190 885 189 882 q 190 892 190 889 q 210 899 190 899 q 210 903 210 901 q 211 908 211 906 q 217 913 211 911 q 232 914 224 914 q 233 921 232 918 q 233 926 233 924 q 240 931 233 929 q 254 932 246 932 l 272 932 q 273 939 272 935 q 274 946 274 943 q 293 953 274 953 l 313 953 q 313 958 313 956 q 314 963 314 961 q 320 967 314 965 q 335 969 326 969 l 394 971 q 395 976 394 974 q 396 982 396 979 q 402 985 396 983 q 417 986 408 986 l 579 986 q 594 985 588 986 q 600 982 600 983 l 601 971 q 622 970 613 971 q 642 969 631 969 q 656 967 650 969 q 663 963 663 965 l 663 953 l 683 953 q 698 951 692 953 q 704 946 704 949 l 704 932 q 724 926 724 932 l 724 914 q 738 913 732 914 q 744 908 744 911 l 746 899 q 765 892 765 899 l 765 879 q 785 872 785 879 l 786 843 q 799 842 793 843 q 806 838 806 840 l 806 785 q 799 781 806 782 q 785 779 793 779 l 624 779 q 609 781 615 779 q 603 785 603 782 l 601 796 q 587 797 593 796 q 581 801 581 799 l 579 832 l 563 832 q 548 834 554 832 q 542 839 542 836 l 540 849 l 438 849 q 437 844 438 846 q 436 839 436 842 q 430 834 436 836 q 415 832 424 832 l 397 832 q 397 826 397 829 q 396 819 396 822 q 390 815 396 817 q 375 813 383 813 q 374 807 375 810 q 374 801 374 804 q 356 796 374 796 q 354 785 354 792 q 336 779 354 779 q 335 765 335 774 q 328 760 335 763 q 314 758 322 758 q 313 744 314 751 q 313 729 313 736 q 306 726 313 728 q 293 725 300 725 q 292 700 293 713 q 292 676 292 688 q 274 669 292 669 l 274 318 q 292 311 292 315 l 293 247 q 306 245 300 247 q 313 240 313 243 l 314 210 q 328 208 322 210 q 335 204 335 207 l 335 193 q 354 188 354 193 l 354 174 q 374 168 374 174 l 375 156 q 390 153 383 156 q 396 149 396 151 l 397 138 l 415 138 q 430 136 424 138 q 436 132 436 135 l 438 121 l 497 121 q 498 127 497 125 q 499 132 499 129 q 505 136 499 135 q 519 138 511 138 l 540 139 q 541 144 540 142 q 542 149 542 147 q 560 156 542 153 q 560 162 560 158 q 561 168 561 165 q 579 174 561 174 q 580 180 579 176 q 581 188 581 183 q 587 192 581 190 q 601 193 593 193 q 602 199 601 196 q 603 204 603 201 q 621 210 603 207 q 622 224 621 217 q 622 240 622 232 q 628 245 622 243 q 643 247 635 247 l 807 247 q 822 245 815 247 q 828 240 828 243 l 828 189 q 822 184 828 186 q 807 182 815 182 q 806 166 807 175 q 806 150 806 157 q 799 146 806 147 q 786 144 793 144 q 785 130 786 138 q 785 115 785 122 q 767 108 785 108 q 765 97 765 104 q 746 90 765 90 q 745 85 746 88 q 744 79 744 82 q 738 75 744 76 q 725 74 732 74 q 724 60 724 68 q 706 54 724 54 q 704 43 704 49 q 698 38 704 40 q 683 36 692 36 l 663 36 l 663 25 q 656 21 663 22 q 642 19 650 19 l 622 19 q 622 13 622 17 q 621 6 621 8 q 615 1 621 3 q 600 0 608 0 l 561 -1 q 560 -7 561 -4 q 560 -12 560 -10 q 553 -17 560 -15 q 539 -18 547 -18 l 396 -18 q 381 -17 388 -18 q 375 -12 375 -15 l 374 -1 l 335 0 z "},"D":{"ha":944,"x_min":58,"x_max":838,"o":"m 118 138 l 118 831 l 79 831 q 65 833 71 831 q 58 838 58 835 l 58 963 q 65 967 58 965 q 79 969 71 969 l 488 969 q 502 967 496 969 q 508 963 508 965 l 510 953 q 540 952 528 953 q 569 951 553 951 q 584 949 578 951 q 590 944 590 947 l 592 932 l 611 932 q 626 931 619 932 q 632 926 632 929 l 633 914 l 653 914 q 666 913 660 914 q 672 908 672 911 l 672 897 q 687 896 681 897 q 693 892 693 894 l 693 879 q 708 877 701 879 q 714 872 714 875 l 714 861 q 728 859 722 861 q 735 854 735 857 l 735 842 q 749 840 743 842 q 756 836 756 839 l 757 807 q 769 805 764 807 q 775 800 775 803 l 776 769 q 790 768 783 769 q 796 764 796 767 l 796 717 q 810 715 804 717 q 817 710 817 713 l 818 661 q 831 660 825 661 q 838 656 838 658 l 838 313 q 831 308 838 310 q 818 307 825 307 q 817 274 818 292 q 817 240 817 256 q 810 236 817 238 q 796 235 804 235 l 796 206 q 790 201 796 203 q 776 199 783 199 q 776 183 776 192 q 775 168 775 175 q 769 164 775 165 q 757 163 764 163 q 756 147 757 156 q 756 132 756 139 q 749 128 756 129 q 735 128 743 128 l 735 115 q 728 110 735 113 q 715 108 722 108 q 714 97 714 104 q 708 92 714 94 q 694 90 701 90 q 693 78 693 86 q 687 74 693 75 q 672 72 681 72 l 672 60 q 666 56 672 57 q 653 54 660 54 l 633 54 q 633 48 633 51 q 632 43 632 44 q 626 38 632 40 q 611 36 619 36 l 592 36 q 591 30 592 33 q 590 25 590 26 q 584 20 590 22 q 569 18 578 18 l 531 17 q 530 11 531 14 q 529 6 529 8 q 523 1 529 3 q 508 0 517 0 l 79 0 q 65 1 71 0 q 58 6 58 3 l 58 131 q 65 135 58 133 q 79 138 71 138 l 118 138 m 551 778 q 561 777 556 778 q 569 776 567 776 l 550 782 l 550 778 l 551 778 m 571 758 l 590 758 l 569 764 l 569 758 l 571 758 m 613 706 q 622 705 617 706 q 632 704 628 704 l 611 710 l 611 706 l 613 706 m 633 650 q 643 649 638 650 q 653 649 649 649 l 632 656 l 632 650 l 633 650 m 653 338 l 633 336 l 632 336 l 632 331 l 653 338 m 632 265 l 613 264 l 611 264 l 611 260 l 632 265 m 550 188 l 569 193 l 551 192 l 550 192 l 550 188 m 590 211 l 571 210 l 569 210 l 569 206 l 590 211 m 325 138 l 468 138 l 468 149 q 474 153 468 151 q 489 156 481 156 l 508 156 l 508 168 q 515 172 508 171 q 529 174 521 174 q 530 180 529 176 q 531 186 531 183 q 550 192 531 192 q 551 198 550 194 q 551 204 551 201 q 569 210 551 210 l 569 221 q 576 226 569 224 q 590 228 582 228 q 591 243 590 235 q 592 258 592 251 q 611 264 592 264 q 612 297 611 281 q 613 331 613 314 q 632 336 613 336 l 632 650 q 613 657 613 650 l 611 706 q 592 711 592 706 l 590 740 q 576 742 582 740 q 569 747 569 744 l 569 758 q 551 765 551 758 l 550 778 q 531 783 531 778 l 529 796 q 515 797 521 796 q 508 801 508 799 l 508 813 l 489 813 q 474 815 481 813 q 468 819 468 817 l 468 831 l 325 831 l 325 138 z "},"E":{"ha":944,"x_min":99,"x_max":796,"o":"m 775 969 q 790 967 783 969 q 796 963 796 965 l 796 838 q 790 833 796 835 q 775 831 783 831 l 304 831 l 304 572 q 509 572 408 572 q 714 571 610 571 q 728 569 722 571 q 735 565 735 568 l 735 440 q 728 435 735 438 q 714 433 722 433 l 304 433 l 304 138 l 775 138 q 790 135 783 138 q 796 131 796 133 l 796 6 q 790 1 796 3 q 775 0 783 0 l 119 0 q 105 1 111 0 q 99 6 99 3 l 99 963 q 105 967 99 965 q 119 969 111 969 l 775 969 z "},"F":{"ha":944,"x_min":140,"x_max":756,"o":"m 735 969 q 749 967 743 969 q 756 963 756 965 l 756 838 q 749 833 756 835 q 735 831 743 831 l 346 831 l 346 572 q 499 572 425 572 q 653 571 574 571 q 666 569 660 571 q 672 565 672 568 l 672 440 q 666 435 672 438 q 653 433 660 433 l 346 433 q 345 219 346 325 q 344 6 344 113 q 338 1 344 3 q 324 0 332 0 l 161 0 q 147 1 153 0 q 140 6 140 3 l 140 963 q 147 967 140 965 q 161 969 153 969 l 735 969 z "},"G":{"ha":944,"x_min":69,"x_max":828,"o":"m 336 0 q 322 1 328 0 q 315 6 315 3 l 314 19 l 294 19 q 280 21 286 19 q 274 25 274 22 l 274 36 l 254 36 q 240 38 246 36 q 233 43 233 40 l 232 54 q 213 60 213 54 l 211 74 q 192 79 192 74 l 190 90 q 172 97 172 90 l 171 108 q 151 115 151 108 l 150 144 q 131 150 131 144 l 129 182 q 110 189 110 182 l 108 217 q 89 222 89 217 l 88 290 q 69 297 69 290 l 69 675 q 88 681 69 681 q 88 705 88 693 q 89 728 89 717 q 108 735 89 735 q 109 759 108 746 q 110 783 110 772 q 129 789 110 789 q 130 804 129 797 q 131 818 131 811 q 150 824 131 824 q 151 839 150 831 q 151 854 151 847 q 171 861 151 861 q 172 867 171 864 q 172 872 172 869 q 190 879 172 879 q 191 885 190 882 q 192 892 192 889 q 211 899 192 899 q 212 903 211 901 q 213 908 213 906 q 232 914 213 914 q 233 920 232 917 q 233 926 233 924 q 240 931 233 929 q 254 932 246 932 l 274 932 l 274 946 q 280 951 274 949 q 294 953 286 953 l 314 953 q 315 958 314 956 q 315 963 315 961 q 322 967 315 965 q 336 969 328 969 l 396 971 q 397 976 396 974 q 397 982 397 979 q 403 985 397 983 q 418 986 410 986 l 581 986 q 595 985 589 986 q 601 982 601 983 l 603 971 q 623 970 614 971 q 643 969 632 969 q 663 963 663 969 l 664 953 l 683 953 q 698 951 692 953 q 704 946 704 949 l 704 932 q 719 931 713 932 q 725 926 725 929 l 725 914 q 740 913 733 914 q 746 908 746 911 l 746 899 q 765 892 765 899 l 765 879 q 780 877 774 879 q 786 872 786 875 l 788 843 q 801 842 794 843 q 807 838 807 840 l 807 785 q 801 781 807 782 q 786 779 794 779 l 624 779 q 609 781 615 779 q 603 785 603 782 l 601 796 q 582 801 582 796 l 581 832 l 563 832 q 548 834 554 832 q 542 839 542 836 l 540 849 l 439 849 q 438 844 439 846 q 438 839 438 842 q 431 834 438 836 q 417 832 425 832 l 397 832 q 397 826 397 829 q 396 819 396 822 q 390 815 396 817 q 376 813 383 813 q 375 801 375 810 q 357 796 375 796 q 356 785 356 792 q 349 781 356 782 q 336 779 343 779 q 335 765 335 774 q 328 760 335 763 q 315 758 322 758 q 315 744 315 751 q 314 729 314 736 q 308 726 314 728 q 294 725 301 725 q 294 700 294 713 q 293 676 293 688 q 287 672 293 674 q 274 669 281 669 l 274 318 q 287 316 281 318 q 293 311 293 314 l 294 247 q 308 245 301 247 q 314 240 314 243 l 315 210 q 328 208 322 210 q 335 204 335 207 l 335 193 q 349 192 343 193 q 356 188 356 190 l 356 174 q 375 168 375 174 l 375 156 q 390 153 383 156 q 396 149 396 151 l 397 138 l 417 138 q 431 136 425 138 q 438 132 438 135 l 439 121 l 499 121 q 499 127 499 125 q 500 132 500 129 q 506 136 500 135 q 521 138 513 138 l 540 138 q 541 144 540 140 q 542 149 542 147 q 561 156 542 156 q 562 162 561 158 q 563 168 563 165 q 581 174 563 174 q 581 180 581 176 q 582 188 582 183 q 601 193 582 193 q 602 199 601 196 q 603 204 603 201 q 622 210 603 210 l 622 379 q 519 380 572 379 q 418 381 467 381 q 403 381 410 381 q 397 385 397 382 l 397 513 q 403 517 397 515 q 418 518 410 518 l 807 518 q 822 517 815 518 q 828 513 828 515 l 828 189 q 822 184 828 186 q 808 182 815 182 q 808 165 808 174 q 807 150 807 157 q 801 146 807 147 q 788 144 794 144 q 787 130 788 138 q 786 115 786 122 q 780 110 786 113 q 767 108 774 108 q 765 97 765 104 q 747 90 765 90 q 746 79 746 86 q 740 75 746 76 q 726 74 733 74 q 725 60 725 68 q 719 56 725 57 q 706 54 713 54 q 704 43 704 49 q 698 38 704 40 q 683 36 692 36 l 664 36 q 663 31 664 33 q 663 25 663 28 q 643 19 663 19 l 624 19 q 623 13 624 17 q 622 6 622 8 q 616 1 622 3 q 601 0 610 0 l 563 -1 q 562 -7 563 -4 q 561 -12 561 -10 q 555 -17 561 -15 q 540 -18 549 -18 l 397 -18 q 383 -17 389 -18 q 376 -12 376 -15 l 375 -1 l 336 0 z "},"H":{"ha":944,"x_min":79,"x_max":817,"o":"m 263 969 q 282 963 282 969 l 283 572 l 611 572 q 612 767 611 671 q 613 963 613 864 q 619 967 613 965 q 633 969 625 969 l 796 969 q 810 967 804 969 q 817 963 817 965 l 817 6 q 810 1 817 3 q 796 0 804 0 l 633 0 q 619 1 625 0 q 613 6 613 3 l 611 433 l 283 433 q 283 219 283 325 q 282 6 282 113 q 263 0 282 0 l 99 0 q 79 6 79 0 l 79 963 q 99 969 79 969 l 263 969 z "},"I":{"ha":944,"x_min":161,"x_max":735,"o":"m 344 138 l 344 831 l 200 831 q 185 833 192 831 q 179 838 179 835 l 179 963 q 185 967 179 965 q 200 969 192 969 l 693 969 q 708 967 701 969 q 714 963 714 965 l 714 838 q 708 833 714 835 q 693 831 701 831 l 551 831 l 551 138 l 714 138 q 728 135 722 138 q 735 131 735 133 l 735 6 q 728 1 735 3 q 714 0 722 0 l 181 0 q 167 1 174 0 q 161 6 161 3 l 161 131 q 167 135 161 133 q 181 138 174 138 l 344 138 z "},"J":{"ha":944,"x_min":151,"x_max":746,"o":"m 294 0 q 280 1 286 0 q 274 6 274 3 l 274 19 q 256 25 256 19 l 254 36 l 233 36 q 219 38 225 36 q 213 43 213 40 l 211 74 q 193 79 193 74 l 192 108 q 172 115 172 108 l 171 163 q 151 168 151 163 l 151 311 q 158 316 151 314 q 172 318 164 318 l 336 318 q 351 316 344 318 q 357 311 357 314 l 358 174 q 375 168 375 171 l 376 138 l 397 138 q 412 136 406 138 q 418 132 418 135 l 419 121 l 478 121 q 478 127 478 125 q 479 132 479 129 q 485 136 479 135 q 500 138 492 138 l 519 138 q 520 153 519 144 q 521 168 521 161 q 540 174 521 174 q 541 567 540 371 q 542 963 542 764 q 548 967 542 965 q 563 969 554 969 l 725 969 q 740 967 733 969 q 746 963 746 965 l 746 168 q 728 163 746 163 q 727 129 728 146 q 726 97 726 113 q 720 92 726 94 q 706 90 714 90 q 705 85 706 88 q 704 79 704 82 q 698 75 704 76 q 685 74 692 74 q 683 60 683 68 q 665 54 683 54 q 664 43 664 49 q 644 36 664 36 q 644 31 644 33 q 643 25 643 28 q 637 21 643 22 q 624 19 631 19 q 622 6 622 15 q 616 1 622 3 q 601 0 610 0 l 563 -1 q 562 -7 563 -4 q 561 -12 561 -10 q 555 -17 561 -15 q 540 -18 549 -18 l 357 -18 q 342 -17 349 -18 q 336 -12 336 -15 l 335 -1 l 294 0 z "},"K":{"ha":944,"x_min":7,"x_max":889,"o":"m 190 969 q 205 967 199 969 q 211 963 211 965 l 213 615 l 213 619 q 232 626 213 626 q 233 632 232 629 q 233 638 233 635 q 253 643 233 643 q 253 649 253 646 q 254 656 254 653 q 274 661 254 661 l 274 674 q 293 679 274 679 q 294 685 293 682 q 294 692 294 689 q 314 697 294 697 q 315 703 314 700 q 315 710 315 707 q 335 717 315 717 q 335 722 335 719 q 336 728 336 725 q 356 733 336 733 q 356 740 356 736 q 357 746 357 743 q 375 751 357 751 q 376 758 375 754 q 376 764 376 761 q 396 769 376 769 q 397 776 396 772 q 397 782 397 779 q 417 789 397 789 q 417 794 417 792 q 418 800 418 797 q 438 807 418 807 q 438 813 438 810 q 439 818 439 815 q 458 824 439 824 q 459 830 458 826 q 460 836 460 833 q 478 842 460 842 q 478 848 478 844 q 479 854 479 851 q 499 861 479 861 q 499 867 499 864 q 500 872 500 869 q 519 879 500 879 q 520 885 519 882 q 521 892 521 889 q 540 897 521 897 q 541 903 540 900 q 542 908 542 906 q 561 914 542 914 q 562 920 561 917 q 563 926 563 924 q 581 932 563 932 q 581 938 581 935 q 582 944 582 942 q 601 951 582 951 q 602 957 601 954 q 603 963 603 960 q 609 967 603 965 q 624 969 615 969 l 849 969 q 862 967 856 969 q 868 963 868 965 l 868 946 q 862 942 868 943 q 849 940 856 940 l 829 940 q 828 934 829 938 q 828 928 828 931 q 822 924 828 925 q 808 922 815 922 q 807 910 807 917 q 801 905 807 907 q 788 903 794 903 q 786 892 786 899 q 780 888 786 889 q 767 886 774 886 q 765 874 765 881 q 747 868 765 868 q 746 856 746 863 q 740 851 746 853 q 726 850 733 850 q 725 838 725 844 q 719 833 725 835 q 706 831 713 831 q 704 819 704 826 q 698 815 704 817 q 685 813 692 813 q 683 801 683 810 q 677 797 683 799 q 664 796 671 796 q 663 783 663 790 q 644 778 663 778 q 643 765 643 772 q 637 760 643 763 q 624 758 631 758 q 622 747 622 754 q 616 742 622 744 q 603 740 610 740 q 601 728 601 736 q 595 725 601 726 q 582 724 589 724 q 581 711 581 718 q 575 707 581 708 q 563 706 569 706 q 561 693 561 700 q 555 689 561 690 q 542 688 549 688 q 540 675 540 682 q 534 670 540 672 q 521 668 528 668 q 519 657 519 664 q 513 652 519 654 q 500 650 507 650 q 499 639 499 646 q 492 635 499 636 q 479 633 486 633 q 478 621 478 628 q 472 617 478 618 q 460 615 467 615 q 458 603 458 610 q 452 598 458 600 q 439 596 446 596 q 438 585 438 592 q 431 580 438 582 q 418 578 425 578 q 417 565 417 574 q 410 561 417 563 q 397 560 404 560 q 396 549 396 556 q 390 544 396 546 q 376 543 383 543 q 375 531 375 538 q 357 525 375 525 l 357 499 q 375 493 375 499 l 375 481 q 390 478 383 481 q 396 474 396 476 l 396 464 q 410 462 404 464 q 417 457 417 460 l 417 444 q 431 443 425 444 q 438 439 438 442 l 439 408 q 452 407 446 408 q 458 403 458 406 l 458 390 q 472 389 465 390 q 478 385 478 388 l 478 372 q 492 371 486 372 q 499 367 499 369 l 499 354 q 513 353 507 354 q 519 349 519 351 l 519 336 q 534 335 528 336 q 540 331 540 333 l 540 318 q 555 316 549 318 q 561 311 561 314 l 561 300 q 574 299 568 300 q 581 294 581 297 l 581 282 q 595 281 589 282 q 601 276 601 279 l 601 264 q 616 263 610 264 q 622 258 622 261 l 622 246 q 637 244 631 246 q 643 239 643 242 l 643 228 q 663 221 663 228 l 663 210 q 677 208 671 210 q 683 204 683 207 l 683 192 q 698 190 692 192 q 704 186 704 189 l 704 174 q 719 172 713 174 q 725 168 725 171 l 725 156 q 740 153 733 156 q 746 149 746 151 l 746 138 q 765 131 765 138 l 765 119 q 780 118 774 119 q 786 114 786 117 l 786 101 q 801 100 794 101 q 807 96 807 99 l 807 83 q 822 81 815 83 q 828 76 828 79 l 828 65 q 842 63 836 65 q 849 58 849 61 l 849 46 q 862 45 856 46 q 868 42 868 44 l 868 29 q 883 28 876 29 q 889 24 889 26 l 889 6 q 883 1 889 3 q 868 0 876 0 l 644 0 q 630 1 636 0 q 624 6 624 3 l 622 18 q 603 25 603 18 l 601 36 q 582 43 582 36 l 581 54 q 563 60 563 54 l 561 72 q 542 78 542 72 l 540 90 q 521 97 521 90 l 519 108 q 500 115 500 108 l 499 128 q 479 132 479 128 l 478 144 q 460 150 460 144 l 458 181 q 439 188 439 181 l 438 199 q 418 206 418 199 l 417 217 q 397 222 397 217 l 396 235 q 376 240 376 235 l 375 253 q 357 260 357 253 l 356 271 q 336 278 336 271 l 335 290 q 315 296 315 290 l 314 307 q 294 313 294 307 l 293 325 q 274 331 274 325 l 274 343 q 254 350 254 343 l 253 361 q 233 368 233 361 l 232 381 q 219 381 225 381 q 213 385 213 382 q 212 195 213 290 q 211 6 211 100 q 205 1 211 3 q 190 0 199 0 l 28 0 q 13 1 19 0 q 7 6 7 3 l 7 963 q 13 967 7 965 q 28 969 19 969 l 190 969 z "},"L":{"ha":944,"x_min":69,"x_max":828,"o":"m 253 969 q 267 967 261 969 q 274 963 274 965 l 274 138 l 807 138 q 822 135 815 138 q 828 131 828 133 l 828 6 q 822 1 828 3 q 807 0 815 0 l 89 0 q 76 1 82 0 q 69 6 69 3 l 69 963 q 76 967 69 965 q 89 969 82 969 l 253 969 z "},"M":{"ha":944,"x_min":49,"x_max":849,"o":"m 335 969 q 349 967 343 969 q 356 963 356 965 l 357 897 q 376 892 376 897 l 378 842 q 396 836 396 839 l 397 769 q 410 768 404 769 q 417 764 417 767 l 418 717 q 433 715 426 717 q 439 710 439 713 l 440 643 q 449 642 446 643 q 460 643 451 643 q 460 667 460 654 q 461 692 461 681 q 478 697 461 697 q 478 731 478 714 q 479 764 479 747 q 499 769 479 769 q 499 794 499 782 q 500 818 500 807 q 506 822 500 821 q 521 824 513 824 q 522 858 521 840 q 522 892 522 876 q 540 897 522 894 q 541 921 540 908 q 542 944 542 933 q 561 951 542 951 q 562 957 561 954 q 563 963 563 960 q 582 969 563 969 l 828 969 q 842 967 836 969 q 849 963 849 965 l 849 6 q 842 1 849 3 q 828 0 836 0 l 665 0 q 652 1 658 0 q 646 6 646 3 l 644 706 q 644 681 644 693 q 643 657 643 668 q 625 650 643 650 q 624 617 625 635 q 624 585 624 600 q 617 580 624 582 q 603 578 611 578 q 602 544 603 561 q 601 513 601 528 q 595 508 601 510 q 582 506 589 506 q 581 472 582 489 q 581 440 581 456 q 576 435 581 438 q 564 433 571 433 q 563 401 564 418 q 563 368 563 383 q 556 363 563 365 q 542 361 550 361 q 541 338 542 350 q 540 313 540 325 q 534 308 540 310 q 519 307 528 307 l 376 307 q 363 308 369 307 q 357 313 357 310 l 356 361 q 338 368 338 361 l 336 433 q 322 435 328 433 q 315 440 315 438 l 314 506 q 294 513 294 506 l 293 578 q 275 585 275 578 l 274 650 q 256 654 260 650 q 255 329 256 492 q 254 6 254 167 q 248 1 254 3 q 233 0 242 0 l 69 0 q 55 1 61 0 q 49 6 49 3 l 49 963 q 55 967 49 965 q 69 969 61 969 l 335 969 z "},"N":{"ha":944,"x_min":79,"x_max":817,"o":"m 282 969 q 297 967 290 969 q 303 963 303 965 l 303 951 q 317 949 311 951 q 324 944 324 947 l 325 897 q 338 896 332 897 q 344 892 344 894 l 346 861 q 359 859 353 861 q 365 854 365 857 l 367 824 q 379 822 374 824 q 385 818 385 821 l 386 789 q 399 787 393 789 q 406 782 406 785 l 407 751 q 420 750 414 751 q 426 746 426 749 l 428 717 q 441 715 435 717 q 447 710 447 713 l 449 679 q 462 678 456 679 q 468 674 468 676 l 468 643 q 481 642 475 643 q 488 638 488 640 l 489 589 q 502 588 496 589 q 508 583 508 586 l 510 554 q 523 552 517 554 q 529 547 529 550 l 531 517 q 544 515 538 517 q 550 511 550 514 l 551 481 q 569 474 569 481 l 571 444 q 584 443 578 444 q 590 439 590 442 l 592 408 q 605 407 599 408 q 611 403 611 406 l 613 372 q 626 371 619 372 q 632 367 632 369 q 633 664 632 515 q 633 963 633 813 q 640 967 633 965 q 654 969 646 969 l 796 969 q 810 967 804 969 q 817 963 817 965 l 817 6 q 810 1 817 3 q 796 0 804 0 l 633 0 q 619 1 625 0 q 613 6 613 3 l 611 18 q 592 25 592 18 l 590 54 q 571 60 571 54 l 569 90 q 551 97 551 90 l 550 128 q 531 132 531 128 l 529 163 q 510 168 510 163 l 508 199 q 489 206 489 199 l 488 235 q 468 240 468 235 l 468 290 q 449 296 449 290 l 447 325 q 428 331 428 325 l 426 361 q 407 368 407 361 l 406 397 q 386 403 386 397 l 385 433 q 367 440 367 433 l 365 471 q 346 475 346 471 l 344 506 q 325 513 325 506 l 324 560 q 304 565 304 560 l 303 596 q 283 603 283 596 l 282 633 q 269 635 275 633 q 264 638 264 636 q 263 322 264 479 q 263 6 263 164 q 256 1 263 3 q 242 0 250 0 l 99 0 q 79 6 79 0 l 79 963 q 99 969 79 969 l 282 969 z "},"O":{"ha":944,"x_min":28,"x_max":868,"o":"m 294 0 q 280 1 286 0 q 274 6 274 3 l 274 19 l 254 19 q 240 21 246 19 q 233 25 233 22 l 232 36 l 213 36 q 198 38 204 36 q 192 43 192 40 l 190 54 q 172 60 172 54 l 171 74 q 151 79 151 74 l 150 90 q 131 97 131 90 l 129 108 q 110 115 110 108 l 108 144 q 89 150 89 144 l 88 182 q 69 189 69 182 l 68 217 q 49 222 49 217 l 47 290 q 28 297 28 290 l 28 675 q 47 681 28 681 q 48 705 47 693 q 49 728 49 717 q 68 735 49 735 q 69 759 68 746 q 69 783 69 772 q 88 789 69 789 q 88 804 88 797 q 89 818 89 811 q 108 824 89 824 q 109 839 108 831 q 110 854 110 847 q 129 861 110 861 q 130 867 129 864 q 131 872 131 869 q 150 879 131 879 q 151 885 150 882 q 151 892 151 889 q 171 899 151 899 q 172 903 171 901 q 172 908 172 906 q 190 914 172 914 q 191 920 190 917 q 192 926 192 924 q 198 931 192 929 q 213 932 204 932 l 232 932 q 233 939 232 935 q 233 946 233 943 q 240 951 233 949 q 254 953 246 953 l 274 953 l 274 963 q 280 967 274 965 q 294 969 286 969 l 356 971 q 356 976 356 974 q 357 982 357 979 q 363 985 357 983 q 376 986 369 986 l 519 986 q 534 985 528 986 q 540 982 540 983 l 542 971 q 572 970 560 971 q 601 969 583 969 q 616 967 610 969 q 622 963 622 965 l 624 953 l 643 953 q 663 946 663 953 l 664 932 l 683 932 q 698 931 692 932 q 704 926 704 929 l 704 914 q 719 913 713 914 q 725 908 725 911 l 725 899 q 740 897 733 899 q 746 892 746 894 l 746 879 q 765 872 765 879 l 765 861 q 780 859 774 861 q 786 854 786 857 l 788 824 q 801 822 794 824 q 807 818 807 821 l 808 789 q 822 788 815 789 q 828 783 828 786 l 829 735 q 842 733 836 735 q 849 728 849 731 l 850 681 q 863 679 857 681 q 868 675 868 678 l 868 297 q 863 292 868 294 q 850 290 857 290 q 849 256 850 274 q 849 222 849 239 q 842 218 849 219 q 829 217 836 217 q 828 203 829 210 q 828 189 828 196 q 822 184 828 186 q 808 182 815 182 q 808 165 808 174 q 807 150 807 157 q 801 146 807 147 q 788 144 794 144 q 787 130 788 138 q 786 115 786 122 q 780 110 786 113 q 767 108 774 108 q 765 97 765 104 q 747 90 765 90 q 746 79 746 86 q 740 75 746 76 q 726 74 733 74 q 725 60 725 68 q 719 56 725 57 q 706 54 713 54 q 704 43 704 49 q 698 38 704 40 q 683 36 692 36 l 664 36 q 663 31 664 33 q 663 25 663 28 q 643 19 663 19 l 624 19 q 623 13 624 17 q 622 6 622 8 q 616 1 622 3 q 601 0 610 0 l 563 -1 q 562 -7 563 -4 q 561 -12 561 -10 q 555 -17 561 -15 q 540 -18 549 -18 l 357 -18 q 342 -17 349 -18 q 336 -12 336 -15 l 335 -1 l 294 0 m 336 150 l 335 156 q 325 156 331 156 q 315 157 319 157 l 336 150 m 315 168 l 314 174 q 304 174 310 174 q 294 175 299 175 l 315 168 m 582 796 q 592 795 586 796 q 601 794 597 794 l 581 800 l 581 796 l 582 796 m 603 779 q 613 778 607 779 q 622 778 618 778 l 601 783 l 601 779 l 603 779 m 563 813 l 581 813 l 561 818 l 561 813 l 563 813 m 294 189 l 293 193 q 283 194 289 193 q 274 194 278 194 l 294 189 m 233 313 l 233 318 l 232 318 q 222 319 228 318 q 213 319 217 319 l 233 313 m 254 242 l 254 247 l 253 247 q 243 248 249 247 q 233 249 238 249 l 254 242 m 664 669 q 674 669 668 669 q 683 668 679 668 l 663 675 l 663 669 l 664 669 m 644 725 q 654 724 649 725 q 663 724 660 724 l 643 728 l 643 725 l 644 725 m 274 206 l 274 210 q 264 210 269 210 q 254 211 258 211 l 274 206 m 624 758 l 643 758 l 622 764 l 622 758 l 624 758 m 601 175 l 582 174 l 581 174 l 581 168 l 601 175 m 336 818 l 315 813 l 335 813 l 336 813 l 336 818 m 315 800 l 294 794 l 314 796 l 315 796 l 315 800 m 294 783 l 274 778 l 293 779 l 294 779 l 294 783 m 683 319 l 664 318 l 663 318 l 663 313 l 683 319 m 274 764 l 254 758 l 274 758 l 274 764 m 254 728 l 233 724 l 253 725 l 254 725 l 254 728 m 663 249 l 644 247 l 643 247 l 643 242 l 663 249 m 643 211 l 624 210 l 622 210 l 622 206 l 643 211 m 601 189 l 622 194 l 603 193 l 601 193 l 601 189 m 233 675 l 213 668 l 232 669 l 233 669 l 233 675 m 561 150 l 581 157 l 563 156 l 561 156 l 561 150 m 397 121 l 499 121 q 499 127 499 125 q 500 132 500 129 q 506 136 500 135 q 521 138 513 138 l 540 138 q 541 144 540 140 q 542 149 542 147 q 561 156 542 156 q 562 162 561 158 q 563 168 563 165 q 581 174 563 174 q 581 180 581 176 q 582 188 582 183 q 601 193 582 193 q 602 199 601 196 q 603 204 603 201 q 622 210 603 210 q 623 224 622 217 q 624 240 624 232 q 643 247 624 247 q 644 280 643 264 q 644 311 644 296 q 663 318 644 318 l 663 669 q 644 676 644 669 l 643 725 q 624 729 624 725 l 622 758 q 603 765 603 758 l 601 779 q 582 785 582 779 l 581 796 q 563 801 563 796 l 561 813 q 542 819 542 813 l 540 832 l 521 832 q 506 834 513 832 q 500 839 500 836 l 499 849 l 397 849 q 397 844 397 846 q 396 839 396 842 q 390 834 396 836 q 375 832 383 832 l 357 832 q 356 826 357 829 q 356 819 356 822 q 349 815 356 817 q 336 813 343 813 q 335 801 335 810 q 328 797 335 799 q 315 796 322 796 q 314 785 314 792 q 308 781 314 782 q 294 779 301 779 q 293 765 293 774 q 287 760 293 763 q 274 758 281 758 l 274 729 q 267 726 274 728 q 254 725 261 725 q 253 700 254 713 q 253 676 253 688 q 247 672 253 674 q 233 669 240 669 l 233 318 q 247 316 240 318 q 253 311 253 314 l 254 247 q 267 245 261 247 q 274 240 274 243 l 274 210 q 287 208 281 210 q 293 204 293 207 l 293 193 q 308 192 301 193 q 314 188 314 190 l 314 174 q 328 172 322 174 q 335 168 335 171 l 335 156 q 349 153 343 156 q 356 149 356 151 l 357 138 l 375 138 q 396 132 394 138 l 397 121 z "},"P":{"ha":944,"x_min":58,"x_max":838,"o":"m 569 969 q 584 967 578 969 q 590 963 590 965 l 592 953 q 622 952 610 953 q 653 951 635 951 q 666 949 660 951 q 672 944 672 947 l 674 932 l 693 932 q 708 931 701 932 q 714 926 714 929 l 714 914 q 728 913 722 914 q 735 908 735 911 l 736 897 q 751 896 744 897 q 757 892 757 894 l 757 879 q 775 872 775 879 l 775 861 q 790 859 783 861 q 796 854 796 857 l 797 824 q 812 822 806 824 q 818 818 818 821 l 819 769 q 838 764 838 769 l 838 603 q 819 596 838 596 q 819 572 819 585 q 818 549 818 560 q 812 544 818 546 q 797 543 806 543 q 797 537 797 540 q 796 531 796 533 q 790 526 796 528 q 776 525 783 525 q 776 509 776 517 q 775 494 775 501 q 770 490 775 492 q 758 488 765 488 q 757 475 757 483 q 751 472 757 472 q 736 471 744 471 q 735 465 736 468 q 735 458 735 461 q 728 454 735 456 q 714 453 722 453 l 696 453 q 695 447 696 450 q 694 440 694 443 q 688 435 694 438 q 674 433 682 433 l 654 433 q 653 428 654 431 q 653 422 653 425 q 647 417 653 419 q 632 415 640 415 l 572 414 q 572 408 572 411 q 571 403 571 406 q 551 397 571 397 l 265 396 q 265 201 265 299 q 264 6 264 104 q 258 1 264 3 q 243 0 251 0 l 79 0 q 65 1 71 0 q 58 6 58 3 l 58 963 q 65 967 58 965 q 79 969 71 969 l 569 969 m 632 590 l 614 589 l 611 589 l 611 585 l 632 590 m 633 740 q 643 740 638 740 q 653 739 649 739 l 632 746 l 632 740 l 633 740 m 614 778 q 623 777 618 778 q 632 776 628 776 l 611 782 l 611 778 l 614 778 m 653 626 l 633 626 l 632 626 l 632 621 l 653 626 m 265 536 l 508 536 q 509 542 508 539 q 510 547 510 544 q 516 552 510 550 q 531 554 522 554 l 569 556 q 570 560 569 557 q 571 565 571 563 q 577 569 571 568 q 592 571 583 571 q 592 577 592 574 q 593 583 593 581 q 611 589 593 586 q 612 604 611 596 q 613 619 613 613 q 632 626 613 626 l 632 740 q 613 747 613 740 l 611 778 q 593 783 593 778 l 592 796 q 577 797 583 796 q 571 801 571 799 l 569 813 l 553 813 q 538 815 544 813 q 532 819 532 817 l 531 831 l 265 831 l 265 536 z "},"Q":{"ha":944,"x_min":28,"x_max":868,"o":"m 601 -19 q 582 -14 582 -19 l 581 -1 l 563 -1 q 562 -7 563 -4 q 561 -14 561 -10 q 555 -18 561 -17 q 540 -19 549 -19 l 357 -19 q 342 -18 349 -19 q 336 -14 336 -17 l 335 -1 q 315 -1 324 -1 q 294 0 306 0 q 280 1 286 0 q 274 6 274 3 l 274 18 l 254 18 q 240 20 246 18 q 233 25 233 22 l 232 36 l 213 36 q 198 38 204 36 q 192 42 192 39 l 190 54 q 172 60 172 54 l 171 72 q 151 78 151 72 l 150 89 q 131 96 131 89 l 129 108 q 110 115 110 108 l 108 143 q 89 149 89 143 l 88 181 q 69 188 69 181 l 68 217 q 49 222 49 217 l 47 290 q 28 296 28 290 l 28 674 q 47 679 28 679 q 48 704 47 692 q 49 728 49 717 q 68 733 49 733 q 69 758 68 744 q 69 782 69 771 q 88 789 69 789 q 88 803 88 796 q 89 818 89 811 q 108 824 89 824 q 109 839 108 831 q 110 854 110 847 q 129 861 110 861 q 130 867 129 864 q 131 872 131 869 q 150 879 131 879 q 151 885 150 882 q 151 892 151 889 q 171 897 151 897 q 172 903 171 900 q 172 908 172 906 q 190 914 172 914 q 191 920 190 917 q 192 926 192 924 q 198 931 192 929 q 213 932 204 932 l 232 932 q 233 939 232 936 q 233 944 233 942 q 240 949 233 947 q 254 951 246 951 l 274 951 l 274 963 q 280 967 274 965 q 294 969 286 969 l 356 969 q 356 975 356 972 q 357 982 357 978 q 363 985 357 983 q 376 986 369 986 l 519 986 q 534 985 528 986 q 540 982 540 983 l 542 969 l 601 969 q 616 967 610 969 q 622 963 622 965 l 624 951 l 643 951 q 663 944 663 951 l 664 932 l 683 932 q 698 931 692 932 q 704 926 704 929 l 704 914 q 719 913 713 914 q 725 908 725 911 l 725 897 q 740 896 733 897 q 746 892 746 894 l 746 879 q 765 872 765 879 l 765 861 q 780 859 774 861 q 786 854 786 857 l 788 824 q 801 822 794 824 q 807 818 807 821 l 808 789 q 822 787 815 789 q 828 782 828 785 l 829 733 q 842 732 836 733 q 849 728 849 731 l 850 679 q 863 678 857 679 q 868 674 868 676 l 868 296 q 863 292 868 293 q 850 290 857 290 q 849 256 850 274 q 849 222 849 238 q 842 218 849 219 q 829 217 836 217 q 828 202 829 210 q 828 188 828 194 q 822 183 828 185 q 808 181 815 181 q 808 164 808 172 q 807 149 807 156 q 801 144 807 146 q 788 143 794 143 q 787 129 788 136 q 786 115 786 122 q 780 110 786 113 q 767 108 774 108 q 765 102 765 106 q 765 96 765 99 q 747 89 765 89 l 747 83 q 765 76 765 83 l 765 65 q 780 63 774 65 q 786 58 786 61 l 788 29 q 801 28 794 29 q 807 24 807 26 l 807 11 q 822 10 815 11 q 828 6 828 8 l 828 -7 q 842 -9 836 -7 q 849 -14 849 -11 l 849 -31 q 842 -35 849 -33 q 828 -36 836 -36 l 624 -36 q 609 -35 615 -36 q 603 -31 603 -33 l 601 -19 m 397 217 q 407 216 401 217 q 417 215 413 215 l 396 221 l 396 217 l 397 217 m 294 188 l 293 192 q 283 192 289 192 q 274 193 278 193 l 294 188 m 603 240 l 601 246 q 592 247 597 246 q 582 247 586 247 l 603 240 m 563 813 l 581 813 l 561 818 l 561 813 l 563 813 m 603 778 q 613 777 607 778 q 622 776 618 776 l 601 782 l 601 778 l 603 778 m 336 290 q 346 290 340 290 q 356 289 351 289 l 335 294 l 335 290 l 336 290 m 357 271 q 367 270 361 271 q 375 269 372 269 l 356 276 l 356 271 l 357 271 m 563 296 l 561 300 l 542 300 l 563 296 m 315 168 l 314 174 q 304 174 310 174 q 294 175 299 175 l 315 168 m 254 240 l 254 246 l 253 246 q 243 247 249 246 q 233 247 238 247 l 254 240 m 664 668 q 674 667 668 668 q 683 667 679 667 l 663 674 l 663 668 l 664 668 m 479 128 q 489 127 483 128 q 499 126 494 126 l 478 131 l 478 128 l 479 128 m 644 724 q 654 723 649 724 q 663 722 660 722 l 643 728 l 643 724 l 644 724 m 439 181 q 449 180 443 181 q 458 179 454 179 l 438 186 l 438 181 l 439 181 m 624 758 l 643 758 l 622 764 l 622 758 l 624 758 m 336 818 l 315 813 l 335 813 l 336 813 l 336 818 m 294 782 l 274 776 l 293 778 l 294 778 l 294 782 m 663 247 l 644 246 l 643 246 l 643 240 l 663 247 m 274 764 l 254 758 l 274 758 l 274 764 m 254 728 l 233 722 l 253 724 l 254 724 l 254 728 m 233 674 l 213 667 l 232 668 l 233 668 l 233 674 m 582 794 l 601 794 l 581 800 l 581 794 l 582 794 m 315 156 l 336 149 l 335 156 l 315 156 m 460 143 l 478 143 l 458 149 l 458 143 l 460 143 m 418 199 l 438 199 l 417 204 l 417 199 l 418 199 m 294 794 l 314 794 q 315 797 314 796 q 315 800 315 799 l 294 794 m 376 251 l 396 251 l 375 258 l 375 251 l 376 251 m 563 264 l 582 258 l 582 264 l 581 264 l 563 264 m 213 318 l 233 311 l 233 318 l 232 318 l 213 318 m 683 318 l 664 318 l 663 318 l 663 311 l 683 318 m 254 210 l 274 204 l 274 210 l 254 210 m 622 204 l 633 207 l 644 204 l 643 221 q 637 226 643 224 q 624 228 631 228 q 622 225 624 226 l 622 228 q 613 228 618 228 q 603 229 607 229 l 622 222 l 622 204 m 397 121 l 478 121 l 478 128 q 460 132 460 128 l 458 143 q 439 149 439 143 l 438 181 q 418 188 418 181 l 417 199 q 397 204 397 199 l 396 217 q 376 222 376 217 l 375 251 q 357 258 357 251 l 356 271 q 336 278 336 271 l 335 290 q 315 296 315 290 l 315 311 q 322 316 315 314 q 336 318 328 318 l 540 318 q 555 316 549 318 q 561 311 561 314 l 561 300 q 574 299 568 300 q 581 294 581 297 l 582 264 q 595 263 589 264 q 601 258 601 261 l 601 246 q 616 244 610 246 q 622 239 622 242 l 622 228 l 624 228 l 624 239 q 643 246 624 246 q 644 279 643 263 q 644 311 644 296 q 663 318 644 318 l 663 668 q 644 675 644 668 l 643 724 q 624 728 624 724 l 622 758 q 603 765 603 758 l 601 778 q 582 783 582 778 l 581 794 q 563 800 563 794 l 561 813 q 542 819 542 813 l 540 831 l 521 831 q 506 833 513 831 q 500 838 500 835 l 499 849 l 397 849 q 397 843 397 846 q 396 838 396 840 q 390 833 396 835 q 375 831 383 831 l 357 831 q 356 824 357 828 q 356 819 356 821 q 349 815 356 817 q 336 813 343 813 q 335 800 335 810 q 328 796 335 797 q 314 794 322 794 l 314 783 q 308 779 314 781 q 294 778 301 778 q 293 765 293 772 q 287 760 293 763 q 274 758 281 758 l 274 728 q 267 725 274 726 q 254 724 261 724 q 253 699 254 713 q 253 675 253 686 q 247 670 253 672 q 233 668 240 668 l 233 318 q 247 316 240 318 q 253 311 253 314 l 254 246 q 267 244 261 246 q 274 239 274 242 l 274 210 q 287 208 281 210 q 293 204 293 207 l 293 192 q 308 190 301 192 q 314 186 314 189 l 314 174 q 328 172 322 174 q 335 168 335 171 l 335 156 q 349 153 343 156 q 356 149 356 151 l 357 138 l 375 138 q 396 131 393 138 l 397 121 z "},"R":{"ha":944,"x_min":58,"x_max":838,"o":"m 508 969 q 523 967 517 969 q 529 963 529 965 l 531 953 q 560 952 549 953 q 590 951 572 951 q 605 949 599 951 q 611 944 611 947 l 611 932 l 632 932 q 647 931 640 932 q 653 926 653 929 l 653 914 q 666 913 660 914 q 672 908 672 911 l 672 897 q 687 896 681 897 q 693 892 693 894 l 693 879 q 708 877 701 879 q 714 872 714 875 l 714 861 q 728 859 722 861 q 735 854 735 857 l 735 824 q 749 822 743 824 q 756 818 756 821 l 757 769 q 769 768 764 769 q 775 764 775 767 l 775 621 q 769 617 775 618 q 757 615 764 615 q 756 581 757 599 q 756 549 756 564 q 749 544 756 546 q 735 543 743 543 l 735 531 q 728 526 735 528 q 715 525 722 525 q 715 509 715 517 q 714 494 714 501 q 708 490 714 492 q 694 488 701 488 q 693 475 693 483 q 687 472 693 472 q 672 471 681 471 l 654 471 q 653 465 654 468 q 653 458 653 461 q 647 454 653 456 q 632 453 640 453 l 611 451 l 611 440 q 605 435 611 438 q 590 433 599 433 l 571 433 l 571 408 q 584 407 578 408 q 590 403 590 406 l 592 372 q 605 371 599 372 q 611 367 611 369 l 611 336 q 626 335 619 336 q 632 331 632 333 l 632 318 q 647 316 640 318 q 653 311 653 314 l 654 282 q 667 281 661 282 q 672 276 672 279 l 672 246 q 687 244 681 246 q 693 239 693 242 l 693 228 q 708 226 701 228 q 714 221 714 224 l 715 192 q 728 190 722 192 q 735 186 735 189 l 735 156 q 749 153 743 156 q 756 149 756 151 l 756 138 q 769 135 763 138 q 775 131 775 133 l 776 101 q 790 100 783 101 q 796 96 796 99 l 796 65 q 810 63 804 65 q 817 58 817 61 l 818 29 q 831 28 825 29 q 838 24 838 26 l 838 6 q 831 1 838 3 q 817 0 825 0 l 633 0 q 619 1 625 0 q 613 6 613 3 l 611 18 q 592 25 592 18 l 590 54 q 576 56 582 54 q 569 60 569 57 l 569 90 q 551 97 551 90 l 550 128 q 531 132 531 128 l 529 144 q 515 146 521 144 q 508 150 508 147 l 508 181 q 489 188 489 181 l 488 217 q 468 222 468 217 l 468 253 q 453 255 460 253 q 447 260 447 257 l 447 271 q 428 278 428 271 l 426 307 q 407 313 407 307 l 406 343 q 391 345 397 343 q 385 350 385 347 l 385 381 q 367 385 367 381 l 365 396 l 264 396 q 263 201 264 299 q 263 6 263 104 q 256 1 263 3 q 242 0 250 0 l 79 0 q 65 1 71 0 q 58 6 58 3 l 58 963 q 65 967 58 965 q 79 969 71 969 l 508 969 m 551 778 q 561 777 556 778 q 569 776 567 776 l 550 782 l 550 778 l 551 778 m 571 758 l 590 758 l 569 764 l 569 758 l 571 758 m 590 626 l 571 626 l 569 626 l 569 621 l 590 626 m 569 590 l 551 589 l 550 589 l 550 585 l 569 590 m 264 536 l 447 536 l 447 547 q 453 552 447 550 q 468 554 460 554 l 508 556 l 508 565 q 515 569 508 568 q 529 571 521 571 q 530 577 529 574 q 531 583 531 581 q 550 589 531 589 q 551 604 550 596 q 551 619 551 613 q 569 626 551 626 l 569 758 q 551 765 551 758 l 550 778 q 531 783 531 778 l 529 796 q 515 797 521 796 q 508 801 508 799 l 508 813 l 489 813 q 474 815 481 813 q 468 819 468 817 l 468 831 l 264 831 l 264 536 z "},"S":{"ha":944,"x_min":79,"x_max":817,"o":"m 264 0 q 249 1 256 0 q 243 6 243 3 l 242 19 l 222 19 q 208 21 214 19 q 201 25 201 22 l 200 36 q 181 43 181 36 l 179 54 l 161 54 q 147 56 153 54 q 140 60 140 57 l 139 90 q 119 97 119 90 l 118 108 q 99 115 99 108 l 97 163 q 79 168 79 163 l 79 258 q 99 264 79 264 l 263 264 q 282 258 282 264 l 283 228 q 297 226 290 228 q 303 221 303 224 l 304 174 q 317 172 311 174 q 324 168 324 171 l 324 156 q 338 153 332 156 q 344 149 344 151 l 346 138 l 365 138 q 378 136 372 138 q 385 132 385 135 l 386 121 l 508 121 q 509 127 508 125 q 510 132 510 129 q 516 136 510 135 q 531 138 522 138 l 550 138 q 551 144 550 140 q 551 149 551 147 q 569 156 551 156 q 570 162 569 158 q 571 168 571 165 q 590 174 571 174 q 591 180 590 176 q 592 188 592 183 q 611 193 592 193 l 611 290 q 592 297 592 290 l 590 325 q 571 331 571 325 l 569 344 q 551 351 551 344 l 550 361 q 531 368 531 361 l 529 381 l 510 381 q 495 381 501 381 q 489 385 489 382 l 488 399 l 468 399 q 455 400 461 399 q 449 404 449 401 l 447 415 l 428 415 q 413 417 419 415 q 407 422 407 419 l 406 433 l 386 433 q 367 440 367 433 l 365 453 l 346 453 q 331 455 338 453 q 325 460 325 457 l 324 471 l 304 471 q 290 472 296 471 q 283 475 283 472 l 282 488 l 264 488 q 249 490 256 488 q 243 494 243 492 l 242 507 q 222 514 222 507 l 221 525 q 201 531 201 525 l 200 543 q 181 549 181 543 l 179 561 q 161 567 161 561 l 160 578 q 140 585 140 578 l 139 596 q 119 603 119 596 l 118 650 q 99 657 99 650 l 99 783 q 118 789 99 789 q 119 813 118 801 q 119 838 119 825 q 139 843 119 843 q 140 858 139 850 q 140 872 140 865 q 160 879 140 879 q 160 885 160 882 q 161 892 161 889 q 179 899 161 899 q 180 903 179 901 q 181 908 181 906 q 200 914 181 914 q 201 920 200 917 q 201 926 201 924 q 208 931 201 929 q 222 932 214 932 l 242 932 q 242 939 242 935 q 243 946 243 943 q 249 951 243 949 q 264 953 256 953 l 282 953 q 283 958 282 956 q 283 963 283 961 q 290 967 283 965 q 304 969 296 969 l 344 971 q 345 976 344 974 q 346 982 346 979 q 352 985 346 983 q 367 986 358 986 l 550 986 q 569 982 569 986 l 571 971 q 591 970 582 971 q 611 969 600 969 q 626 967 619 969 q 632 963 632 965 l 633 953 l 653 953 q 666 951 660 953 q 672 946 672 949 l 674 932 l 693 932 q 708 931 701 932 q 714 926 714 929 l 714 914 q 728 913 722 914 q 735 908 735 911 l 735 899 q 749 897 743 899 q 756 892 756 894 l 756 879 q 769 877 763 879 q 775 872 775 875 l 776 843 q 790 842 783 843 q 796 838 796 840 l 796 729 q 790 726 796 728 q 775 725 783 725 l 613 725 q 598 726 604 725 q 592 729 592 728 l 590 796 q 571 801 571 796 l 569 813 q 551 819 551 813 l 550 832 l 531 832 q 516 834 522 832 q 510 839 510 836 l 508 849 l 386 849 q 385 844 386 846 q 385 839 385 842 q 378 834 385 836 q 365 832 372 832 l 346 832 q 345 817 346 825 q 344 801 344 808 q 338 797 344 799 q 325 796 332 796 q 324 785 324 792 q 317 781 324 782 q 304 779 311 779 l 304 697 q 317 696 311 697 q 324 692 324 694 l 325 661 q 338 660 332 661 q 344 656 344 658 l 344 643 q 359 642 353 643 q 365 638 365 640 l 367 626 l 385 626 q 399 625 393 626 q 406 621 406 624 l 407 607 l 426 607 q 441 606 435 607 q 447 601 447 604 l 449 589 l 468 589 q 481 588 475 589 q 488 583 488 586 l 489 572 l 508 572 q 523 570 517 572 q 529 565 529 568 l 531 554 l 550 554 q 569 547 569 554 l 571 535 l 590 535 q 605 533 599 535 q 611 529 611 532 l 613 518 l 632 518 q 647 517 640 518 q 653 513 653 515 l 653 499 q 666 497 660 499 q 672 493 672 496 l 672 481 q 687 478 681 481 q 693 474 693 476 l 694 464 l 714 464 q 728 463 722 464 q 735 458 735 461 l 736 426 q 749 425 743 426 q 756 421 756 424 l 756 410 q 769 408 763 410 q 775 403 775 406 l 776 372 q 790 371 783 372 q 796 367 796 369 l 797 318 q 810 316 804 318 q 817 311 817 314 l 817 189 q 810 184 817 186 q 797 182 804 182 q 797 158 797 171 q 796 133 796 144 q 790 129 796 131 q 776 128 783 128 q 776 112 776 119 q 775 97 775 104 q 769 92 775 94 q 757 90 764 90 q 756 79 756 86 q 749 75 756 76 q 736 74 743 74 q 735 60 735 68 q 728 56 735 57 q 715 54 722 54 q 714 43 714 49 q 708 38 714 40 q 693 36 701 36 l 674 36 q 673 31 674 33 q 672 25 672 28 q 666 21 672 22 q 653 19 660 19 l 633 19 q 633 13 633 17 q 632 6 632 8 q 626 1 632 3 q 611 0 619 0 l 571 -1 q 570 -7 571 -4 q 569 -12 569 -10 q 550 -18 569 -18 l 325 -18 q 310 -17 317 -18 q 304 -12 304 -15 l 303 -1 l 264 0 z "},"T":{"ha":944,"x_min":58,"x_max":838,"o":"m 79 831 q 65 833 71 831 q 58 838 58 835 l 58 963 q 65 967 58 965 q 79 969 71 969 l 817 969 q 831 967 825 969 q 838 963 838 965 l 838 838 q 831 833 838 835 q 817 831 825 831 l 551 831 q 551 418 551 624 q 550 6 550 213 q 544 1 550 3 q 529 0 538 0 l 367 0 q 352 1 358 0 q 346 6 346 3 l 344 831 l 79 831 z "},"U":{"ha":944,"x_min":58,"x_max":838,"o":"m 264 0 q 249 1 256 0 q 243 6 243 3 l 242 19 l 222 19 q 208 21 214 19 q 201 25 201 22 l 200 36 l 182 36 q 169 38 175 36 q 163 43 163 40 l 161 54 q 147 56 153 54 q 140 60 140 57 l 139 74 q 119 79 119 74 l 118 108 q 100 115 100 108 l 99 144 q 79 150 79 144 l 78 217 q 58 222 58 217 l 58 963 q 65 967 58 965 q 79 969 71 969 l 243 969 q 258 967 251 969 q 264 963 264 965 l 265 228 q 277 225 272 226 q 282 221 282 224 l 283 193 q 297 192 290 193 q 303 188 303 190 l 304 156 q 319 153 313 156 q 325 149 325 151 l 326 138 l 344 138 q 359 136 353 138 q 365 132 365 135 l 367 121 l 531 121 q 531 127 531 125 q 532 132 532 129 q 538 136 532 135 q 553 138 544 138 l 569 139 q 570 144 569 142 q 571 149 571 147 q 577 153 571 151 q 592 156 583 156 q 592 172 592 163 q 593 188 593 181 q 611 193 593 190 q 612 207 611 200 q 613 221 613 214 q 632 228 613 228 q 633 594 632 411 q 633 963 633 778 q 640 967 633 965 q 654 969 646 969 l 817 969 q 831 967 825 969 q 838 963 838 965 l 838 222 q 819 217 838 217 q 819 183 819 201 q 818 150 818 165 q 812 146 818 147 q 797 144 806 144 q 797 130 797 138 q 796 115 796 122 q 790 110 796 113 q 776 108 783 108 q 776 94 776 101 q 775 79 775 86 q 770 75 775 76 q 758 74 765 74 q 757 60 757 68 q 751 56 757 57 q 736 54 744 54 q 735 48 736 51 q 735 43 735 44 q 728 38 735 40 q 714 36 722 36 l 696 36 q 695 31 696 33 q 694 25 694 28 q 688 21 694 22 q 674 19 682 19 l 654 18 q 653 13 654 15 q 653 6 653 10 q 647 1 653 3 q 632 0 640 0 l 592 -1 q 591 -7 592 -4 q 590 -12 590 -10 q 584 -17 590 -15 q 569 -18 578 -18 l 325 -18 q 310 -17 317 -18 q 304 -12 304 -15 l 303 -1 l 264 0 z "},"V":{"ha":944,"x_min":17,"x_max":878,"o":"m 303 54 q 283 60 283 54 l 282 128 q 264 132 264 128 l 263 199 q 243 206 243 199 l 242 253 q 222 260 222 253 l 221 325 q 201 331 201 325 l 200 397 q 181 403 181 397 l 179 453 q 161 458 161 453 l 160 525 q 140 531 140 525 l 139 596 q 119 603 119 596 l 118 650 q 99 657 99 650 l 97 724 q 79 728 79 724 l 78 796 q 58 801 58 796 l 57 868 q 38 874 38 868 l 36 922 q 17 928 17 922 l 17 963 q 23 967 17 965 q 38 969 29 969 l 200 969 q 215 967 208 969 q 221 963 221 965 l 222 932 q 235 931 229 932 q 242 926 242 929 l 243 861 q 256 859 250 861 q 263 854 263 857 l 264 807 q 282 800 282 807 l 283 733 q 297 732 290 733 q 303 728 303 731 l 304 661 q 317 660 311 661 q 324 656 324 658 l 325 607 q 338 606 332 607 q 344 601 344 604 l 346 535 q 359 533 353 535 q 365 529 365 532 l 367 464 q 379 462 374 464 q 385 457 385 460 l 386 390 q 399 389 393 390 q 406 385 406 388 l 407 336 q 420 335 414 336 q 426 331 426 333 l 428 264 q 441 263 435 264 q 447 258 447 261 l 449 208 l 449 239 q 468 246 449 246 l 468 311 q 488 318 468 318 q 488 342 488 329 q 489 367 489 356 q 508 372 489 372 q 509 405 508 388 q 510 439 510 422 q 529 444 510 444 q 530 478 529 461 q 531 511 531 494 q 550 517 531 517 q 551 550 550 533 q 551 583 551 567 q 569 589 551 589 q 570 623 569 606 q 571 656 571 640 q 590 661 571 661 q 591 695 590 678 q 592 728 592 713 q 611 733 592 733 q 612 758 611 744 q 613 782 613 771 q 632 789 613 789 q 633 821 632 804 q 633 854 633 838 q 653 861 633 861 q 653 893 653 876 q 654 926 654 910 q 672 932 654 932 q 673 947 672 939 q 674 963 674 956 q 680 967 674 965 q 694 969 686 969 l 857 969 q 872 967 865 969 q 878 963 878 965 l 878 928 q 872 924 878 925 q 858 922 865 922 q 858 897 858 910 q 857 874 857 885 q 839 868 857 868 q 838 834 839 851 q 838 801 838 817 q 831 797 838 799 q 818 796 825 796 q 817 761 818 779 q 817 728 817 743 q 810 725 817 726 q 797 724 804 724 q 797 699 797 713 q 796 675 796 686 q 790 670 796 672 q 776 668 783 668 q 776 635 776 653 q 775 603 775 618 q 769 598 775 600 q 757 596 764 596 q 756 563 757 581 q 756 531 756 546 q 749 526 756 528 q 736 525 743 525 q 735 499 736 513 q 735 475 735 486 q 728 472 735 472 q 715 471 722 471 q 715 436 715 454 q 714 403 714 418 q 708 399 714 400 q 694 397 701 397 q 694 364 694 382 q 693 331 693 346 q 687 326 693 328 q 674 325 681 325 q 673 301 674 314 q 672 278 672 289 q 667 273 672 275 q 654 271 661 271 q 653 238 654 256 q 653 206 653 221 q 647 201 653 203 q 633 199 640 199 q 633 174 633 188 q 632 150 632 161 q 626 146 632 147 q 613 144 619 144 q 612 111 613 129 q 611 78 611 93 q 605 74 611 75 q 592 72 599 72 q 591 38 592 56 q 590 6 590 21 q 584 1 590 3 q 569 0 578 0 l 325 0 q 310 1 317 0 q 304 6 304 3 l 303 54 l 303 54 z "},"W":{"ha":944,"x_min":38,"x_max":857,"o":"m 160 18 q 140 25 140 18 l 139 128 q 119 132 119 128 l 118 235 q 99 240 99 235 l 97 343 q 79 350 79 343 l 78 453 q 58 458 58 453 l 57 650 q 38 657 38 650 l 38 963 q 44 967 38 965 q 58 969 50 969 l 221 969 q 235 967 229 969 q 242 963 242 965 l 243 626 q 256 624 250 626 q 263 619 263 622 l 264 408 q 282 403 282 408 l 282 325 q 283 346 283 336 q 283 367 283 356 q 303 372 283 372 q 303 405 303 388 q 304 439 304 422 q 324 444 304 444 q 324 469 324 457 q 325 493 325 481 q 344 499 325 499 q 345 533 344 515 q 346 565 346 550 q 365 571 346 571 q 366 586 365 578 q 367 601 367 594 q 386 607 367 607 l 508 607 q 523 606 517 607 q 529 601 529 604 l 531 571 q 544 569 538 571 q 550 565 550 568 l 551 499 q 569 493 569 499 l 571 444 q 584 443 578 444 q 590 439 590 442 l 592 372 q 605 371 599 372 q 611 367 611 369 l 611 321 q 612 363 611 343 q 613 403 613 383 q 632 408 613 408 q 633 514 632 461 q 633 619 633 567 q 653 626 633 626 q 653 794 653 710 q 654 963 654 878 q 674 969 654 969 l 838 969 q 857 963 857 969 l 857 675 q 839 668 857 668 q 838 563 839 615 q 838 458 838 510 q 831 454 838 456 q 818 453 825 453 q 817 400 818 426 q 817 350 817 374 q 810 345 817 347 q 797 343 804 343 q 797 292 797 318 q 796 240 796 265 q 790 236 796 238 q 776 235 783 235 q 776 183 776 210 q 775 132 775 157 q 769 128 775 129 q 757 128 764 128 q 756 75 757 101 q 756 25 756 49 q 749 20 756 22 q 736 18 743 18 q 735 6 735 14 q 728 1 735 3 q 714 0 722 0 l 551 0 q 537 1 543 0 q 531 6 531 3 l 529 18 q 510 25 510 18 l 508 90 q 489 97 489 90 l 488 163 q 468 168 468 163 l 468 235 q 449 240 449 235 l 447 285 l 447 240 q 441 236 447 238 q 428 235 435 235 q 427 201 428 219 q 426 168 426 183 q 420 164 426 165 q 407 163 414 163 q 406 129 407 146 q 406 97 406 113 q 399 92 406 94 q 386 90 393 90 q 385 57 386 74 q 385 25 385 40 q 379 20 385 22 q 367 18 374 18 q 365 6 365 14 q 359 1 365 3 q 344 0 353 0 l 181 0 q 167 1 174 0 q 161 6 161 3 l 160 18 l 160 18 z "},"X":{"ha":944,"x_min":38,"x_max":857,"o":"m 57 29 q 58 44 57 36 q 58 58 58 51 q 78 65 58 65 q 78 81 78 72 q 79 96 79 89 q 97 101 79 101 q 98 116 97 108 q 99 131 99 124 q 118 138 99 138 q 119 143 118 140 q 119 149 119 146 q 139 156 119 156 q 140 171 139 163 q 140 186 140 179 q 160 192 140 192 q 160 206 160 199 q 161 221 161 214 q 179 228 161 228 q 180 243 179 235 q 181 258 181 251 q 200 264 181 264 q 201 279 200 271 q 201 294 201 288 q 221 300 201 300 q 222 315 221 307 q 222 331 222 324 q 242 336 222 336 q 242 342 242 339 q 243 349 243 346 q 263 354 243 354 q 263 369 263 361 q 264 385 264 378 q 282 390 264 390 q 283 406 282 397 q 283 421 283 414 q 303 426 283 426 q 303 442 303 433 q 304 457 304 450 q 324 464 304 464 q 324 478 324 471 q 325 493 325 486 q 344 499 325 499 l 344 506 q 325 513 325 506 l 324 543 q 304 549 304 543 l 303 560 q 283 565 283 560 l 282 596 q 264 603 264 596 l 263 633 q 243 639 243 633 l 242 650 q 222 657 222 650 l 221 688 q 201 693 201 688 l 200 724 q 181 728 181 724 l 179 758 q 161 765 161 758 l 160 778 q 140 783 140 778 l 139 813 q 119 819 119 813 l 118 850 q 99 856 99 850 l 97 886 q 79 892 79 886 l 78 903 q 58 910 58 903 l 57 940 q 38 946 38 940 l 38 963 q 44 967 38 965 q 58 969 50 969 l 242 969 q 256 967 250 969 q 263 963 263 965 l 263 951 q 282 944 282 951 l 282 932 q 297 931 290 932 q 303 926 303 929 l 304 897 q 317 896 311 897 q 324 892 324 894 l 325 861 q 338 859 332 861 q 344 854 344 857 l 346 824 q 359 822 353 824 q 365 818 365 821 l 365 807 q 378 805 372 807 q 385 800 385 803 l 386 769 q 399 768 393 769 q 406 764 406 767 l 407 733 q 420 732 414 733 q 426 728 426 731 l 428 697 q 441 696 435 697 q 447 692 447 694 l 447 679 q 462 678 456 679 q 468 674 468 676 l 468 667 l 468 692 q 488 697 468 697 q 488 713 488 706 q 489 728 489 721 q 508 733 489 733 q 509 749 508 740 q 510 764 510 757 q 529 769 510 769 q 530 785 529 776 q 531 800 531 793 q 550 807 531 807 q 551 822 550 814 q 551 836 551 829 q 569 842 551 842 q 570 857 569 849 q 571 872 571 865 q 590 879 571 879 q 591 894 590 886 q 592 908 592 901 q 611 914 592 914 q 612 929 611 921 q 613 944 613 938 q 632 951 613 951 q 633 957 632 954 q 633 963 633 960 q 640 967 633 965 q 654 969 646 969 l 838 969 q 857 963 857 969 l 857 946 q 839 940 857 940 q 838 925 839 933 q 838 910 838 917 q 831 905 838 907 q 818 903 825 903 q 817 888 818 896 q 817 874 817 881 q 810 869 817 871 q 797 868 804 868 q 796 856 796 863 q 790 851 796 853 q 776 850 783 850 q 776 835 776 843 q 775 819 775 826 q 769 815 775 817 q 757 813 764 813 q 756 798 757 806 q 756 783 756 790 q 749 779 756 781 q 736 778 743 778 q 735 763 736 771 q 735 747 735 754 q 728 742 735 744 q 715 740 722 740 q 715 726 715 733 q 714 711 714 718 q 708 707 714 708 q 694 706 701 706 q 694 690 694 699 q 693 675 693 682 q 687 670 693 672 q 674 668 681 668 q 672 657 672 664 q 667 652 672 654 q 654 650 661 650 q 653 635 654 643 q 653 621 653 628 q 647 617 653 618 q 633 615 640 615 q 633 600 633 608 q 632 585 632 592 q 626 580 632 582 q 613 578 619 578 q 612 563 613 571 q 611 549 611 554 q 605 544 611 546 q 592 543 599 543 q 591 528 592 536 q 590 513 590 519 q 584 508 590 510 q 571 506 578 506 l 571 481 q 584 478 578 481 q 590 474 590 476 l 592 444 q 605 443 599 444 q 611 439 611 442 l 613 408 q 626 407 619 408 q 632 403 632 406 l 633 372 q 647 371 640 372 q 653 367 653 369 l 654 336 q 667 335 661 336 q 672 331 672 333 l 674 300 q 687 299 681 300 q 693 294 693 297 l 693 282 q 708 281 701 282 q 714 276 714 279 l 715 246 q 728 244 722 246 q 735 239 735 242 l 736 210 q 749 208 743 210 q 756 204 756 207 l 757 174 q 769 172 764 174 q 775 168 775 171 l 776 138 q 790 135 783 138 q 796 131 796 133 l 797 101 q 810 100 804 101 q 817 96 817 99 l 818 65 q 831 63 825 65 q 838 58 838 61 l 839 29 q 857 24 857 29 l 857 6 q 838 0 857 0 l 633 0 q 619 1 625 0 q 613 6 613 3 l 611 36 q 592 43 592 36 l 590 90 q 571 97 571 90 l 569 128 q 551 132 551 128 l 550 163 q 531 168 531 163 l 529 199 q 510 206 510 199 l 508 235 q 489 240 489 235 l 488 271 q 468 278 468 271 l 468 307 q 449 313 449 307 l 447 331 l 447 313 q 441 308 447 310 q 428 307 435 307 q 427 292 428 300 q 426 278 426 285 q 420 273 426 275 q 407 271 414 271 q 406 256 407 264 q 406 240 406 247 q 399 236 406 238 q 386 235 393 235 q 385 220 386 228 q 385 206 385 213 q 379 201 385 203 q 367 199 374 199 q 366 183 367 192 q 365 168 365 175 q 359 164 365 165 q 346 163 353 163 q 345 147 346 156 q 344 132 344 139 q 338 128 344 129 q 325 128 332 128 q 324 112 325 119 q 324 97 324 104 q 317 92 324 94 q 304 90 311 90 q 303 75 304 83 q 303 60 303 67 q 297 56 303 57 q 283 54 290 54 q 283 40 283 47 q 282 25 282 32 q 264 18 282 18 q 263 6 263 14 q 256 1 263 3 q 242 0 250 0 l 58 0 q 44 1 50 0 q 38 6 38 3 l 38 24 q 57 29 38 29 z "},"Y":{"ha":944,"x_min":38,"x_max":858,"o":"m 344 471 q 326 475 326 471 l 325 506 q 310 508 317 506 q 304 513 304 510 l 303 543 q 283 549 283 543 l 282 560 q 270 561 275 560 q 265 565 265 563 l 264 596 q 249 598 256 596 q 243 603 243 600 l 242 633 q 222 639 222 633 l 221 668 q 203 675 203 668 l 201 706 q 187 707 193 706 q 181 711 181 708 l 179 740 q 161 747 161 740 l 160 778 q 142 783 142 778 l 140 796 q 126 797 132 796 q 119 801 119 799 l 118 831 q 99 838 99 831 l 97 868 q 79 874 79 868 l 79 903 q 65 905 71 903 q 58 910 58 907 l 57 940 q 38 946 38 940 l 38 963 q 44 967 38 965 q 58 969 50 969 l 242 969 q 256 967 250 969 q 263 963 263 965 l 264 932 q 282 926 282 932 l 283 897 q 298 896 292 897 q 304 892 304 894 l 304 879 q 324 872 324 879 l 325 842 q 338 840 332 842 q 344 836 344 839 l 346 807 q 360 805 354 807 q 367 800 367 803 l 368 769 q 380 768 375 769 q 385 764 385 767 l 386 733 q 399 732 393 733 q 406 728 406 731 l 407 697 q 422 696 415 697 q 428 692 428 694 l 429 661 q 447 656 447 658 l 449 626 q 449 641 449 633 q 450 656 450 649 q 468 661 450 658 l 468 692 q 488 697 468 697 q 488 713 488 706 q 489 728 489 721 q 495 732 489 731 q 510 733 501 733 q 510 749 510 740 q 511 764 511 757 q 529 769 511 769 q 530 785 529 776 q 531 800 531 793 q 550 807 531 807 q 551 822 550 814 q 551 836 551 829 q 558 840 551 839 q 571 842 564 842 q 572 857 571 849 q 572 872 572 865 q 590 879 572 876 q 591 894 590 886 q 592 908 592 901 q 611 914 592 914 q 612 929 611 921 q 613 944 613 938 q 619 949 613 947 q 633 951 625 951 q 634 957 633 954 q 635 963 635 960 q 641 967 635 965 q 656 969 647 969 l 839 969 q 858 963 858 969 l 858 946 q 839 940 858 940 q 838 925 839 933 q 838 910 838 917 q 831 905 838 907 q 818 903 825 903 q 817 888 818 896 q 817 874 817 881 q 799 868 817 868 q 798 853 799 861 q 797 838 797 844 q 791 833 797 835 q 776 831 785 831 q 776 816 776 824 q 775 801 775 808 q 769 797 775 799 q 757 796 764 796 q 756 783 756 790 q 738 778 756 778 q 737 763 738 771 q 736 747 736 754 q 730 742 736 744 q 715 740 724 740 q 715 726 715 733 q 714 711 714 718 q 708 707 714 708 q 694 706 701 706 q 694 690 694 699 q 693 675 693 682 q 675 668 693 668 q 674 653 675 661 q 674 639 674 646 q 667 635 674 636 q 654 633 661 633 q 653 618 654 626 q 653 603 653 610 q 647 598 653 600 q 633 596 640 596 q 633 581 633 589 q 632 565 632 572 q 614 560 632 560 q 613 549 613 556 q 606 544 613 546 q 592 543 600 543 q 591 528 592 536 q 590 513 590 519 q 584 508 590 510 q 571 506 578 506 q 570 490 571 499 q 569 475 569 482 q 553 471 569 471 q 552 237 553 353 q 551 6 551 121 q 545 1 551 3 q 531 0 539 0 l 367 0 q 352 1 358 0 q 346 6 346 3 l 344 471 z "},"Z":{"ha":944,"x_min":99,"x_max":797,"o":"m 118 119 q 119 134 118 126 q 119 149 119 142 q 126 153 119 151 q 140 156 132 156 q 141 171 140 163 q 142 186 142 179 q 160 192 142 189 q 160 206 160 199 q 161 221 161 214 q 179 228 161 228 q 180 243 179 235 q 181 258 181 251 q 187 263 181 261 q 201 264 193 264 q 202 279 201 271 q 203 294 203 288 q 221 300 203 300 q 222 315 221 307 q 222 331 222 324 q 242 336 222 336 q 242 351 242 343 q 243 367 243 360 q 249 371 243 369 q 264 372 256 372 q 265 388 264 379 q 265 403 265 396 q 270 406 265 404 q 282 408 275 407 q 283 424 282 415 q 283 439 283 432 q 303 444 283 444 q 303 459 303 451 q 304 474 304 467 q 310 478 304 476 q 325 481 317 481 q 326 496 325 488 q 326 511 326 504 q 344 517 326 514 q 345 532 344 524 q 346 547 346 540 q 365 554 346 554 q 366 569 365 561 q 367 583 367 576 q 386 589 367 589 q 387 604 386 596 q 388 619 388 613 q 406 626 388 624 q 406 641 406 633 q 407 656 407 649 q 426 661 407 661 q 427 676 426 668 q 428 692 428 685 q 434 696 428 694 q 449 697 440 697 q 449 713 449 706 q 450 728 450 721 q 468 733 450 731 l 468 764 q 488 769 468 769 q 488 785 488 776 q 489 800 489 793 q 495 805 489 803 q 510 807 501 807 l 510 831 l 140 831 q 126 833 132 831 q 119 838 119 835 l 119 963 q 126 967 119 965 q 140 969 132 969 l 715 969 q 730 967 724 969 q 736 963 736 965 l 736 838 q 730 833 736 835 q 715 831 724 831 q 715 816 715 824 q 714 801 714 808 q 708 797 714 799 q 694 796 701 796 q 694 781 694 789 q 693 765 693 772 q 675 758 693 758 q 674 743 675 751 q 674 728 674 735 q 667 725 674 726 q 654 724 661 724 q 653 699 654 713 q 653 675 653 686 q 647 670 653 672 q 633 668 640 668 q 633 653 633 661 q 632 639 632 646 q 614 633 632 633 q 613 618 614 626 q 613 603 613 610 q 606 598 613 600 q 592 596 600 596 q 591 581 592 589 q 590 565 590 572 q 584 561 590 563 q 571 560 578 560 q 570 545 571 553 q 569 531 569 538 q 553 525 569 525 q 552 509 553 517 q 551 494 551 501 q 545 490 551 492 q 531 488 539 488 q 530 473 531 481 q 529 458 529 465 q 523 454 529 456 q 510 453 517 453 q 509 438 510 446 q 508 422 508 429 q 490 415 508 415 q 490 400 490 408 q 489 385 489 392 q 483 381 489 382 q 468 381 476 381 l 468 350 q 462 345 468 347 q 449 343 456 343 q 448 328 449 336 q 447 313 447 319 q 429 307 447 307 q 428 292 429 300 q 428 278 428 285 q 422 273 428 275 q 407 271 415 271 q 406 256 407 264 q 406 240 406 247 q 399 236 406 238 q 386 235 393 235 q 385 220 386 228 q 385 206 385 213 q 380 201 385 203 q 368 199 375 199 q 367 183 368 192 q 367 168 367 175 q 360 164 367 165 q 346 163 354 163 l 346 138 l 776 138 q 791 135 785 138 q 797 131 797 133 l 797 6 q 791 1 797 3 q 776 0 785 0 l 119 0 q 105 1 111 0 q 99 6 99 3 l 99 114 q 118 119 99 119 z "},"[":{"ha":944,"x_min":129,"x_max":763,"o":"m 743 1071 q 756 1069 750 1071 q 763 1065 763 1068 l 763 940 q 756 935 763 938 q 743 933 750 933 l 335 933 l 335 138 l 743 138 q 756 135 750 138 q 763 131 763 133 l 763 6 q 756 1 763 3 q 743 0 750 0 l 150 0 q 135 1 142 0 q 129 6 129 3 l 129 1065 q 135 1069 129 1068 q 150 1071 142 1071 l 743 1071 z "},"\\":{"ha":944,"x_min":111,"x_max":783,"o":"m 744 83 q 757 81 751 83 q 763 76 763 79 l 764 29 q 777 28 771 29 q 783 24 783 26 l 783 6 q 777 1 783 3 q 763 0 771 0 l 601 0 q 587 1 593 0 q 581 6 581 3 l 579 36 q 560 42 560 36 l 558 71 q 539 76 539 71 l 538 125 q 519 131 519 125 l 518 161 q 499 168 499 161 l 497 215 q 478 221 478 215 l 476 251 q 458 258 458 251 l 457 306 q 438 311 438 306 l 436 340 q 417 346 417 340 l 415 394 q 397 400 397 394 l 396 432 q 376 438 376 432 l 375 485 q 356 492 356 485 l 354 521 q 335 526 335 521 l 333 575 q 315 581 315 575 l 314 610 q 294 617 294 610 l 293 664 q 274 669 274 664 l 272 701 q 254 707 254 701 l 253 756 q 233 761 233 756 l 232 790 q 213 797 213 790 l 211 825 q 192 831 192 825 l 190 881 q 172 886 172 881 l 171 917 q 151 922 151 917 l 150 971 q 131 976 131 971 l 129 1007 q 111 1013 111 1007 l 111 1029 q 117 1033 111 1032 q 131 1035 124 1035 l 293 1035 q 308 1033 301 1035 q 314 1029 314 1032 l 314 1017 q 333 1011 333 1017 l 335 982 q 348 980 342 982 q 354 975 354 978 l 356 928 q 369 926 363 928 q 375 922 375 925 l 376 892 q 390 890 383 892 q 396 886 396 889 l 397 838 q 410 835 404 838 q 415 831 415 833 l 417 801 q 430 800 424 801 q 436 796 436 799 l 438 749 q 451 747 444 749 q 457 742 457 744 l 458 711 q 476 706 476 711 l 478 657 q 491 656 485 657 q 497 651 497 654 l 499 622 q 512 621 506 622 q 518 617 518 619 l 519 568 q 538 563 538 568 l 539 532 q 552 530 546 532 q 558 525 558 528 l 560 478 q 573 476 567 478 q 579 472 579 475 l 581 443 q 594 441 588 443 q 600 436 600 439 l 601 389 q 614 387 608 389 q 619 382 619 385 l 621 351 q 634 350 628 351 q 640 346 640 349 l 642 299 q 655 297 649 299 q 661 292 661 294 l 663 263 q 681 257 681 263 l 682 208 q 695 207 689 208 q 701 203 701 206 l 703 172 q 716 171 710 172 q 722 167 722 169 l 724 118 q 737 117 731 118 q 743 113 743 115 l 744 83 l 744 83 z "},"]":{"ha":944,"x_min":131,"x_max":763,"o":"m 558 138 l 558 933 l 151 933 q 137 935 143 933 q 131 940 131 938 l 131 1065 q 137 1069 131 1068 q 151 1071 143 1071 l 743 1071 q 756 1069 750 1071 q 763 1065 763 1068 l 763 6 q 756 1 763 3 q 743 0 750 0 l 151 0 q 137 1 143 0 q 131 6 131 3 l 131 131 q 137 135 131 133 q 151 138 143 138 l 558 138 z "},"^":{"ha":944,"x_min":174,"x_max":776,"o":"m 196 849 q 197 855 196 851 q 197 861 197 858 q 217 868 197 868 q 217 875 217 871 q 218 882 218 879 q 224 886 218 885 q 239 888 231 888 l 240 888 q 241 894 240 890 q 242 901 242 899 q 248 906 242 904 q 263 907 254 907 q 263 925 263 915 q 264 942 264 935 q 270 946 264 944 q 283 947 276 947 q 284 954 283 950 q 285 961 285 958 q 291 965 285 964 q 306 967 297 967 l 307 967 q 308 974 307 969 q 308 981 308 978 q 315 985 308 983 q 329 986 321 986 l 331 986 q 331 1003 331 994 q 332 1019 332 1013 q 338 1024 332 1022 q 351 1025 344 1025 l 597 1025 q 612 1024 606 1025 q 618 1019 618 1022 l 619 986 l 621 986 q 634 985 628 986 q 640 981 640 983 l 642 967 q 656 965 650 967 q 663 961 663 964 l 664 947 l 665 947 q 680 946 674 947 q 686 942 686 944 l 688 926 q 701 925 694 926 q 707 921 707 924 l 708 888 q 723 886 717 888 q 729 882 729 885 l 731 868 l 732 868 q 747 866 740 868 q 753 861 753 864 l 754 849 l 757 849 q 770 847 764 849 q 776 842 776 844 l 776 824 q 770 819 776 821 q 757 818 764 818 l 599 818 q 584 819 590 818 q 578 824 578 821 l 576 838 l 575 838 q 560 839 567 838 q 554 843 554 840 l 553 857 q 540 858 546 857 q 533 863 533 860 l 532 878 q 517 879 524 878 q 511 883 511 881 l 510 896 l 508 896 q 494 897 500 896 q 488 901 488 899 l 486 915 l 475 915 l 463 915 l 461 915 q 460 908 461 913 q 460 901 460 904 q 453 897 460 899 q 439 896 447 896 q 438 890 439 893 q 438 883 438 886 q 431 879 438 881 q 417 878 425 878 q 416 869 417 874 q 415 863 415 865 q 396 857 415 857 l 394 857 q 394 850 394 854 q 393 843 393 846 q 387 839 393 840 q 372 838 381 838 q 372 830 372 833 q 371 824 371 826 q 365 819 371 821 q 350 818 358 818 l 194 818 q 180 819 186 818 q 174 824 174 821 l 174 842 q 193 849 174 849 l 196 849 z "},"_":{"ha":944,"x_min":57,"x_max":881,"o":"m 860 -67 q 874 -69 868 -67 q 881 -74 881 -71 l 881 -199 q 874 -203 881 -201 q 860 -204 868 -204 l 76 -204 q 57 -199 57 -204 l 57 -74 q 76 -67 57 -67 l 860 -67 z "},"`":{"ha":944,"x_min":254,"x_max":640,"o":"m 436 826 q 417 832 417 826 l 415 844 q 396 850 396 844 l 396 863 q 376 869 376 863 l 375 899 q 356 904 356 899 l 354 917 q 340 918 346 917 q 333 922 333 919 l 333 935 q 315 942 315 935 l 314 971 q 294 976 294 971 l 293 989 q 278 990 285 989 q 272 994 272 992 l 272 1007 q 254 1013 254 1007 l 254 1029 q 274 1035 254 1035 l 476 1035 q 491 1033 485 1035 q 497 1029 497 1032 l 497 1017 q 512 1015 506 1017 q 518 1011 518 1014 l 519 982 q 538 975 538 982 l 539 946 q 552 944 546 946 q 558 940 558 943 l 558 910 q 573 908 567 910 q 579 903 579 906 l 579 892 q 594 890 588 892 q 600 886 600 889 l 601 856 q 614 854 608 856 q 619 850 619 853 l 619 819 q 634 818 628 819 q 640 814 640 817 l 640 797 q 634 792 640 794 q 619 790 628 790 l 458 790 q 444 792 450 790 q 438 797 438 794 l 436 826 l 436 826 z "},"a":{"ha":944,"x_min":90,"x_max":804,"o":"m 254 0 q 240 1 246 0 q 233 6 233 3 l 232 19 l 214 19 q 199 21 206 19 q 193 25 193 22 l 192 35 q 183 35 188 35 q 172 36 178 36 q 158 38 164 36 q 151 42 151 39 l 150 54 q 132 60 132 54 l 131 90 q 117 92 124 90 q 111 96 111 93 l 110 128 q 90 133 90 128 l 90 275 q 110 281 90 281 q 110 304 110 292 q 111 329 111 317 q 117 333 111 332 q 131 335 124 335 q 131 341 131 338 q 132 347 132 344 q 150 353 132 350 q 151 358 150 356 q 151 364 151 361 q 171 371 151 371 q 172 376 171 374 q 172 382 172 379 q 178 387 172 385 q 192 389 185 389 l 211 389 q 212 395 211 392 q 213 401 213 399 q 219 406 213 404 q 233 407 225 407 l 254 408 q 255 413 254 411 q 256 418 256 415 q 275 424 256 424 l 315 425 q 316 431 315 428 q 317 436 317 433 q 323 441 317 439 q 336 443 329 443 l 600 443 l 600 539 q 581 544 581 539 l 579 575 l 560 575 q 545 576 551 575 q 539 581 539 578 l 538 593 l 521 593 q 506 594 513 593 q 500 599 500 596 l 499 611 l 418 611 q 417 605 418 607 q 417 599 417 603 q 410 594 417 596 q 397 593 404 593 l 376 592 q 376 586 376 589 q 375 581 375 583 q 369 576 375 578 q 354 575 363 575 l 335 575 q 334 551 335 564 q 333 526 333 539 q 314 521 333 521 l 131 521 q 117 522 124 521 q 111 526 111 524 l 111 544 q 117 549 111 547 q 131 550 124 550 q 131 574 131 561 q 132 597 132 586 q 150 604 132 601 q 151 619 150 611 q 151 635 151 628 q 171 640 151 640 q 172 646 171 643 q 172 651 172 649 q 178 656 172 654 q 192 657 185 657 q 192 664 192 660 q 193 671 193 668 q 211 678 193 675 q 212 683 211 681 q 213 688 213 685 q 219 692 213 690 q 233 694 225 694 l 254 694 q 255 700 254 697 q 256 706 256 703 q 275 711 256 711 l 333 713 q 334 719 333 717 q 335 725 335 721 q 341 729 335 728 q 356 731 347 731 l 581 731 q 595 729 589 731 q 601 725 601 728 l 603 713 q 631 712 614 713 q 661 711 649 711 q 681 706 681 711 l 681 694 q 695 692 689 694 q 701 688 701 690 l 703 678 l 722 678 q 737 676 731 678 q 743 671 743 674 l 743 657 q 756 656 750 657 q 763 651 763 654 l 764 624 q 778 622 772 624 q 785 617 785 619 l 786 569 q 804 564 804 567 l 804 6 q 798 1 804 3 q 783 0 792 0 l 621 0 q 601 6 601 0 l 600 25 q 581 19 599 19 l 560 18 q 559 13 560 15 q 558 6 558 10 q 552 1 558 3 q 538 0 546 0 l 479 -1 q 478 -7 479 -4 q 478 -12 478 -10 q 472 -17 478 -15 q 458 -18 465 -18 l 336 -18 q 323 -17 329 -18 q 317 -12 317 -15 l 315 -1 l 254 0 m 315 133 l 314 138 q 304 138 310 138 q 294 139 299 139 l 315 133 m 600 193 l 582 192 l 579 192 l 579 188 l 600 193 m 518 133 l 538 139 l 521 138 l 518 138 l 518 133 m 296 257 l 275 250 l 293 251 l 296 251 l 296 257 m 296 150 l 296 154 l 293 154 q 284 155 289 154 q 275 156 279 156 l 296 150 m 619 247 l 601 246 l 600 246 l 600 240 l 619 247 m 538 150 l 558 156 l 539 154 l 538 154 l 538 150 m 315 275 l 294 269 l 314 269 l 315 269 l 315 275 m 376 101 l 438 101 q 438 107 438 104 q 439 113 439 110 q 445 117 439 115 q 460 118 451 118 l 499 119 q 499 126 499 124 q 500 132 500 129 q 518 138 500 138 q 519 143 518 140 q 519 149 519 146 q 538 154 519 154 q 538 160 538 157 q 539 167 539 164 q 545 171 539 169 q 560 172 551 172 q 560 179 560 175 q 561 186 561 183 q 579 192 561 189 q 580 216 579 204 q 581 239 581 228 q 600 246 581 246 l 600 322 l 458 322 q 458 317 458 319 q 457 311 457 314 q 451 307 457 308 q 436 306 444 306 l 357 304 q 356 299 357 301 q 356 294 356 297 q 349 290 356 292 q 335 289 343 289 q 334 282 335 286 q 333 275 333 278 q 315 269 333 269 q 314 258 314 265 q 296 251 314 251 l 296 154 q 314 149 314 151 l 314 138 q 333 132 333 138 l 335 118 l 354 118 q 375 113 374 118 l 376 101 z "},"b":{"ha":944,"x_min":50,"x_max":844,"o":"m 315 0 q 301 1 307 0 q 294 6 294 3 l 293 18 q 283 19 288 18 q 272 19 278 19 q 253 25 256 19 l 253 6 q 247 1 253 3 q 232 0 240 0 l 69 0 q 50 6 50 0 l 50 1029 q 69 1035 50 1035 l 232 1035 q 247 1033 240 1035 q 253 1029 253 1032 l 254 674 q 272 678 258 678 q 273 683 272 681 q 274 688 274 686 q 280 692 274 690 q 294 694 286 694 l 314 694 l 314 706 q 320 710 314 708 q 333 711 326 711 l 375 713 l 375 725 q 381 729 375 728 q 396 731 388 731 l 538 731 q 552 729 546 731 q 558 725 558 728 l 560 713 q 580 712 571 713 q 600 711 589 711 q 613 710 607 711 q 619 706 619 708 l 621 694 l 640 694 q 655 692 649 694 q 661 688 661 690 l 661 678 l 681 678 q 695 676 689 678 q 701 671 701 674 l 701 657 q 716 656 710 657 q 722 651 722 654 l 722 640 q 737 639 731 640 q 743 635 743 638 l 744 604 q 757 602 751 604 q 763 597 763 600 l 763 586 q 777 585 771 586 q 783 581 783 583 l 783 550 q 798 549 792 550 q 804 544 804 547 l 806 496 q 824 490 824 496 l 825 389 q 838 387 832 389 q 844 382 844 385 l 844 294 q 838 290 844 292 q 825 289 832 289 q 824 245 825 267 q 824 204 824 224 q 806 199 824 199 q 805 183 806 192 q 804 168 804 175 q 798 163 804 165 q 783 161 792 161 l 783 133 q 777 129 783 131 q 764 128 771 128 q 763 120 763 124 q 763 114 763 117 q 757 109 763 111 q 744 107 751 107 q 744 93 744 100 q 743 79 743 86 q 737 75 743 76 q 722 74 731 74 l 722 60 q 716 56 722 57 q 701 54 710 54 l 682 54 q 681 48 682 51 q 681 42 681 44 q 661 36 681 36 l 661 25 q 655 21 661 22 q 640 19 649 19 l 621 19 q 620 13 621 17 q 619 6 619 8 q 613 1 619 3 q 600 0 607 0 l 538 -1 l 538 -12 q 518 -18 538 -18 l 396 -18 q 381 -17 388 -18 q 375 -12 375 -15 l 375 -1 l 315 0 m 621 467 q 631 466 625 467 q 640 465 636 465 l 619 472 l 619 467 l 621 467 m 254 258 l 254 263 l 253 263 q 243 263 249 263 q 233 264 238 264 l 254 258 m 274 204 l 274 208 l 272 208 q 263 209 268 208 q 254 210 258 210 l 274 204 m 315 150 l 315 154 l 314 154 q 304 155 310 154 q 294 156 299 156 l 315 150 m 601 504 l 619 504 l 600 510 l 600 504 l 601 504 m 560 558 q 569 558 564 558 q 579 557 575 557 l 558 564 l 558 558 l 560 558 m 315 544 l 294 538 l 314 539 l 315 539 l 315 544 m 640 228 l 621 226 l 619 226 l 619 221 l 640 228 m 274 490 l 254 483 l 272 485 l 274 485 l 274 490 m 335 564 l 315 557 l 333 558 l 335 558 l 335 564 m 254 436 l 233 431 l 253 432 l 254 432 l 254 436 m 619 193 l 601 192 l 600 192 l 600 188 l 619 193 m 579 156 l 560 154 l 558 154 l 558 150 l 579 156 m 538 133 l 558 139 l 539 138 l 538 138 l 538 133 m 376 119 l 518 119 q 519 126 518 124 q 519 132 519 129 q 538 138 519 138 q 538 143 538 140 q 539 149 539 146 q 558 154 539 154 l 558 167 q 565 171 558 169 q 579 172 571 172 q 580 179 579 175 q 581 186 581 183 q 600 192 581 192 q 601 206 600 199 q 601 219 601 213 q 619 226 601 226 l 619 293 q 626 298 619 296 q 640 300 632 300 l 640 397 q 626 399 632 397 q 619 403 619 400 l 619 467 q 601 474 601 467 l 600 504 q 581 511 581 504 l 579 539 q 565 540 571 539 q 558 544 558 542 l 558 558 q 539 565 539 558 l 538 575 l 518 575 q 503 576 510 575 q 497 581 497 578 l 497 592 l 397 592 q 397 586 397 589 q 396 581 396 583 q 390 576 396 578 q 375 575 383 575 l 354 575 l 354 565 q 348 560 354 563 q 335 558 342 558 q 333 544 333 554 q 315 539 333 539 q 314 526 314 535 q 308 522 314 524 q 293 521 301 521 l 293 492 q 287 487 293 489 q 274 485 281 485 q 273 461 274 474 q 272 438 272 449 q 267 433 272 435 q 254 432 261 432 l 254 263 q 267 261 261 263 q 272 257 272 260 l 274 208 q 287 207 281 208 q 293 203 293 206 l 293 192 q 308 190 301 192 q 314 186 314 189 l 315 154 q 333 149 333 154 l 335 138 l 354 138 q 375 132 374 138 l 376 119 z "},"c":{"ha":944,"x_min":100,"x_max":794,"o":"m 325 0 q 310 1 317 0 q 304 6 304 3 l 303 19 l 285 19 q 270 21 276 19 q 264 25 264 22 l 263 36 q 249 38 256 36 q 243 42 243 39 l 242 54 q 222 60 222 54 l 221 74 q 203 79 203 74 l 201 90 q 182 96 182 90 l 181 107 q 161 114 161 107 l 160 144 q 142 150 142 144 l 140 181 q 121 188 121 181 l 119 251 q 100 258 100 251 l 100 456 q 119 461 100 461 q 120 485 119 472 q 121 510 121 499 q 140 515 121 515 q 141 539 140 526 q 142 564 142 551 q 160 569 142 567 q 160 575 160 572 q 161 581 161 578 q 181 586 161 586 q 181 601 181 593 q 182 617 182 608 q 201 624 182 624 q 202 629 201 626 q 203 635 203 632 q 221 640 203 638 q 222 646 221 643 q 222 651 222 649 q 242 657 222 657 q 242 664 242 660 q 243 671 243 668 q 249 676 243 674 q 263 678 256 678 q 263 683 263 681 q 264 688 264 686 q 270 692 264 690 q 285 694 276 694 l 303 694 q 303 700 303 697 q 304 706 304 703 q 310 710 304 708 q 325 711 317 711 l 364 713 q 365 719 364 717 q 365 725 365 721 q 372 729 365 728 q 386 731 378 731 l 547 731 q 562 729 556 731 q 568 725 568 728 l 569 713 q 600 712 588 713 q 629 711 613 711 q 644 710 638 711 q 650 706 650 708 l 651 694 q 666 692 660 694 q 672 688 672 690 l 674 678 l 690 678 q 705 676 699 678 q 711 671 711 674 l 713 640 q 727 639 721 640 q 733 635 733 638 l 733 624 q 751 617 751 624 l 751 604 q 766 602 760 604 q 772 597 772 600 l 774 550 q 788 549 782 550 q 794 544 794 547 l 794 526 q 788 522 794 524 q 774 521 782 521 l 592 521 q 577 522 583 521 q 571 526 571 524 l 569 558 q 555 560 561 558 q 549 565 549 563 l 547 575 q 529 581 529 575 l 528 592 l 428 592 q 427 586 428 589 q 426 581 426 583 q 420 576 426 578 q 406 575 414 575 l 386 575 q 385 570 386 572 q 385 565 385 568 q 367 558 385 558 q 365 544 365 554 q 359 540 365 542 q 344 539 353 539 q 344 525 344 532 q 343 511 343 518 q 338 506 343 508 q 325 504 332 504 q 324 481 325 493 q 324 457 324 468 q 306 451 324 451 l 306 263 q 324 257 324 260 l 325 208 q 338 207 332 208 q 343 203 343 206 l 344 172 q 359 171 353 172 q 365 167 365 169 l 365 154 q 385 149 385 154 l 386 138 l 406 138 q 420 136 414 138 q 426 132 426 135 l 428 119 l 508 119 q 509 126 508 124 q 510 132 510 129 q 516 136 510 135 q 531 138 522 138 l 547 138 q 548 152 547 144 q 549 167 549 160 q 555 171 549 169 q 569 172 561 172 q 570 188 569 179 q 571 203 571 196 q 589 208 571 208 q 590 214 589 211 q 590 219 590 217 q 597 224 590 222 q 610 226 603 226 l 774 226 q 788 224 782 226 q 794 219 794 222 l 794 188 q 788 183 794 185 q 774 181 782 181 q 773 157 774 169 q 772 133 772 144 q 766 129 772 131 q 753 128 760 128 q 752 111 753 119 q 751 96 751 103 q 735 90 751 90 q 733 79 733 86 q 727 75 733 76 q 713 74 721 74 q 712 67 713 71 q 711 60 711 63 q 705 56 711 57 q 692 54 699 54 q 690 42 690 49 q 685 38 690 39 q 674 36 681 36 q 672 25 672 32 q 666 21 672 22 q 651 19 660 19 l 631 18 q 630 13 631 15 q 629 6 629 10 q 623 1 629 3 q 608 0 617 0 l 569 -1 q 569 -7 569 -4 q 568 -12 568 -10 q 562 -17 568 -15 q 547 -18 556 -18 l 386 -18 q 372 -17 378 -18 q 365 -12 365 -15 l 364 -1 l 325 0 z "},"d":{"ha":944,"x_min":58,"x_max":833,"o":"m 283 0 q 269 1 275 0 q 263 6 263 3 l 261 19 l 244 19 q 230 21 236 19 q 224 25 224 22 l 222 36 q 208 38 214 36 q 201 42 201 39 l 200 54 l 183 54 q 169 56 175 54 q 163 60 163 57 l 161 74 q 147 75 153 74 q 140 79 140 76 l 139 107 q 121 114 121 107 l 119 128 q 101 133 101 128 l 100 161 q 85 163 92 161 q 79 168 79 165 l 78 215 q 58 221 58 215 l 58 490 q 78 496 58 496 q 78 520 78 508 q 79 544 79 532 q 85 549 79 547 q 100 550 92 550 q 101 565 100 557 q 101 581 101 574 q 119 586 101 583 q 120 592 119 589 q 121 597 121 594 q 139 604 121 604 q 140 619 139 611 q 140 635 140 628 q 147 639 140 638 q 161 640 153 640 q 162 646 161 643 q 163 651 163 649 q 181 657 163 657 q 181 664 181 660 q 182 671 182 668 q 201 678 182 678 l 222 678 q 223 683 222 681 q 224 688 224 686 q 230 692 224 690 q 244 694 236 694 l 261 694 q 262 700 261 697 q 263 706 263 703 q 269 710 263 708 q 283 711 275 711 l 324 713 q 324 719 324 717 q 325 725 325 721 q 344 731 325 731 l 488 731 q 502 729 496 731 q 508 725 508 728 l 510 713 q 530 712 521 713 q 549 711 539 711 q 563 710 557 711 q 569 706 569 708 l 571 694 l 589 694 q 608 688 608 694 l 610 678 q 629 674 622 678 q 630 851 629 761 q 631 1029 631 940 q 637 1033 631 1032 q 651 1035 643 1035 l 814 1035 q 827 1033 821 1035 q 833 1029 833 1032 l 833 6 q 827 1 833 3 q 814 0 821 0 l 651 0 q 637 1 643 0 q 631 6 631 3 l 629 36 l 610 36 q 609 31 610 33 q 608 25 608 28 q 589 19 608 19 l 571 19 q 570 13 571 17 q 569 6 569 8 q 563 1 569 3 q 549 0 557 0 l 510 -1 q 509 -7 510 -4 q 508 -12 508 -10 q 502 -17 508 -15 q 488 -18 496 -18 l 367 -18 q 352 -17 358 -18 q 346 -12 346 -15 l 344 -1 l 283 0 m 550 558 q 559 558 554 558 q 568 557 564 557 l 547 564 l 547 558 l 550 558 m 569 539 q 579 538 574 539 q 589 538 585 538 l 568 544 l 568 539 l 569 539 m 326 150 l 325 154 l 324 154 q 315 155 319 154 q 306 156 310 156 l 326 150 m 629 228 l 611 226 l 608 226 l 608 221 l 629 228 m 547 150 l 568 156 l 550 154 l 547 154 l 547 150 m 326 564 l 306 557 l 324 558 l 326 558 l 326 564 m 264 472 l 244 465 l 261 467 l 264 467 l 264 472 m 264 240 l 264 246 l 261 246 q 253 247 258 246 q 244 247 249 247 l 264 240 m 611 504 l 629 504 l 608 510 l 608 504 l 611 504 m 631 451 q 640 451 635 451 q 650 450 646 450 l 629 456 l 629 451 l 631 451 m 283 204 l 283 208 l 282 208 q 272 209 278 208 q 263 210 267 210 l 283 204 m 589 174 l 569 172 l 568 172 l 568 168 l 589 174 m 650 281 l 631 281 l 629 281 l 629 275 l 650 281 m 283 510 l 263 504 l 282 504 l 283 504 l 283 510 m 388 119 l 507 119 q 508 126 507 124 q 508 132 508 129 q 515 136 508 135 q 529 138 521 138 q 530 144 529 140 q 531 149 531 147 q 547 154 531 151 q 548 160 547 157 q 549 167 549 164 q 568 172 549 172 q 569 178 568 175 q 569 186 569 182 q 576 190 569 189 q 590 192 582 192 q 591 206 590 199 q 592 219 592 213 q 597 224 592 222 q 608 226 601 225 q 609 251 608 238 q 610 275 610 264 q 629 281 610 281 l 629 451 q 610 457 610 451 l 608 504 q 597 506 601 504 q 592 511 592 508 l 590 521 q 576 522 582 521 q 569 526 569 524 l 568 539 q 549 544 549 539 l 547 558 q 531 565 531 558 l 529 575 l 508 575 q 494 576 500 575 q 488 581 488 578 l 486 592 l 388 592 q 387 586 388 589 q 386 581 386 583 q 380 576 386 578 q 365 575 374 575 l 344 575 q 344 570 344 572 q 343 565 343 568 q 338 560 343 563 q 326 558 333 558 q 325 544 325 554 q 319 540 325 542 q 304 539 313 539 q 303 525 304 532 q 303 511 303 518 q 297 506 303 508 q 283 504 290 504 q 283 489 283 497 q 282 474 282 481 q 264 467 282 467 l 264 246 q 282 239 282 243 l 283 208 q 297 207 290 208 q 303 203 303 206 l 304 172 q 319 171 313 172 q 325 167 325 169 l 325 154 q 343 149 343 154 l 344 138 l 365 138 q 386 132 385 138 l 388 119 z "},"e":{"ha":944,"x_min":68,"x_max":824,"o":"m 315 0 q 301 1 307 0 q 294 6 294 3 l 293 18 q 283 19 288 18 q 272 19 278 19 q 253 25 253 19 l 251 36 l 232 36 q 217 38 224 36 q 211 42 211 39 l 210 54 q 190 60 190 54 l 190 74 q 172 79 172 74 l 171 90 q 156 92 163 90 q 150 96 150 93 l 149 107 q 129 114 129 107 l 128 144 q 116 146 121 144 q 111 150 111 147 l 110 181 q 95 183 101 181 q 89 188 89 185 l 88 251 q 68 258 68 251 l 68 456 q 88 461 68 461 q 88 494 88 478 q 89 525 89 510 q 95 530 89 528 q 110 532 101 532 q 110 548 110 539 q 111 564 111 557 q 116 567 111 565 q 128 569 121 568 q 128 583 128 576 q 129 597 129 590 q 149 604 129 604 q 149 610 149 607 q 150 617 150 614 q 156 622 150 619 q 171 624 163 624 q 172 629 171 626 q 172 635 172 632 q 190 640 172 638 l 190 651 q 210 657 190 657 q 210 664 210 660 q 211 671 211 668 q 217 676 211 674 q 232 678 224 678 l 251 678 q 252 683 251 681 q 253 688 253 686 q 271 694 253 694 q 272 700 271 697 q 272 706 272 703 q 278 710 272 708 q 293 711 285 711 l 354 713 q 355 719 354 717 q 356 725 356 721 q 362 729 356 728 q 376 731 368 731 l 558 731 q 573 729 567 731 q 579 725 579 728 l 581 713 q 601 712 592 713 q 619 711 610 711 q 634 710 628 711 q 640 706 640 708 l 642 694 l 660 694 q 679 688 679 694 l 681 678 q 695 676 689 678 q 701 671 701 674 l 701 657 q 721 651 721 657 l 721 640 q 735 639 729 640 q 742 635 742 638 l 743 624 q 756 622 750 624 q 763 617 763 619 l 764 586 q 782 581 782 583 l 783 550 q 797 549 790 550 q 803 544 803 547 l 804 478 q 824 472 824 478 l 824 331 q 804 324 824 324 l 274 322 l 274 263 q 292 257 292 260 l 293 208 q 306 207 300 208 q 313 203 313 206 l 314 192 q 333 186 333 192 l 335 154 l 353 154 q 367 153 361 154 q 374 149 374 151 l 375 138 l 394 138 q 408 136 401 138 q 414 132 414 135 l 415 119 l 557 119 q 558 126 557 124 q 558 132 558 129 q 578 138 558 138 q 578 152 578 144 q 579 167 579 160 q 585 171 579 169 q 600 172 592 172 l 782 172 q 797 171 790 172 q 803 167 803 169 l 803 150 q 797 146 803 147 q 783 144 790 144 q 783 119 783 132 q 782 96 782 107 q 764 90 782 90 q 763 79 763 86 q 756 75 763 76 q 743 74 750 74 q 742 67 743 71 q 742 60 742 63 q 735 56 742 57 q 722 54 729 54 q 721 42 721 49 q 703 36 721 36 q 701 25 701 32 q 695 21 701 22 q 681 19 689 19 l 661 18 q 660 13 661 15 q 660 6 660 10 q 653 1 660 3 q 639 0 647 0 l 600 -1 q 599 -7 600 -4 q 599 -12 599 -10 q 592 -17 599 -15 q 578 -18 586 -18 l 376 -18 q 362 -17 368 -18 q 356 -12 356 -15 l 354 -1 l 315 0 m 274 490 l 254 483 l 271 485 l 274 485 l 274 490 m 621 485 q 630 484 625 485 q 639 483 635 483 l 618 490 l 618 485 l 621 485 m 335 564 l 315 557 l 332 558 l 335 558 l 335 564 m 293 525 l 272 519 l 292 521 l 293 521 l 293 525 m 292 492 q 274 485 292 485 l 274 463 l 618 463 l 618 485 q 601 492 601 485 l 600 521 q 585 522 592 521 q 579 526 579 524 l 578 558 l 560 558 q 545 560 551 558 q 539 565 539 563 l 538 575 q 524 576 531 575 q 518 581 518 578 l 517 592 l 397 592 q 397 586 397 589 q 396 581 396 583 q 390 576 396 578 q 375 575 383 575 l 354 575 q 353 570 354 572 q 353 565 353 568 q 335 558 353 558 q 333 544 333 554 q 314 539 333 539 q 313 533 314 536 q 313 526 313 529 q 306 522 313 524 q 293 521 300 521 q 292 506 293 514 q 292 492 292 499 z "},"f":{"ha":944,"x_min":121,"x_max":772,"o":"m 140 593 q 121 599 121 593 l 121 724 q 140 729 121 729 l 343 731 q 344 790 343 760 q 344 850 344 819 q 364 856 344 856 q 365 889 364 872 q 365 922 365 906 q 385 928 365 928 l 385 957 q 391 961 385 960 q 404 963 397 963 q 405 969 404 967 q 406 975 406 972 q 425 982 406 982 q 426 988 425 985 q 426 993 426 990 q 446 1000 426 1000 l 446 1011 q 452 1015 446 1014 q 467 1017 458 1017 l 486 1017 q 487 1024 486 1021 q 488 1029 488 1026 q 494 1033 488 1032 q 508 1035 500 1035 l 547 1036 q 548 1042 547 1039 q 549 1047 549 1044 q 555 1052 549 1050 q 569 1054 561 1054 l 751 1054 q 766 1052 760 1054 q 772 1047 772 1050 l 772 922 q 766 918 772 919 q 751 917 760 917 l 631 915 q 630 910 631 913 q 629 904 629 907 q 623 900 629 901 q 608 899 617 899 l 590 899 q 590 892 590 896 q 589 886 589 889 q 583 882 589 883 q 569 881 576 881 q 569 865 569 874 q 568 850 568 857 q 562 846 568 847 q 547 844 556 844 l 547 731 q 649 730 600 731 q 751 729 699 729 q 766 728 760 729 q 772 724 772 726 l 772 599 q 766 594 772 596 q 751 593 760 593 l 547 592 l 547 6 q 541 1 547 3 q 528 0 535 0 l 365 0 q 351 1 357 0 q 344 6 344 3 l 343 592 l 140 593 z "},"g":{"ha":944,"x_min":69,"x_max":824,"o":"m 233 -235 q 219 -233 225 -235 q 213 -229 213 -232 l 211 -215 l 192 -215 q 178 -214 185 -215 q 172 -210 172 -212 l 171 -199 q 151 -192 151 -199 l 150 -181 q 131 -175 131 -181 l 129 -144 q 111 -137 111 -144 l 111 -67 q 117 -62 111 -64 q 131 -61 124 -61 l 293 -61 q 308 -62 301 -61 q 314 -67 314 -64 l 315 -97 q 333 -103 333 -97 l 333 -115 q 348 -117 342 -115 q 354 -121 354 -118 l 356 -132 l 538 -132 q 538 -126 538 -129 q 539 -121 539 -124 q 545 -117 539 -118 q 560 -115 551 -115 l 579 -115 q 580 -108 579 -111 q 581 -103 581 -106 q 600 -97 581 -97 q 601 -82 600 -90 q 601 -67 601 -74 q 619 -61 601 -61 l 619 76 q 600 72 615 72 l 581 72 q 580 66 581 69 q 579 60 579 63 q 573 56 579 57 q 558 54 567 54 l 539 54 q 538 47 539 51 q 538 40 538 43 q 518 35 538 35 l 335 35 q 322 36 328 35 q 315 40 315 38 l 314 53 q 294 53 303 53 q 274 54 285 54 q 254 60 254 54 l 253 72 l 233 72 q 219 74 225 72 q 213 78 213 75 l 211 89 q 192 94 192 89 l 190 107 q 172 114 172 107 l 171 126 q 151 132 151 126 l 150 161 q 131 168 131 161 l 129 179 q 111 186 111 179 l 110 233 q 90 239 90 233 l 89 304 q 69 311 69 304 l 69 472 q 89 478 69 478 q 90 510 89 494 q 90 544 90 526 q 110 550 90 550 q 110 565 110 557 q 111 581 111 574 q 129 586 111 586 q 130 601 129 593 q 131 617 131 608 q 150 622 131 622 q 151 628 150 625 q 151 635 151 632 q 171 640 151 640 q 172 646 171 643 q 172 651 172 649 q 190 657 172 657 q 191 663 190 660 q 192 669 192 667 q 211 676 192 676 q 212 682 211 679 q 213 688 213 685 q 219 692 213 690 q 233 694 225 694 l 253 694 q 253 700 253 697 q 254 706 254 703 q 274 711 254 711 l 314 713 q 315 718 314 715 q 315 724 315 721 q 322 728 315 726 q 335 729 328 729 l 518 729 q 538 724 538 729 l 539 711 l 558 711 q 573 710 567 711 q 579 706 579 708 l 581 694 l 600 694 q 613 692 607 694 q 619 688 619 690 l 619 676 q 621 691 621 683 q 621 706 621 699 q 627 710 621 708 q 642 711 633 711 l 804 711 q 824 706 824 711 l 824 -67 q 806 -74 824 -74 q 805 -97 806 -85 q 804 -121 804 -108 q 798 -126 804 -124 q 785 -128 792 -128 q 784 -142 785 -135 q 783 -156 783 -149 q 777 -160 783 -158 q 764 -161 771 -161 q 763 -175 763 -165 q 756 -179 763 -178 q 743 -181 750 -181 l 724 -181 q 723 -186 724 -183 q 722 -192 722 -189 q 716 -197 722 -194 q 703 -199 710 -199 q 701 -204 701 -201 q 701 -210 701 -207 q 695 -214 701 -212 q 681 -215 689 -215 l 663 -215 q 662 -222 663 -218 q 661 -229 661 -226 q 655 -233 661 -232 q 640 -235 649 -235 l 560 -235 q 559 -240 560 -237 q 558 -246 558 -243 q 552 -250 558 -249 q 538 -251 546 -251 l 315 -251 q 301 -250 307 -251 q 294 -246 294 -249 l 293 -235 l 233 -235 m 315 221 l 314 226 q 304 227 310 226 q 294 228 299 228 l 315 221 m 581 557 q 590 556 585 557 q 600 556 596 556 l 579 563 l 579 557 l 581 557 m 294 239 l 294 244 l 293 244 q 283 245 289 244 q 274 246 278 246 l 294 239 m 315 544 l 294 538 l 314 539 l 315 539 l 315 544 m 274 454 l 254 449 l 272 450 l 274 450 l 274 454 m 619 246 l 601 244 l 600 244 l 600 239 l 619 246 m 640 300 l 621 299 l 619 299 l 619 293 l 640 300 m 600 208 l 581 208 l 579 208 l 579 203 l 600 208 m 294 525 l 274 519 l 293 519 l 294 519 l 294 525 m 621 465 l 640 465 l 619 472 l 619 465 l 621 465 m 601 519 l 619 519 l 600 525 l 600 519 l 601 519 m 254 317 l 274 311 l 274 317 l 272 317 l 254 317 m 417 154 l 476 154 q 477 160 476 157 q 478 167 478 163 q 484 171 478 169 q 499 172 490 172 l 518 172 q 519 179 518 176 q 519 185 519 182 q 526 189 519 188 q 539 190 532 190 l 558 190 q 559 197 558 194 q 560 203 560 200 q 579 208 560 208 q 580 223 579 215 q 581 239 581 231 q 600 244 581 244 q 601 268 600 256 q 601 292 601 281 q 619 299 601 299 l 619 465 q 601 472 601 465 l 600 519 q 581 525 581 519 l 579 557 q 560 564 560 557 l 558 575 l 539 575 q 526 576 532 575 q 519 581 519 578 l 518 593 l 499 593 q 484 594 490 593 q 478 599 478 596 l 476 610 l 417 610 q 416 604 417 607 q 415 599 415 601 q 409 594 415 596 q 396 593 403 593 l 376 593 q 376 587 376 590 q 375 581 375 583 q 369 576 375 578 q 354 575 363 575 l 335 575 q 334 560 335 568 q 333 544 333 553 q 315 539 333 539 q 314 525 314 535 q 308 521 314 522 q 294 519 301 519 q 294 488 294 504 q 293 456 293 471 q 287 451 293 453 q 274 450 281 450 l 274 317 q 287 315 281 317 q 293 311 293 314 l 294 244 q 308 243 301 244 q 314 239 314 242 l 314 226 q 333 219 333 226 l 335 190 l 354 190 q 369 189 363 190 q 375 185 375 188 l 376 172 l 396 172 q 415 167 413 172 l 417 154 z "},"h":{"ha":944,"x_min":100,"x_max":793,"o":"m 282 1035 q 297 1033 290 1035 q 303 1029 303 1032 l 304 686 l 304 688 q 324 694 304 694 q 324 700 324 697 q 325 706 325 703 q 344 711 325 711 l 385 713 q 385 718 385 715 q 386 724 386 721 q 392 728 386 726 q 406 729 399 729 l 589 729 q 608 724 608 729 l 610 713 q 630 712 621 713 q 650 711 639 711 q 665 710 658 711 q 671 706 671 708 l 671 694 q 684 692 678 694 q 690 688 690 690 l 690 676 q 705 674 699 676 q 711 669 711 672 l 711 657 q 726 656 719 657 q 732 651 732 654 l 732 640 q 751 635 751 640 l 751 622 q 766 621 760 622 q 772 617 772 619 l 774 550 q 787 549 781 550 q 793 544 793 547 l 793 6 q 787 1 793 3 q 772 0 781 0 l 610 0 q 597 1 603 0 q 590 6 590 3 l 589 521 q 569 526 569 521 l 568 557 q 549 564 549 557 l 547 575 q 529 581 529 575 l 528 592 l 406 592 q 405 586 406 589 q 404 581 404 583 q 385 575 404 575 l 365 575 q 365 560 365 568 q 364 544 364 551 q 358 540 364 542 q 344 539 351 539 q 343 526 343 535 q 338 522 343 524 q 325 521 332 521 q 324 497 325 510 q 324 474 324 485 q 317 469 324 471 q 304 467 311 467 q 303 236 304 351 q 303 6 303 121 q 297 1 303 3 q 282 0 290 0 l 121 0 q 106 1 113 0 q 100 6 100 3 l 100 1029 q 106 1033 100 1032 q 121 1035 113 1035 l 282 1035 z "},"i":{"ha":944,"x_min":197,"x_max":767,"o":"m 379 119 l 379 592 q 308 592 346 592 q 236 593 269 593 q 222 594 228 593 q 215 599 215 596 l 215 725 q 222 729 215 728 q 236 731 228 731 l 563 731 q 577 729 571 731 q 583 725 583 728 l 585 119 q 666 119 625 119 q 747 118 707 118 q 767 113 767 118 l 767 -12 q 747 -18 767 -18 l 217 -18 q 203 -17 210 -18 q 197 -12 197 -15 l 197 113 q 203 117 197 115 q 217 118 210 118 l 379 119 m 563 1054 q 577 1053 571 1054 q 583 1049 583 1051 l 583 869 q 577 865 583 867 q 563 863 571 863 l 340 863 q 326 865 332 863 q 319 869 319 867 l 319 1049 q 326 1053 319 1051 q 340 1054 332 1054 l 563 1054 z "},"j":{"ha":944,"x_min":201,"x_max":690,"o":"m 404 -96 l 404 -85 q 410 -80 404 -82 q 425 -78 417 -78 l 446 -76 q 447 -72 446 -74 q 447 -67 447 -69 q 467 -61 447 -61 l 467 -31 q 486 -25 467 -25 l 486 592 q 405 592 443 592 q 325 593 367 593 q 310 594 317 593 q 304 599 304 596 l 304 725 q 310 729 304 728 q 325 731 317 731 l 671 731 q 684 729 678 731 q 690 725 690 728 l 690 -47 q 685 -52 690 -50 q 672 -54 679 -54 q 672 -87 672 -71 q 671 -119 671 -103 q 665 -124 671 -122 q 651 -126 658 -126 q 650 -137 650 -129 q 644 -142 650 -140 q 629 -143 638 -143 l 629 -156 q 623 -160 629 -158 q 610 -161 617 -161 q 608 -174 608 -165 q 590 -179 608 -179 q 589 -190 589 -183 q 583 -195 589 -193 q 568 -197 576 -197 l 549 -197 q 548 -203 549 -200 q 547 -210 547 -207 q 541 -214 547 -212 q 528 -215 535 -215 l 468 -217 q 467 -222 468 -219 q 467 -228 467 -225 q 460 -232 467 -231 q 446 -233 454 -233 l 222 -233 q 208 -232 214 -233 q 201 -228 201 -231 l 201 -103 q 208 -99 201 -100 q 222 -97 214 -97 l 404 -96 m 671 1054 q 684 1053 678 1054 q 690 1049 690 1051 l 690 869 q 684 865 690 867 q 671 863 678 863 l 447 863 q 433 865 439 863 q 426 869 426 867 l 426 1049 q 433 1053 426 1051 q 447 1054 439 1054 l 671 1054 z "},"k":{"ha":944,"x_min":69,"x_max":824,"o":"m 253 1035 q 266 1033 260 1035 q 272 1029 272 1032 l 274 511 q 281 514 276 514 q 293 514 286 514 q 294 520 293 518 q 294 525 294 522 q 314 532 294 532 q 315 538 314 535 q 315 544 315 542 q 333 550 315 550 l 333 563 q 340 567 333 565 q 354 568 346 568 q 355 575 354 572 q 356 581 356 578 q 362 585 356 583 q 376 586 368 586 l 396 586 l 396 597 q 415 604 396 604 q 416 610 415 607 q 417 617 417 614 q 436 622 417 622 q 437 628 436 625 q 438 635 438 632 q 457 640 438 640 l 457 651 q 463 656 457 654 q 476 657 469 657 q 477 664 476 661 q 478 669 478 667 q 497 676 478 676 q 498 682 497 679 q 499 688 499 685 q 518 694 499 694 l 518 706 q 524 710 518 708 q 538 711 531 711 l 743 711 q 756 710 750 711 q 763 706 763 708 l 763 689 q 756 685 763 686 q 743 683 750 683 l 743 671 q 737 667 743 668 q 724 665 731 665 q 722 653 722 660 q 716 649 722 650 q 703 647 710 647 q 701 636 701 642 q 695 631 701 633 q 681 629 689 629 l 681 617 q 663 611 681 611 q 661 599 661 606 q 655 594 661 596 q 642 593 649 593 q 640 581 640 588 q 634 576 640 578 q 619 575 628 575 l 619 564 q 614 559 619 561 q 601 557 608 557 q 600 544 600 553 q 594 540 600 542 q 581 539 588 539 q 579 526 579 535 q 573 522 579 524 q 558 521 567 521 l 558 510 q 552 506 558 507 q 538 504 546 504 l 519 504 q 519 498 519 501 q 518 492 518 494 q 512 487 518 489 q 497 485 506 485 l 497 474 q 491 469 497 471 q 478 467 485 467 q 476 456 476 463 q 458 450 476 450 q 457 438 457 444 q 451 433 457 435 q 436 432 444 432 l 436 419 q 430 415 436 417 q 417 413 424 413 l 417 389 q 430 387 424 389 q 436 382 436 385 l 436 371 q 451 369 444 371 q 457 364 457 367 l 457 351 q 476 346 476 351 l 476 335 q 491 333 485 335 q 497 329 497 332 l 497 317 q 512 315 506 317 q 518 311 518 314 l 518 299 q 538 292 538 299 l 538 281 q 552 279 546 281 q 558 275 558 278 l 558 263 q 573 261 567 263 q 579 257 579 260 l 579 244 q 594 243 588 244 q 600 239 600 242 l 600 226 q 613 224 607 226 q 619 219 619 222 l 619 208 q 634 207 628 208 q 640 203 640 206 l 640 190 q 655 189 649 190 q 661 185 661 188 l 661 172 q 681 167 681 172 l 681 138 q 695 135 689 138 q 701 131 701 133 l 701 118 q 716 117 710 118 q 722 113 722 115 l 722 100 q 737 99 731 100 q 743 94 743 97 l 743 83 q 756 81 750 83 q 763 76 763 79 l 763 65 q 777 63 771 65 q 783 58 783 61 l 783 46 q 798 44 792 46 q 804 40 804 43 l 804 29 q 824 24 824 29 l 824 6 q 804 0 824 0 l 600 0 q 585 1 592 0 q 579 6 579 3 l 579 18 q 560 25 560 18 l 558 36 q 539 42 539 36 l 538 54 q 524 56 531 54 q 518 60 518 57 l 518 72 q 499 78 499 72 l 497 90 q 478 96 478 90 l 476 107 q 463 109 469 107 q 457 114 457 111 l 457 126 q 438 132 438 126 l 436 144 q 417 150 417 144 l 415 161 q 396 168 396 161 l 396 179 q 376 186 376 179 l 375 199 q 356 204 356 199 l 354 215 q 340 217 346 215 q 333 221 333 218 l 333 233 q 315 239 315 233 l 314 251 q 294 258 294 251 l 293 288 q 274 290 279 288 q 273 148 274 219 q 272 6 272 76 q 266 1 272 3 q 253 0 260 0 l 90 0 q 76 1 82 0 q 69 6 69 3 l 69 1029 q 76 1033 69 1032 q 90 1035 82 1035 l 253 1035 z "},"l":{"ha":944,"x_min":161,"x_max":732,"o":"m 343 138 l 343 915 q 272 916 310 915 q 201 917 235 917 q 182 922 182 917 l 182 1047 q 201 1054 182 1054 l 528 1054 q 541 1052 535 1054 q 547 1047 547 1050 l 549 138 l 711 138 q 726 135 719 138 q 732 131 732 133 l 732 6 q 726 1 732 3 q 711 0 719 0 l 182 0 q 167 1 174 0 q 161 6 161 3 l 161 131 q 167 135 161 133 q 182 138 174 138 l 343 138 z "},"m":{"ha":944,"x_min":18,"x_max":875,"o":"m 201 711 q 216 710 210 711 q 222 706 222 708 l 222 694 l 243 694 q 244 700 243 697 q 244 706 244 703 q 251 710 244 708 q 264 711 257 711 l 282 711 q 283 718 282 715 q 283 724 283 721 q 290 728 283 726 q 304 729 296 729 l 425 729 q 440 728 433 729 q 446 724 446 726 l 447 711 l 467 711 q 480 710 474 711 q 486 706 486 708 l 486 694 q 497 693 494 694 q 510 694 501 694 l 528 694 q 528 700 528 697 q 529 706 529 703 q 549 711 529 711 l 568 711 q 569 718 568 715 q 569 724 569 721 q 576 728 569 726 q 590 729 582 729 l 732 729 q 751 724 751 729 l 753 711 l 772 711 q 787 710 781 711 q 793 706 793 708 l 793 694 q 808 692 801 694 q 814 688 814 690 l 815 676 q 828 674 822 676 q 835 669 835 672 l 835 657 q 854 651 854 657 l 856 604 q 869 602 863 604 q 875 597 875 600 l 875 6 q 869 1 875 3 q 854 0 863 0 l 693 0 q 674 6 674 0 l 672 575 q 658 576 664 575 q 651 581 651 578 l 650 610 l 610 610 q 609 604 610 607 q 608 599 608 601 q 592 593 608 593 q 590 581 590 588 q 584 576 590 578 q 569 575 578 575 q 569 560 569 568 q 568 544 568 551 q 562 540 568 542 q 549 539 556 539 q 548 272 549 404 q 547 6 547 139 q 541 1 547 3 q 528 0 535 0 l 365 0 q 351 1 357 0 q 344 6 344 3 l 343 575 q 325 581 325 575 l 324 593 q 306 599 306 593 l 304 610 l 285 610 q 284 604 285 607 q 283 599 283 601 q 277 594 283 596 q 263 593 271 593 q 262 587 263 590 q 261 581 261 583 q 243 575 261 575 q 242 560 243 568 q 242 544 242 551 q 224 539 242 539 q 223 272 224 404 q 222 6 222 139 q 216 1 222 3 q 201 0 210 0 l 39 0 q 24 1 31 0 q 18 6 18 3 l 18 706 q 24 710 18 708 q 39 711 31 711 l 201 711 z "},"n":{"ha":944,"x_min":79,"x_max":814,"o":"m 263 711 q 277 710 271 711 q 283 706 283 708 l 283 671 q 304 676 289 676 q 305 682 304 679 q 306 688 306 685 q 312 692 306 690 q 326 694 318 694 l 343 694 q 344 700 343 697 q 344 706 344 703 q 351 710 344 708 q 365 711 357 711 l 404 713 q 405 718 404 715 q 406 724 406 721 q 412 728 406 726 q 426 729 418 729 l 589 729 q 608 724 608 729 l 610 713 q 630 712 621 713 q 650 711 639 711 q 665 710 658 711 q 671 706 671 708 l 672 694 l 692 694 q 706 692 700 694 q 713 688 713 690 l 713 676 q 732 669 732 676 l 732 657 q 751 651 751 657 l 753 640 q 767 639 761 640 q 774 635 774 638 l 775 604 q 793 597 793 601 l 794 550 q 808 549 801 550 q 814 544 814 547 l 814 6 q 808 1 814 3 q 793 0 801 0 l 632 0 q 617 1 624 0 q 611 6 611 3 l 610 521 q 597 522 603 521 q 590 526 590 524 l 589 557 q 569 564 569 557 l 568 575 l 549 575 q 529 581 529 575 l 528 592 l 426 592 q 426 586 426 589 q 425 581 425 583 q 419 576 425 578 q 404 575 413 575 l 386 575 q 385 569 386 572 q 385 564 385 565 q 378 559 385 561 q 364 557 372 557 l 346 557 q 345 551 346 554 q 344 544 344 547 q 338 540 344 542 q 325 539 332 539 q 324 524 325 532 q 324 510 324 517 q 317 506 324 507 q 304 504 311 504 q 303 479 304 492 q 303 456 303 467 q 285 450 303 450 q 284 227 285 338 q 283 6 283 117 q 277 1 283 3 q 263 0 271 0 l 100 0 q 85 1 92 0 q 79 6 79 3 l 79 706 q 85 710 79 708 q 100 711 92 711 l 263 711 z "}}}
